<svg id="Layer_1" data-name="Layer 1" xmlns="http://www.w3.org/2000/svg" viewBox="0 0 50 50"><defs><style>.cls-1{fill:#7dcb87;}.cls-2,.cls-3{fill:#fff;}.cls-3{fill-rule:evenodd;}</style></defs><circle class="cls-1" cx="25" cy="25" r="25"/><path class="cls-2" d="M7.67,18.49a19.18,19.18,0,0,1,35.09-2.32.3.3,0,0,0,0,.1v0a10.92,10.92,0,0,0-2.4,1.05c-4.6-6.3-12.67-9.86-21-5.9A15,15,0,1,0,32.09,38.54c.92-.43,1.11,2,1.94,1.33a15.12,15.12,0,0,0,2.27-2.1l3.87-.14a19.36,19.36,0,0,1-2.89,2.7A19.19,19.19,0,0,1,7.67,18.49Z"/><path class="cls-3" d="M15.34,41.11c7.89,5.55,13.26,1.52,18.12.47,3.85-.84,7.81-4.58,9.3-6.49.22-.28,1.46-1.52.06-1.79-.85-.16-2,1.16-4.06,2.55s-3.71,2.19-8,2.81c-.94.14-3.25.16-3.55-1-.22-.86,1.13-1.83,2.28-2.78,2.82-2.34,1-5.7-.1-4.07-1.58,2.41-2.26,2.17-5.26,4.1a12.67,12.67,0,0,0-4,4c-1.84,3.09-8-1.6-4.81,2.27Zm18.22-3.58a15,15,0,0,0,2.4-.72c.83-1.42,1.67-2.91,1.37-3.23s-1.58-.17-2.78,2.31a13.49,13.49,0,0,1-1,1.64Zm2.74-.86a16.45,16.45,0,0,0,2.38-1.31l.87-.58c.65-1.09,1.15-2.05.92-2.3-.4-.45-1.56-.23-2.85,2.21a14.79,14.79,0,0,1-1.32,2Zm-5,1.25c.73-.1,1.37-.21,2-.33.73-1.25,1.43-2.52,1.16-2.8s-1.42-.16-2.52,2.09a10.34,10.34,0,0,1-.59,1Z"/></svg>