<svg xmlns="http://www.w3.org/2000/svg" viewBox="0 0 579.21 286.27"><defs><style>.cls-1{isolation:isolate;}.cls-2{fill:#99a6ff;}.cls-14,.cls-2,.cls-21,.cls-22,.cls-25,.cls-3,.cls-6{mix-blend-mode:hard-light;}.cls-4{fill:#0cc;}.cls-5{fill:#f2cc00;}.cls-24,.cls-6{fill:#e68cff;}.cls-17,.cls-7{mix-blend-mode:multiply;}.cls-8{fill:#f2b800;}.cls-9{fill:#ffdb00;}.cls-10{opacity:0.66;}.cls-11{fill:#fff;}.cls-12{fill:#ffc900;}.cls-13{fill:#63a8e6;}.cls-14{opacity:0.75;}.cls-15{fill:#7aebf0;}.cls-16{fill:#1abaee;}.cls-17{opacity:0.55;}.cls-18{opacity:0.64;}.cls-18,.cls-20{mix-blend-mode:soft-light;}.cls-19{fill:#dec4ff;}.cls-21{opacity:0.88;}.cls-22{opacity:0.89;}.cls-23{fill:#c27dff;}.cls-25{opacity:0.83;}.cls-26{fill:#ffb5f0;}.cls-27{fill:#e0cfff;}.cls-28{fill:#cfadff;}</style></defs><g class="cls-1"><g id="heads"><path class="cls-2" d="M272.9,245.51c1.31.12,2.75-.22,3.86,1.36s.26,3.82.26,3.82l-.14.5a44.78,44.78,0,0,1-2.18,4.32c-.54.7-1.41,3.29-.53,5a4.42,4.42,0,0,0,2.26,2.36,15.06,15.06,0,0,0,3.09.31l.38.18-.27,1.12-.5.17a6.7,6.7,0,0,0-2.19,4.86,7.55,7.55,0,0,0,2.47,5.16c1.2.95,3,1.37,4.13,2.93,1.42,1.95,1.21,6,.95,8.47s.55,7.33,3.69,10.16,9.21,3.39,16.35,1.84l2.67-.68s13.22-2.85,16.32-3.68,9.74,1.64,11.08,6.27c1.1,3.81,6.71,14.44,6.09,35.32l-.61.23-4.32,5.4L325.83,364H458.45C451.11,350,443,335,443,335l-20.77-23.26-8.78-4.31-.79.31c-1.29-7.15-1.27-14.29-2.2-21.24,1.71,1.26,12.21,3.44,14.14,4.71,1.13.74,2.35,1.47,3.63,2.21,2,0,3.92,0,5.8-.08a38.4,38.4,0,0,0,6.24,1.57c3.15.25,12,2,12,2l-3.39-4.36c.76.56,1.59,1.16,2.45,1.76a20.32,20.32,0,0,0,6.91,3,23.45,23.45,0,0,1-2.38-4.06,7.74,7.74,0,0,1-.32-.91c1.06.58,2.3,1.25,3.59,1.92a20.5,20.5,0,0,0,7.25,2.07,23.29,23.29,0,0,1-2.89-3.71,16.82,16.82,0,0,1-1.41-3.55c33.3-16.82,34.77-57.43,36.95-73.27,2.63,3.78,5.57,7.91,7.49,10.19,4.16,4.94,6.36,4.59,6.36,4.59a42.46,42.46,0,0,1-5.44-5.86c-2.88-3.72-4.51-6.83-7.8-15.54-.19-.53-.43-1.11-.68-1.73-1.46-8.92-7.09-19.12-15.3-32.65,3.32,2.95,6.32,5.58,8.59,7.53,11.47,9.83,25.67,14.29,25.67,14.29s-28.6-20.83-41.74-36.9c-2.25-2.75-4.52-5.56-6.73-8.34l-1.3-2.17a136.07,136.07,0,0,0-16-21.93l1.15.54A37.87,37.87,0,0,0,475,131.2s-14.12-.06-21.43-5.58c-3-2.27-7.09-5.16-10.85-7.76-15.91-14.16-34.52-22.68-54.33-24.63a95.62,95.62,0,0,0-23.06.66c6.76-2.84,15.32-5.75,23.59-6.63A113.16,113.16,0,0,1,404,86.75a48.66,48.66,0,0,1,13.05,14.12,43.5,43.5,0,0,0-10.23-14,161,161,0,0,1,18.8,1.94A191.39,191.39,0,0,0,406,86.09a31.71,31.71,0,0,0-20.66-7.86c-17.52-.18-41.45,16.18-50.93,23.22a67.86,67.86,0,0,0-7.37.06c2.54-.07,5,0,7.16.1-.93.69-1.71,1.28-2.32,1.75-12.09,4.89-21.08,9.9-24.94,11.08-3.32,1-7.5,2.22-11.82,3.83A36.36,36.36,0,0,1,311.44,105,47.58,47.58,0,0,1,327,101.51a51.22,51.22,0,0,0-14.9,2.26q-.35.11-.69.24c-8.56,3.17-16.74,11.36-21,16.18-5.52,2.47-10.86,5.7-14.58,10.17-7.68,9.23,3.18,20.33,3.18,20.33l1.11.91c-1.32,0-5.17.22-6.7,2.32-1.83,2.55,1.07,6.88,1.07,6.88s.12-4.35,1.47-5.35a10.1,10.1,0,0,1,5-1.36,72.77,72.77,0,0,0-3.75,12.61,140.59,140.59,0,0,0-1.72,21c0,1.78-.28,6.68-.18,8.57a36.73,36.73,0,0,0,.79,4.81l.45,1.36a54.39,54.39,0,0,1,1.71,6.94,17.31,17.31,0,0,1-3.36-.12c-2.71-.48-6.67-2.88-6.67-2.88-.34.73,2.63,3.13,6.17,4.1a16,16,0,0,0,3.85.55c-.65,3.36-4.39,10.1-4.39,10.1l-.45.75s-4,7-5.54,9.7-3.06,6.66-1,10.32A7.47,7.47,0,0,0,272.9,245.51ZM384.08,80.14a33.42,33.42,0,0,1,18.54,5.7,125.19,125.19,0,0,0-16.56-.1c-9.83.68-25.19,6.83-34.65,11-2.13.56-4.21,1.17-6.24,1.8C354.88,92,373.69,80.16,384.08,80.14Z" transform="translate(-13.29 -78.23)"/><g id="Layer_7" data-name="Layer 7" class="cls-3"><path class="cls-4" d="M174.41,299.23c6.83-.31,18.19,1.63,22.26,3.67s7.74,11.67,8.57,15.59c.2.91.44,2.26.75,3.85-2.47,1.12-4.72,4.15-7.17,5.32-1.79,2.47-1.67,3.67-1.15,4.91,2,4.8.74,19.22.74,19.22s-7.23,7.23-11,12.71H364.87c-11-28.06-34.59-62.34-35.41-63.69-1.82-3-7.73-.38-8.78-4.44-.71-2.8-4.2-3.1-6.64-3.76-1.64-6.07-2.77-11.89-2.76-16.3a35.41,35.41,0,0,1,.81-6.62c0,.17.07.34.11.5.76-4.29,3.75-9.45,3.95-11.16,3-.86,5.16-8.7,6.27-10.06a38.45,38.45,0,0,0,4.93-8.23A151.51,151.51,0,0,0,334,223.43c2.75-8.92,5.25-18.73,5.13-26.54s1.56-14.93,2.13-24.17-.7-21.29-8.85-35.71S318,114.52,312.49,110.7s-24.16-10.11-24.16-10.11-4.7-5.44-16.63-9.79c-10.9-4-17.22-2.24-17.22-2.24a28.58,28.58,0,0,0-9.87-3.17c-6.86-.6-16.11,1.1-16.11,1.1a28,28,0,0,0-14.88-3.2,32.49,32.49,0,0,0-17.18,7.09s-12,3-25.08,15.58c-8.27,7.92-14.2,16.49-10.37,25,2,4.45,4.18,4.49,6.11,4.48a136.82,136.82,0,0,0-4.52,13.15c-1.27,4-5.75,15.16-6.88,18.17s-.93,5.56-.86,10.2c0,3.39,4.42,7,4.07,11.84s-13.31,24.28-15.74,27.85-4.65,7.64-3.91,11.15,2.33,6.13,5.08,7.47,6.45,1.74,6.31,2.81a19.2,19.2,0,0,1-2.25,5.34,11.35,11.35,0,0,0-1.68,4.39,6.64,6.64,0,0,0,1.64,4c1,1,8,2.33,8,2.33s-7,1.33-8.13,2.94-.83,4.07-.24,5.81c.88,2.55,6.56,7.8,6.83,8.79s-.54,4-1.94,7.34-1.06,10.23,2.91,15.73C158,297.82,167.58,299.53,174.41,299.23Z" transform="translate(-13.29 -78.23)"/></g><g class="cls-3"><path class="cls-5" d="M45.08,305.34c7.38,2.74,24-5.32,30.05-8.6.09,0,18.44-5.72,18.8,12.06a56.49,56.49,0,0,1-.38,6.72c-2.07,1.44-3.82,2.65-4.87,3.28-3.91,2.34-3.91,6.25-3.91,10.15s-4.68,9.37-7.8,13.28-3.91,10.93-6.25,18c-.32,1-.77,2.27-1.31,3.81H231.84l-1-3.81L219.87,343s-6.25-7-7.81-10.15-3.9-4.69-3.9-7-6.25-8.59-7-12.5-6.25-7-11.71-15.61S180,286,176.92,283.66c-1.81-1.36-4.4.17-6.26,1.69a137.36,137.36,0,0,1-4-16c1.67-.18,3.12-.37,3.12-.37s4.6-.76,4.6-2.87-1.72-4.8-1.72-4.8,5,.58,8.05-2.68,4.41-6.34,5-6.72,4.79-1,6-3.07-.39-5.75.19-6,1.53-.38,3.45-2.49-1.72-4.6-2.11-5.37,1.34-3.65,2.5-3.65-.2,1.92.57,2.5a13,13,0,0,0,3.28,1,6.33,6.33,0,0,1,.54-1.15l-.56,0c-2.68-.2-.19-1.35-.19-2.69s-3.45-.58-5.18-2.11,1.73-3.45,2.3-5.57,1.34-4.41,2.11-8.24,3.27-9.6,3.65-12.86-4.8-4.6-4.8-5.75.58-1.15,3.07-3.26S202,182,201.79,180.7s2.11-.39,3.07-1.16a.7.7,0,0,0,.2-.23c-.21-.28-.41-.57-.6-.86A10.22,10.22,0,0,0,201,178c-3.45,0-.77-5.76.38-5.76a7,7,0,0,0,1.34-.16c0-1.05.17-2.12.31-3.16-1.12-.85-.72-3.57-.88-4.73-.19-1.35-1.92-1-1.15-3.46s-4.61-4.41-4.61-4.41a17.75,17.75,0,0,1,0-5.18c.39-3.45-5.75-6-5.75-6a5.29,5.29,0,0,0-.19-4.79,5.36,5.36,0,0,0-4.22-3.07,11,11,0,0,0,.38-4.8c-.38-2.68-3.65-2.3-3.65-2.3a11.13,11.13,0,0,0,.39-3.26c0-2.11-4.8-5.37-4.8-5.37a26.27,26.27,0,0,0-4-5.18c-2.11-1.92-5.18-2.88-5-3.84.14-.69,1.77-.39,2.67-.16-1.18-1.51-1.1-3.58-2.61-5a27.82,27.82,0,0,0-2.23-1.82,5.5,5.5,0,0,0-.89,1.62s-.58-1.54-3.27-1.92-3.83,3.84-3.83,3.84l-2.88-3.27s.57-3.06-3.07-5.94-4-3.65-4-3.65A25.75,25.75,0,0,0,146.34,93a3.79,3.79,0,0,0-.4-.3c-.28-2-1.05-5.07-3.16-4.76-2.67.4-3.23,3.68-3.33,4.65l-1.55-.55s-1.34-4-3.65-4.41-6.91,3.26-8,3.45-5.57-3.84-5.57-3.84.2-1.72-2.68-3.45-7.48,2.11-7.48,2.11,1.53-3.26-1.35-4.8S103,84.77,103,84.77a5.05,5.05,0,0,0-1.91-4c-2.11-1.72-4.8,5-4.8,5a36.72,36.72,0,0,1-4.42-1.92c-1.72-1-4.6,4-7.28,5.76s-4.42-1-5.57-2.31-3.45,2.31-4.41,4c-.72,1.29-.9-.08-2.53-.15a3.45,3.45,0,0,0,.23-1.38c-.2-1.15-3.07-.38-3.07-.38a1.68,1.68,0,0,0,.19-1.92c-.58-1.15-5,1.53-5,1.53a5.14,5.14,0,0,0,2.5,0c.76-.38-1,2.3-1,2.3h2.1c.73,0,.61.77.43,1.34-1.71,2,.34,5.19.34,5.19a14.33,14.33,0,0,0-5,.57c-1.92.77-.77,4.8-.77,4.8s-1.58.65-4.18,1.64A3.8,3.8,0,0,0,56,103c-2.07-.17-2.49,2.48-2.52,4.31a17.41,17.41,0,0,0-2.71-.68c-3.26-.57-3.45,5.76-5.95,8.06s-1.53-1.73-4-2.11-2.49,4.6-2.11,5.37-1,1.73-2.87,1.92-7.11,5.37-7.87,6.71-3.84,1.54-5.37,1.73c-1.22.15-2.55,2.1-3.72,4.05-2-.5-5-.89-5.5,1.13-.76,3.07,3.27,5,3.27,5s-2.88-2.88-1.92-4.41c.55-.88,2.15-.75,3.43-.49-.05.1-.12.2-.17.29-1.34,2.31,0,5.57,0,5.57a2.94,2.94,0,0,0-2.49,2.88c0,2.49,4,2.68,4,2.68a8.64,8.64,0,0,0,.57,5.57,5.52,5.52,0,0,0,4.42,3.26s-1.54.77-1.54,4,4.22,2.87,4.22,2.87-.15.21.12.61c-5.19,10.93-7.54,20.53-8,24.45-1.12,9.3,1.77,19.72,1.77,21s.52,4.63,1.16,5.6a3.31,3.31,0,0,1,.43,1.26,5.73,5.73,0,0,0,.35,3.54c.82,1.32,4.11,3.29,4.28,6.92s-1.81,8.89-4.44,14-7.58,10.38-5.94,14.5,4.45,5.76,5.94,5.76a13,13,0,0,1,3.94.66,4.75,4.75,0,0,1,.83,4.61c-.83,3-2.47,4.94-2.3,6.26s2.3,5.11,4.61,5.93A26.89,26.89,0,0,0,35.2,277s-4.78,2.48-4.78,5.93,1.81,5.28,2.64,5.61,3.95-.5,5.27,1.15S38,302.7,45.08,305.34ZM142.77,89.42c1,.17,1.49,1.63,1.73,2.89a7.08,7.08,0,0,0-3.34.9l-1.63-.57C139.91,91.82,141.25,89.17,142.77,89.42ZM56.22,104.31a2.46,2.46,0,0,1,2,.79l-1,.39a5.7,5.7,0,0,0-2.25,1.28C55,105.68,55.32,104.5,56.22,104.31Z" transform="translate(-13.29 -78.23)"/></g><path class="cls-6" d="M460,345.5,443.18,364H592.5V330.82L589,323.5l-19-23-5-10-4.72,2.83c-5.11-12-8.59-24.3-9.37-36.74-.33-5.15,1.7-2.72,4.6-7.42,3.76-6.11,5.19-14.75,6.2-21.72,1.62-11.19,6.61-21.3,8.9-32.26,2.19-10.47,4.24-21.62,4.19-32.35a80.17,80.17,0,0,0-2.35-20.06c-2.07-7.85-7.16-14.82-11.39-21.66C542.73,91.43,502.23,80.93,469.48,83a106.39,106.39,0,0,0-25.27,4.19c-11.22,3.52-24,5.87-32.83,14-6.21,5.72-14.16,13.54-17.55,21.41-1.66,3.86-2,9.88,3.14,16.12-.21.93-2.29,10.41-2.65,13.1s-4.6,20.87-4.79,26.15.75,10.57,2.07,13.58a13.56,13.56,0,0,1,1.13,7.93c-.37,2.45-4.34,11.69-5.47,14.33s-6.22,9.81-7.16,11.89a13.3,13.3,0,0,0-.57,11.5c2,4.58,9.81,4.72,11.7,4.72s3,2.07,3.58,6-.19,8.11,0,10.18,4.72,5.47,4.72,5.47-3.59,5.1-.38,6.61,4.2,5.12,4.58,8.51c.21,1.89-4,12.31,2.21,19.78,9.69,11.7,45.58,3.21,48.41,6.42s2.52,5.28,2.52,5.28l2.31,7.68a51.43,51.43,0,0,0,3.26,9.74l-2.44.85Z" transform="translate(-13.29 -78.23)"/></g><g id="new_pink" data-name="new pink"><g class="cls-7"><path class="cls-8" d="M164,233.27a7.46,7.46,0,1,1,7.46-7.46A7.46,7.46,0,0,1,164,233.27Zm0-14.18a6.73,6.73,0,1,0,6.72,6.72A6.73,6.73,0,0,0,164,219.09Z" transform="translate(-13.29 -78.23)"/><path class="cls-8" d="M126.34,233.27a7.46,7.46,0,1,1,7.46-7.46A7.47,7.47,0,0,1,126.34,233.27Zm0-14.18a6.73,6.73,0,1,0,6.72,6.72A6.73,6.73,0,0,0,126.34,219.09Z" transform="translate(-13.29 -78.23)"/><path class="cls-8" d="M88.67,233.27a7.46,7.46,0,1,1,7.46-7.46A7.47,7.47,0,0,1,88.67,233.27Zm0-14.18a6.73,6.73,0,1,0,6.73,6.72A6.72,6.72,0,0,0,88.67,219.09Z" transform="translate(-13.29 -78.23)"/><path class="cls-8" d="M143.68,259.84a7.46,7.46,0,1,1,7.46-7.46A7.47,7.47,0,0,1,143.68,259.84Zm0-14.18a6.73,6.73,0,1,0,6.73,6.72A6.72,6.72,0,0,0,143.68,245.66Z" transform="translate(-13.29 -78.23)"/><path class="cls-8" d="M106,259.84a7.46,7.46,0,1,1,7.46-7.46A7.46,7.46,0,0,1,106,259.84Zm0-14.18a6.73,6.73,0,1,0,6.73,6.72A6.73,6.73,0,0,0,106,245.66Z" transform="translate(-13.29 -78.23)"/><polygon class="cls-8" points="135.02 168.79 134.45 168.31 146.84 153.47 147.41 153.94 135.02 168.79"/><rect class="cls-8" x="134.76" y="230.14" width="0.74" height="16.94" transform="translate(-131.49 55.42) rotate(-37.97)"/><rect class="cls-8" x="106.38" y="238.11" width="18.86" height="0.74" transform="translate(-149.74 78.73) rotate(-46.19)"/><rect class="cls-8" x="98.13" y="229.52" width="0.74" height="17.92" transform="translate(-144.61 42.97) rotate(-40.52)"/></g><g class="cls-3"><path class="cls-8" d="M121.86,308.92a1.59,1.59,0,0,1-1.6-1.58l0-2.72a20.84,20.84,0,0,1-4.06-1.29l-1.58,2.22a1.65,1.65,0,0,1-2.23.36l-4.23-3a1.59,1.59,0,0,1-.37-2.22l1.58-2.22a19.85,19.85,0,0,1-2.53-3.43l-2.58.86a1.62,1.62,0,0,1-2-1l-1.64-4.95a1.59,1.59,0,0,1,1-2l2.58-.87a20.23,20.23,0,0,1,0-4.26l-2.6-.82a1.58,1.58,0,0,1-1-2l1.57-5a1.63,1.63,0,0,1,2-1l2.6.83a20.67,20.67,0,0,1,2.48-3.47l-1.62-2.19a1.6,1.6,0,0,1,.34-2.23l4.2-3.09a1.62,1.62,0,0,1,2.22.34l1.62,2.19c.64-.29,1.31-.55,2-.78s1.37-.41,2.06-.56l0-2.73a1.59,1.59,0,0,1,1.58-1.6l5.22,0a1.6,1.6,0,0,1,1.6,1.58l0,2.72a20.84,20.84,0,0,1,4.06,1.29L134,264a1.64,1.64,0,0,1,2.22-.37l4.24,3a1.6,1.6,0,0,1,.37,2.22l-1.59,2.22a19.85,19.85,0,0,1,2.53,3.43l2.58-.86a1.62,1.62,0,0,1,2,1l1.65,4.94a1.61,1.61,0,0,1-1,2l-2.59.86a20.23,20.23,0,0,1,0,4.26l2.6.82a1.6,1.6,0,0,1,1,2l-1.57,5a1.62,1.62,0,0,1-2,1l-2.6-.83a19.74,19.74,0,0,1-2.48,3.47l1.62,2.19a1.55,1.55,0,0,1,.29,1.18,1.57,1.57,0,0,1-.63,1l-4.19,3.09a1.64,1.64,0,0,1-2.23-.33l-1.62-2.2c-.66.3-1.33.56-2,.78s-1.36.41-2.06.57l0,2.72a1.6,1.6,0,0,1-1.58,1.61Zm-6-6.59.3.14a19.33,19.33,0,0,0,4.5,1.43l.32.06,0,3.38a.8.8,0,0,0,.8.79v0l5.22,0a.79.79,0,0,0,.78-.8l0-3.38.32-.06a20.6,20.6,0,0,0,2.28-.61,20.27,20.27,0,0,0,2.2-.89l.3-.14,2,2.72a.81.81,0,0,0,1.12.17l4.19-3.1a.74.74,0,0,0,.31-.51.77.77,0,0,0-.14-.59l-2-2.72.23-.25a19.7,19.7,0,0,0,2.74-3.84l.16-.28,3.22,1a.81.81,0,0,0,1-.52l1.57-5a.79.79,0,0,0-.51-1l-3.22-1,0-.32a19.21,19.21,0,0,0,0-4.73l0-.32,3.2-1.07a.8.8,0,0,0,.51-1l-1.65-4.94a.8.8,0,0,0-1-.51l-3.21,1.07-.16-.28a19.42,19.42,0,0,0-2.8-3.8l-.23-.24,2-2.75a.81.81,0,0,0-.18-1.11l-4.25-3a.82.82,0,0,0-1.11.18l-2,2.75-.3-.14a20,20,0,0,0-4.5-1.43l-.32-.06,0-3.38a.79.79,0,0,0-.79-.78l-5.22,0a.81.81,0,0,0-.79.8l0,3.38-.32.07a17.81,17.81,0,0,0-2.28.61,20.17,20.17,0,0,0-2.2.88l-.3.14-2-2.72a.81.81,0,0,0-1.11-.17l-4.2,3.1a.77.77,0,0,0-.31.52.83.83,0,0,0,.14.59l2,2.72-.22.24a19.34,19.34,0,0,0-2.75,3.84l-.16.29-3.22-1a.81.81,0,0,0-1,.52l-1.57,5a.79.79,0,0,0,.51,1l3.23,1,0,.33a19.62,19.62,0,0,0,0,4.72l0,.32-3.2,1.07a.79.79,0,0,0-.46.4.81.81,0,0,0,0,.61l1.65,4.95a.81.81,0,0,0,1,.5l3.21-1.07.16.29a19.66,19.66,0,0,0,2.81,3.8l.22.24-2,2.74a.8.8,0,0,0,.19,1.11l4.24,3a.83.83,0,0,0,1.11-.19Zm8.4-1.09a16.47,16.47,0,1,1,5.19-.84A16.47,16.47,0,0,1,124.31,301.24Zm0-32.14a15.67,15.67,0,1,0,14.88,10.72A15.72,15.72,0,0,0,124.29,269.1Z" transform="translate(-13.29 -78.23)"/><path class="cls-8" d="M152.59,322.62a1.84,1.84,0,0,1-.33,0l-4.2-.86a1.28,1.28,0,0,1-1.12-1.42l.5-2.45a12.51,12.51,0,0,1-4.38-3.89l-2.37.79a1.31,1.31,0,0,1-1.55-.94l-1.35-4.07a1.53,1.53,0,0,1,0-1,1.12,1.12,0,0,1,.67-.69l2.37-.78a12.53,12.53,0,0,1,1.18-5.75l-1.87-1.66a1.28,1.28,0,0,1,0-1.8l2.85-3.21a1.32,1.32,0,0,1,1.79-.26l1.87,1.66a12.25,12.25,0,0,1,2.67-1.25,11.89,11.89,0,0,1,2.89-.6l.51-2.45a1.29,1.29,0,0,1,1.58-.86l4.2.86a1.3,1.3,0,0,1,1.12,1.41l-.51,2.46a12.34,12.34,0,0,1,4.39,3.89l2.37-.79a1.3,1.3,0,0,1,1.54.94L168.8,304a1.51,1.51,0,0,1-.05,1.13,1,1,0,0,1-.62.54l-2.37.79a12.4,12.4,0,0,1-1.18,5.75l1.87,1.66a1.28,1.28,0,0,1,0,1.8l-2.85,3.21a1.3,1.3,0,0,1-1.78.25l-1.87-1.65a12.5,12.5,0,0,1-2.67,1.25,12.07,12.07,0,0,1-2.9.6l-.5,2.45A1.21,1.21,0,0,1,152.59,322.62Zm-9.21-9.6.17.26a11.66,11.66,0,0,0,4.52,4l.28.13-.63,3.05c0,.17.17.41.5.48l4.2.86c.3.06.6-.06.64-.24l.62-3,.31,0a11.82,11.82,0,0,0,5.74-1.91l.25-.17,2.33,2.06c.14.13.46,0,.66-.19l2.84-3.21c.23-.25.24-.56.11-.68l-2.32-2.06.14-.27a11.57,11.57,0,0,0,1.21-5.92l0-.31,2.95-1a.34.34,0,0,0,.16-.15.71.71,0,0,0,0-.52l-1.36-4.07a.58.58,0,0,0-.46-.45l-3,1-.16-.26a11.68,11.68,0,0,0-4.53-4l-.27-.14.63-3c0-.16-.17-.4-.5-.47l-4.2-.86c-.3-.07-.61.06-.64.24l-.63,3-.31,0a12.18,12.18,0,0,0-3,.58,12,12,0,0,0-2.74,1.33l-.26.17-2.32-2.06c-.14-.13-.46,0-.66.19l-2.85,3.21c-.23.25-.24.56-.11.68l2.33,2.06-.14.27a11.7,11.7,0,0,0-1.22,5.92l0,.31-2.95,1a.3.3,0,0,0-.17.2.69.69,0,0,0,0,.47l1.35,4.07a.58.58,0,0,0,.46.44Zm9.9,2.51-.52,0-.41,0-.42-.06-.41-.08c-.14,0-.27-.06-.41-.09l-.34-.1-.06,0-.39-.13-.39-.16a3.89,3.89,0,0,1-.38-.16l-.36-.19-.27-.15h-.13l-.06-.12-.25-.15a9.19,9.19,0,0,1-1.78-1.57,8.49,8.49,0,0,1-.73-1h0l-.21-.35c-.08-.15-.14-.25-.19-.36l-.35-.77a4.29,4.29,0,0,1-.15-.42c-.05-.14-.09-.28-.13-.41l-.1-.42a1.88,1.88,0,0,1-.06-.31.35.35,0,0,1,0-.14c0-.08,0-.2-.05-.32s0-.32-.05-.44,0-.31,0-.44c0-.28,0-.56,0-.83a9.12,9.12,0,0,1,.48-2.32,8.87,8.87,0,0,1,.92-1.85l.21-.31,0-.05.24-.31.27-.32h0a8.7,8.7,0,0,1,2.68-2.05,9.74,9.74,0,0,1,1.1-.45,9.49,9.49,0,0,1,1.14-.3,9.11,9.11,0,0,1,2.55-.09l.42.06.4.07.49.12.31.09.29.1.11,0,.31.12h.06l.07.05.32.15.1,0,.19.1h0l.08,0,.11.06.15.08H158v.18l.15.1a9,9,0,0,1,1.78,1.57,6.9,6.9,0,0,1,.47.6l0,.06.23.33.41.73-.31.28.36-.18c0,.09.09.19.13.28l.17.4.15.41.12.41.06.22,0,.17c0,.13.05.23.07.33l0,.12.06.35c0,.19,0,.32,0,.45a7.6,7.6,0,0,1,0,1.26,8.41,8.41,0,0,1-.48,2.32l-.09.24h0l-.06.14c-.05.13-.1.25-.16.37l-.18.37-.21.37c-.06.12-.14.23-.21.35a4.15,4.15,0,0,1-.24.34c-.08.12-.16.23-.25.34l-.27.31a4.12,4.12,0,0,1-.28.31l-.3.3c-.1.1-.21.19-.32.28l-.32.26a8.88,8.88,0,0,1-1.45.91,11.55,11.55,0,0,1-1.1.45,9.22,9.22,0,0,1-1.15.29A8.53,8.53,0,0,1,153.28,315.53Zm-3.95-1.87.24.13.32.17.35.15a3.19,3.19,0,0,0,.35.14l.29.1.43.13.37.09.37.06.39.06.37,0,.38,0a8.92,8.92,0,0,0,1.55-.14,7.7,7.7,0,0,0,1-.27,8.42,8.42,0,0,0,1-.41,7.61,7.61,0,0,0,1.31-.82l.3-.24.29-.26a3.19,3.19,0,0,0,.26-.26,2.27,2.27,0,0,0,.26-.28l.25-.29.23-.3.21-.31.19-.32c.07-.11.13-.22.19-.33s.11-.23.17-.34l.15-.35.13-.34a8.18,8.18,0,0,0,.44-2.11,8.54,8.54,0,0,0,0-1.13c0-.13,0-.25,0-.37s0-.27-.05-.37l.37-.18-.39.07-.1-.45c0-.08,0-.14,0-.2l-.12-.38c0-.13-.09-.25-.14-.38l-.15-.36a2.56,2.56,0,0,0-.11-.24l.31-.28-.36.18-.39-.7-.17-.23,0,0c-.15-.2-.3-.4-.46-.59a8.22,8.22,0,0,0-1.62-1.43l-.31-.19-.13-.08-.09,0-.15,0-.07-.14-.14-.07h-.11l-.06-.08-.26-.12,0,0-.3-.11-.32-.11-.07,0-.28-.08-.17,0-.25-.06-.37-.07-.38-.05a8.14,8.14,0,0,0-2.31.09,7.9,7.9,0,0,0-1,.27,7.24,7.24,0,0,0-1,.41,7.62,7.62,0,0,0-2.43,1.86l-.09.11c-.06.06-.1.12-.15.18l-.23.3,0,0-.18.27a8,8,0,0,0-.83,1.69,7.85,7.85,0,0,0-.44,2.11,6.06,6.06,0,0,0,0,.74c0,.13,0,.25,0,.38s0,.25,0,.37,0,.27.06.37l0,.11c0,.1,0,.19,0,.28l.1.38.11.37c.05.13.09.25.14.37l.32.71c0,.1.1.19.15.29a3.62,3.62,0,0,0,.21.34l0,.07a8.35,8.35,0,0,0,.64.86,8.08,8.08,0,0,0,1.61,1.42l.22.15.08,0h0Z" transform="translate(-13.29 -78.23)"/></g><path class="cls-9" d="M109,126.7l-.23-.3c-.39-.51-9.37-12.45-9.37-20.64a9.6,9.6,0,0,1,19.19,0c0,8.19-9,20.13-9.36,20.64Zm0-29.95a9,9,0,0,0-9,9c0,7.27,7.57,18,9,20,1.43-2,9-12.7,9-20A9,9,0,0,0,109,96.75Zm0,15.16a6.15,6.15,0,1,1,6.15-6.15A6.16,6.16,0,0,1,109,111.91Zm0-11.72a5.57,5.57,0,1,0,5.56,5.57A5.58,5.58,0,0,0,109,100.19Z" transform="translate(-13.29 -78.23)"/><path class="cls-9" d="M110.27,179.42l-5.35-5.93.26-.23c.27-.22.54-.48.81-.74l.56-.53.22-.19,1,.84,3,3.28a2.59,2.59,0,0,1-.26,3.21Zm-4.39-5.87,4.35,4.82a1.82,1.82,0,0,0,0-2l-2.92-3.24-.57-.45-.33.32Z" transform="translate(-13.29 -78.23)"/><path class="cls-9" d="M104.79,183.55h0a2.27,2.27,0,0,1-1.61-.68c-.73-.35-7.79-3.79-12.35-8.85a38.13,38.13,0,0,1-7.39-13,2.27,2.27,0,0,1-.52-1.56,2.24,2.24,0,0,1,.74-1.55l3.72-3.35,6,6.61-.07.19c-.19.52-1,3.31,2.89,7.58s7.64,4.72,8.35,4.76h.14l5.36,5.95L106.29,183A2.23,2.23,0,0,1,104.79,183.55ZM87.33,155.48l-3.22,2.9A1.57,1.57,0,0,0,84,160.6l.08.13a37.42,37.42,0,0,0,7.26,12.84c4.69,5.21,12.12,8.68,12.19,8.72l.11.08a1.61,1.61,0,0,0,2.21.11l3.22-2.9-4.73-5.25c-1.22-.09-4.85-.75-8.66-5s-3.4-7-3.1-8.07Z" transform="translate(-13.29 -78.23)"/><path class="cls-9" d="M93.55,160.89l-6-6.6.32-.21a3.09,3.09,0,0,1,1.72-.53,2,2,0,0,1,1.5.6l3.52,3.91.69,1-.22.2a12,12,0,0,0-1.33,1.36Zm-4.91-6.45,4.9,5.43a11.49,11.49,0,0,1,.92-.94l-.32-.46-3.5-3.87A1.86,1.86,0,0,0,88.64,154.44Z" transform="translate(-13.29 -78.23)"/><g class="cls-10"><path class="cls-11" d="M43.91,216.8a4.08,4.08,0,0,1-4.08-4.08v-14a4.08,4.08,0,0,1,4.08-4.08H55.26c2.09,0,3,1.73,3.79,3.39l.26.52c1.43,2.79,5.65,10.63,5.69,10.71l0,.11a3,3,0,0,1-1.54,3.1,2.31,2.31,0,0,1-2.8-.43l-.06-.07-5.69-10a.37.37,0,1,1,.64-.36l5.67,10a1.56,1.56,0,0,0,1.89.26,2.21,2.21,0,0,0,1.17-2.26c-.38-.7-4.3-8-5.67-10.66l-.26-.53c-.81-1.6-1.5-3-3.13-3H43.91a3.35,3.35,0,0,0-3.34,3.34v14a3.35,3.35,0,0,0,3.34,3.34.37.37,0,0,1,.37.37A.36.36,0,0,1,43.91,216.8Z" transform="translate(-13.29 -78.23)"/><path class="cls-11" d="M49.59,193.39a5.59,5.59,0,1,1,5.59-5.59A5.6,5.6,0,0,1,49.59,193.39Zm0-10.44a4.85,4.85,0,1,0,4.85,4.85A4.85,4.85,0,0,0,49.59,183Z" transform="translate(-13.29 -78.23)"/><path class="cls-11" d="M55.27,233.55H43.91a.37.37,0,0,1-.37-.37V202.31a.37.37,0,1,1,.74,0v30.5H54.9V202a.37.37,0,0,1,.37-.37.38.38,0,0,1,.37.37v31.16A.37.37,0,0,1,55.27,233.55Z" transform="translate(-13.29 -78.23)"/><path class="cls-11" d="M49.59,233.4a.37.37,0,0,1-.37-.36V216.15a.37.37,0,1,1,.74,0V233A.37.37,0,0,1,49.59,233.4Z" transform="translate(-13.29 -78.23)"/><path class="cls-11" d="M81,216.8a.36.36,0,0,1-.37-.37.37.37,0,0,1,.37-.37,3.35,3.35,0,0,0,3.34-3.34v-14A3.35,3.35,0,0,0,81,195.37H69.67c-1.63,0-2.32,1.38-3.13,3l-.26.53c-.61,1.19-1.36,2.61-2.44,4.63a.37.37,0,0,1-.5.15.38.38,0,0,1-.15-.5c1.07-2,1.83-3.43,2.43-4.62l.26-.52c.84-1.66,1.7-3.39,3.79-3.39H81a4.08,4.08,0,0,1,4.08,4.08v14A4.08,4.08,0,0,1,81,216.8Z" transform="translate(-13.29 -78.23)"/><path class="cls-11" d="M75.34,193.39a5.59,5.59,0,1,1,5.59-5.59A5.6,5.6,0,0,1,75.34,193.39Zm0-10.44a4.85,4.85,0,1,0,4.85,4.85A4.85,4.85,0,0,0,75.34,183Z" transform="translate(-13.29 -78.23)"/><path class="cls-11" d="M81,233.55H69.66a.37.37,0,0,1-.37-.37V202a.38.38,0,0,1,.37-.37A.37.37,0,0,1,70,202v30.79H80.65v-30.5a.37.37,0,0,1,.37-.37.38.38,0,0,1,.37.37v30.87A.37.37,0,0,1,81,233.55Z" transform="translate(-13.29 -78.23)"/><path class="cls-11" d="M75.34,233.4A.37.37,0,0,1,75,233V216.15a.37.37,0,0,1,.74,0V233A.37.37,0,0,1,75.34,233.4Z" transform="translate(-13.29 -78.23)"/><path class="cls-11" d="M64.83,210.69a.31.31,0,0,1-.18-.05.36.36,0,0,1-.14-.5l4.83-8.56a.37.37,0,1,1,.64.36l-4.83,8.56A.37.37,0,0,1,64.83,210.69Z" transform="translate(-13.29 -78.23)"/></g><g class="cls-7"><path class="cls-8" d="M69.22,134.13H52v-6.71a3.65,3.65,0,0,1,3.65-3.64h9.89a3.64,3.64,0,0,1,3.64,3.64Zm-16.37-.81H68.41v-5.9a2.83,2.83,0,0,0-2.83-2.83H55.69a2.84,2.84,0,0,0-2.84,2.83Z" transform="translate(-13.29 -78.23)"/><path class="cls-8" d="M60.63,122.86a5,5,0,1,1,5-5A5,5,0,0,1,60.63,122.86Zm0-9.1a4.15,4.15,0,1,0,4.14,4.14A4.15,4.15,0,0,0,60.63,113.76Z" transform="translate(-13.29 -78.23)"/><path class="cls-8" d="M68,160.64H53.24v-5.79a3.18,3.18,0,0,1,3.17-3.16h8.44A3.17,3.17,0,0,1,68,154.85Zm-14-.81H67.21v-5a2.36,2.36,0,0,0-2.36-2.35H56.41a2.35,2.35,0,0,0-2.35,2.35Z" transform="translate(-13.29 -78.23)"/><path class="cls-8" d="M60.63,151a4.29,4.29,0,1,1,4.29-4.29A4.3,4.3,0,0,1,60.63,151Zm0-7.76a3.48,3.48,0,1,0,3.48,3.47A3.48,3.48,0,0,0,60.63,143.26Z" transform="translate(-13.29 -78.23)"/><path class="cls-8" d="M87.05,160.64H72.28v-5.79a3.17,3.17,0,0,1,3.17-3.16h8.44a3.17,3.17,0,0,1,3.16,3.16Zm-14-.81H86.24v-5a2.35,2.35,0,0,0-2.35-2.35H75.45a2.36,2.36,0,0,0-2.36,2.35Z" transform="translate(-13.29 -78.23)"/><path class="cls-8" d="M79.67,151A4.29,4.29,0,1,1,84,146.73,4.29,4.29,0,0,1,79.67,151Zm0-7.76a3.48,3.48,0,1,0,3.47,3.47A3.48,3.48,0,0,0,79.67,143.26Z" transform="translate(-13.29 -78.23)"/><path class="cls-8" d="M49,160.64H34.21v-5.79a3.17,3.17,0,0,1,3.17-3.16h8.44A3.17,3.17,0,0,1,49,154.85Zm-14-.81H48.17v-5a2.35,2.35,0,0,0-2.35-2.35H37.38A2.36,2.36,0,0,0,35,154.85Z" transform="translate(-13.29 -78.23)"/><path class="cls-8" d="M41.6,151a4.29,4.29,0,1,1,4.28-4.29A4.29,4.29,0,0,1,41.6,151Zm0-7.76a3.48,3.48,0,1,0,3.47,3.47A3.48,3.48,0,0,0,41.6,143.26Z" transform="translate(-13.29 -78.23)"/><path class="cls-8" d="M41.6,141.74a.41.41,0,0,1-.41-.41v-3.61a.41.41,0,1,1,.81,0v3.61A.4.4,0,0,1,41.6,141.74Z" transform="translate(-13.29 -78.23)"/><path class="cls-8" d="M60.63,141.74a.4.4,0,0,1-.4-.41v-6.26a.41.41,0,0,1,.81,0v6.26A.41.41,0,0,1,60.63,141.74Z" transform="translate(-13.29 -78.23)"/><path class="cls-8" d="M79.67,141.74a.41.41,0,0,1-.41-.41v-3.61a.41.41,0,1,1,.81,0v3.61A.4.4,0,0,1,79.67,141.74Z" transform="translate(-13.29 -78.23)"/><path class="cls-8" d="M79.67,138.12H41.6a.41.41,0,1,1,0-.81H79.67a.41.41,0,0,1,0,.81Z" transform="translate(-13.29 -78.23)"/></g><g class="cls-7"><path class="cls-12" d="M149.68,209.37h-13.9a3.38,3.38,0,0,1-2.49-.78,1.8,1.8,0,0,1-.47-1.38,4.05,4.05,0,0,1,.78-2.17l.16-.27a3,3,0,0,0,.44-1.54c0-2-2-3.59-4.48-3.59s-4.49,1.61-4.49,3.59a3,3,0,0,0,.44,1.54c0,.09.11.18.17.27a4.05,4.05,0,0,1,.77,2.17,1.81,1.81,0,0,1-.47,1.38,3.38,3.38,0,0,1-2.49.78h-6.91a.36.36,0,0,1-.36-.36l0-9.53v-.05c0-1.53-.44-2.31-1.32-2.31H115a3.41,3.41,0,0,0-1.82.67l-.28.18,0,0a3.72,3.72,0,0,1-1.87.52c-2.38,0-4.31-2.34-4.31-5.22s1.93-5.22,4.31-5.22a3.69,3.69,0,0,1,1.91.54l.28.18a3.41,3.41,0,0,0,1.82.67H115c.88,0,1.32-.78,1.32-2.31v-3.92a.36.36,0,0,1,.36-.36h8.14a2.74,2.74,0,0,0,1.93-.56,1.09,1.09,0,0,0,.27-.84,3.38,3.38,0,0,0-.66-1.82c-.06-.1-.13-.19-.18-.29a3.66,3.66,0,0,1-.54-1.91c0-2.38,2.33-4.31,5.2-4.31s5.2,1.93,5.2,4.31a3.66,3.66,0,0,1-.54,1.91,3.31,3.31,0,0,1-.18.29,3.46,3.46,0,0,0-.66,1.82,1.07,1.07,0,0,0,.27.84,2.83,2.83,0,0,0,2,.56l12.68,0a.36.36,0,0,1,.36.36v4c0,2.58-1.28,3-2,3h-.13a4.09,4.09,0,0,1-2.18-.78l-.26-.16a3,3,0,0,0-1.54-.44c-2,0-3.59,2-3.59,4.49s1.61,4.5,3.59,4.5a3,3,0,0,0,1.54-.44l.26-.17a4.09,4.09,0,0,1,2.18-.78H148c.75,0,2,.39,2,3V209a.39.39,0,0,1-.1.25A.35.35,0,0,1,149.68,209.37Zm-13.79-.72h13.43v-9.2a.07.07,0,0,1,0-.05c0-1.53-.44-2.3-1.31-2.3h-.09a3.41,3.41,0,0,0-1.83.66,2.2,2.2,0,0,1-.28.18,3.66,3.66,0,0,1-1.91.54c-2.38,0-4.31-2.33-4.31-5.21s1.93-5.21,4.31-5.21a3.67,3.67,0,0,1,1.91.55l.28.17a3.41,3.41,0,0,0,1.83.67H148c.87,0,1.31-.78,1.31-2.31a.11.11,0,0,1,0-.05v-3.5l-12.33,0a3.44,3.44,0,0,1-2.55-.78,1.85,1.85,0,0,1-.47-1.38,4,4,0,0,1,.78-2.17l.17-.26a3,3,0,0,0,.43-1.55c0-2-2-3.59-4.48-3.59s-4.48,1.61-4.48,3.59a2.94,2.94,0,0,0,.43,1.54l.17.27a4.08,4.08,0,0,1,.78,2.17,1.82,1.82,0,0,1-.46,1.37,3.35,3.35,0,0,1-2.45.79h-7.79v3.62c0,2.58-1.28,3-2,3h-.13a4,4,0,0,1-2.17-.78l-.26-.16a3,3,0,0,0-1.54-.44c-2,0-3.6,2-3.6,4.5s1.62,4.5,3.6,4.5a3,3,0,0,0,1.54-.44l0,0,.22-.14a4.05,4.05,0,0,1,2.17-.78H115c.76,0,2,.39,2,3v0l0,9.22h6.5a2.79,2.79,0,0,0,2-.56,1,1,0,0,0,.28-.84,3.38,3.38,0,0,0-.67-1.82l-.17-.29a3.66,3.66,0,0,1-.54-1.91c0-2.38,2.33-4.31,5.2-4.31s5.2,1.93,5.2,4.31a3.76,3.76,0,0,1-.54,1.91l-.18.29a3.3,3.3,0,0,0-.66,1.82,1.07,1.07,0,0,0,.27.84,2.8,2.8,0,0,0,2,.56Z" transform="translate(-13.29 -78.23)"/></g><g class="cls-7"><path class="cls-8" d="M104.61,157.63a10.15,10.15,0,0,1-10-11.77,10.15,10.15,0,0,1,10-8.54,10.15,10.15,0,0,1,10,11.77,10.15,10.15,0,0,1-10,8.54Zm0-19.64a9.49,9.49,0,1,0,7.69,3.93A9.41,9.41,0,0,0,104.6,138Z" transform="translate(-13.29 -78.23)"/><path class="cls-8" d="M94.41,137.48l-10.13-14,3.92-2.82,10.13,14Zm-9.19-13.87,9.34,12.93,2.83-2-9.34-12.94Z" transform="translate(-13.29 -78.23)"/><path class="cls-8" d="M97.1,140.33l-2.3-3.19,3.08-2.22,2.3,3.19Zm-1.36-3,1.52,2.1,2-1.43-1.51-2.11Z" transform="translate(-13.29 -78.23)"/></g><g class="cls-7"><path class="cls-12" d="M153.9,139.72H124.28v-.08A7,7,0,0,1,122,126.5v0l.25-.15.68-.22-.1,0a8.63,8.63,0,0,1,2.75-5.65,8.74,8.74,0,0,1,5.19-2.27v0l.34-.06.93.09a1.1,1.1,0,0,0,.09-.14,11.92,11.92,0,0,1,21.43.86h0l.12.23.21.67a10,10,0,1,1,0,20Zm-.29-.72h.29a9.26,9.26,0,1,0,0-18.52.71.71,0,0,1-.71-.52l-.25-.65a11.21,11.21,0,0,0-20.24-1,.81.81,0,0,1-.69.5l-.78-.07-.2.06a8,8,0,0,0-5,2.11,7.86,7.86,0,0,0-2.52,5.17c0,.35-.15.56-.38.64l-.52.17-.12.11A6.32,6.32,0,0,0,124.67,139l.71,0h28.23Z" transform="translate(-13.29 -78.23)"/></g><path class="cls-9" d="M54.45,266.46c-.28,0-.56-.2-.85-.6L44,252.55a2.82,2.82,0,0,1,0-3.1l9.64-13.31c.29-.4.57-.6.85-.6s.64.11.64,1.09v4.12H67.33a2,2,0,0,1,2,2v16.54a2,2,0,0,1-2,2H55.09v4.12C55.09,266.36,54.64,266.46,54.45,266.46Zm0-30.38s-.18.07-.41.38L44.4,249.77a2.28,2.28,0,0,0,0,2.46L54,265.54c.22.3.37.38.41.38a.86.86,0,0,0,.11-.54v-4.67H67.33a1.44,1.44,0,0,0,1.44-1.44V242.73a1.45,1.45,0,0,0-1.44-1.44H54.55v-4.66C54.55,236.24,54.47,236.1,54.44,236.08Z" transform="translate(-13.29 -78.23)"/><g class="cls-10"><path class="cls-11" d="M129.23,166.52H117.86a1.11,1.11,0,0,1-1.11-1.11v-1a13.94,13.94,0,0,0-1.26-4.89,17.4,17.4,0,0,0-2.85-3.81l-.44-.45h0a15,15,0,1,1,22.65,0h0l-.47.49a17.4,17.4,0,0,0-2.85,3.81,13.73,13.73,0,0,0-1.27,5.17v.7A1.11,1.11,0,0,1,129.23,166.52Zm-15.74-10.77a17.1,17.1,0,0,1,2.54,3.51,14.62,14.62,0,0,1,1.32,5.15v1a.51.51,0,0,0,.51.51h11.37a.51.51,0,0,0,.51-.51v-.7a14.29,14.29,0,0,1,1.33-5.45,16.71,16.71,0,0,1,2.5-3.47h0l.45-.49a14.45,14.45,0,1,0-20.93,0l.42.44Z" transform="translate(-13.29 -78.23)"/><path class="cls-11" d="M129.16,174H118.28a.66.66,0,0,1-.66-.65v-5a.66.66,0,0,1,.66-.65h10.88a.65.65,0,0,1,.65.65v5A.65.65,0,0,1,129.16,174Zm-10.88-5.68,0,5,10.93,0a.05.05,0,0,0,.05,0v-5Z" transform="translate(-13.29 -78.23)"/><path class="cls-11" d="M123.51,177.31c-2.23,0-4.6-.67-4.6-1.92a1.1,1.1,0,0,1,0-.18l0-.24H128l.05.24a1.41,1.41,0,0,1,0,.18C128.11,176.64,125.74,177.31,123.51,177.31Zm-3.91-1.73c.33.55,1.76,1.13,3.91,1.13s3.65-.61,3.94-1.13Z" transform="translate(-13.29 -78.23)"/></g></g><g id="new_blue"><g class="cls-7"><path class="cls-13" d="M257.69,153.77a7.56,7.56,0,1,1,7.55-7.55A7.56,7.56,0,0,1,257.69,153.77Zm0-14.41a6.86,6.86,0,1,0,6.85,6.86A6.87,6.87,0,0,0,257.69,139.36Z" transform="translate(-13.29 -78.23)"/><path class="cls-13" d="M247.41,218.19a7.56,7.56,0,1,1,7.56-7.55A7.56,7.56,0,0,1,247.41,218.19Zm0-14.41a6.86,6.86,0,1,0,6.86,6.86A6.86,6.86,0,0,0,247.41,203.78Z" transform="translate(-13.29 -78.23)"/><path class="cls-13" d="M211.65,176.15a7.56,7.56,0,1,1,7.55-7.56A7.57,7.57,0,0,1,211.65,176.15Zm0-14.41a6.86,6.86,0,1,0,6.85,6.85A6.86,6.86,0,0,0,211.65,161.74Z" transform="translate(-13.29 -78.23)"/><path class="cls-13" d="M279,201.32a7.56,7.56,0,1,1,7.56-7.55A7.56,7.56,0,0,1,279,201.32Zm0-14.41a6.86,6.86,0,1,0,6.86,6.86A6.86,6.86,0,0,0,279,186.91Z" transform="translate(-13.29 -78.23)"/><path class="cls-13" d="M257.69,183.35a7.56,7.56,0,1,1,7.55-7.55A7.56,7.56,0,0,1,257.69,183.35Zm0-14.41a6.86,6.86,0,1,0,6.85,6.86A6.87,6.87,0,0,0,257.69,168.94Z" transform="translate(-13.29 -78.23)"/><path class="cls-13" d="M294.47,167.73a7.56,7.56,0,1,1,7.55-7.55A7.56,7.56,0,0,1,294.47,167.73Zm0-14.41a6.86,6.86,0,1,0,6.85,6.86A6.87,6.87,0,0,0,294.47,153.32Z" transform="translate(-13.29 -78.23)"/><rect class="cls-13" x="244.05" y="74.08" width="0.7" height="15.61"/><rect class="cls-13" x="263.94" y="168.43" width="25.36" height="0.7" transform="translate(-56.72 39.82) rotate(-22.38)"/><rect class="cls-13" x="233.85" y="156.48" width="0.7" height="33.04" transform="translate(10.71 296.24) rotate(-80.24)"/><rect class="cls-13" x="241.55" y="193.42" width="22.71" height="0.7" transform="translate(-24.52 293.7) rotate(-71.46)"/><rect class="cls-13" x="268.03" y="178" width="0.7" height="13.48" transform="translate(-56.41 202.03) rotate(-51.59)"/></g><g class="cls-14"><path class="cls-11" d="M208.7,152.91a1.63,1.63,0,0,1-1.57-1.16l-.88-2.87a21.81,21.81,0,0,1-4.71-.08l-1,2.84a1.67,1.67,0,0,1-2.09,1l-5.31-1.82a1.64,1.64,0,0,1-1-2.08l1-2.85a21.72,21.72,0,0,1-3.76-2.82l-2.46,1.72a1.59,1.59,0,0,1-.94.3h0a1.61,1.61,0,0,1-1.34-.7l-3.24-4.6a1.65,1.65,0,0,1,.4-2.28l2.46-1.73c-.3-.72-.58-1.46-.81-2.21a22.53,22.53,0,0,1-.57-2.29l-3-.05a1.6,1.6,0,0,1-1.14-.5,1.63,1.63,0,0,1-.47-1.16l.1-5.63a1.63,1.63,0,0,1,1.63-1.61l3,.05a21.52,21.52,0,0,1,1.54-4.45l-2.41-1.81a1.64,1.64,0,0,1-.33-2.29l3.38-4.5a1.69,1.69,0,0,1,2.3-.33l2.4,1.81a21.54,21.54,0,0,1,3.85-2.71l-.88-2.87A1.6,1.6,0,0,1,193,104a1.62,1.62,0,0,1,1-.79l5.37-1.66a1.67,1.67,0,0,1,2.05,1.09l.88,2.87a21.81,21.81,0,0,1,4.71.07l1-2.84a1.67,1.67,0,0,1,2.08-1l5.33,1.82a1.63,1.63,0,0,1,1,2.08l-1,2.85a22,22,0,0,1,3.76,2.82l2.46-1.72a1.67,1.67,0,0,1,2.28.39l3.24,4.61a1.64,1.64,0,0,1-.4,2.28l-2.46,1.73a21.63,21.63,0,0,1,.81,2.21,21.89,21.89,0,0,1,.57,2.29l3,0a1.6,1.6,0,0,1,1.15.5,1.65,1.65,0,0,1,.46,1.16l-.09,5.63a1.65,1.65,0,0,1-1.64,1.61l-3,0a21.88,21.88,0,0,1-1.53,4.45l2.4,1.81a1.64,1.64,0,0,1,.33,2.29l-3.38,4.5a1.67,1.67,0,0,1-2.29.32l-2.4-1.8a21.41,21.41,0,0,1-3.86,2.7l.88,2.88a1.64,1.64,0,0,1-1.08,2l-5.38,1.65A1.61,1.61,0,0,1,208.7,152.91Zm-1.95-4.79,1.05,3.42a1,1,0,0,0,1.17.62l5.38-1.65a.94.94,0,0,0,.62-1.17l-1.05-3.42.26-.14a20.67,20.67,0,0,0,4.18-2.93l.22-.19,2.86,2.14a1,1,0,0,0,1.31-.18l3.38-4.5a.94.94,0,0,0-.19-1.31l-2.86-2.16.12-.25a21.33,21.33,0,0,0,1.67-4.84l.06-.28,3.57.06h0a1,1,0,0,0,1-.93l.09-5.62a.94.94,0,0,0-.27-.67.89.89,0,0,0-.66-.28l-3.58-.06,0-.28a20.09,20.09,0,0,0-.6-2.49,19.72,19.72,0,0,0-.9-2.4l-.11-.27,2.92-2a.92.92,0,0,0,.39-.61,1,1,0,0,0-.15-.7l-3.24-4.6a1,1,0,0,0-1.3-.23l-2.93,2-.21-.2a21.39,21.39,0,0,0-4.09-3.06l-.25-.15,1.16-3.39a.93.93,0,0,0-.58-1.19l-5.32-1.82a1,1,0,0,0-1.19.58l-1.16,3.38-.29,0a20.81,20.81,0,0,0-5.11-.09l-.29,0-1.05-3.42a1,1,0,0,0-1.17-.62l-5.38,1.65a1,1,0,0,0-.55.46,1,1,0,0,0-.07.72l1,3.42-.25.13a21.19,21.19,0,0,0-4.19,2.94l-.21.19-2.86-2.15a1,1,0,0,0-1.32.19l-3.38,4.5a.94.94,0,0,0,.19,1.31l2.87,2.15-.13.26a21,21,0,0,0-1.66,4.84l-.06.28-3.58-.06h0a.93.93,0,0,0-1,.92l-.1,5.63a.94.94,0,0,0,.27.67.91.91,0,0,0,.66.28l3.58.06.05.28a21,21,0,0,0,.6,2.49,21.53,21.53,0,0,0,.9,2.4l.12.26-2.93,2.06a.93.93,0,0,0-.23,1.31l3.23,4.6a.94.94,0,0,0,.77.4h0a1,1,0,0,0,.54-.17l2.93-2.06.2.2a21.24,21.24,0,0,0,4.09,3.07l.25.14L192.81,149a.94.94,0,0,0,.58,1.2l5.32,1.82a1,1,0,0,0,1.19-.58l1.16-3.39.29,0a20.8,20.8,0,0,0,5.11.08Zm-2.5-3.24a17.82,17.82,0,0,1-16.91-12.49,17.71,17.71,0,0,1,16.9-22.89A17.82,17.82,0,0,1,221.15,122a17.68,17.68,0,0,1-16.9,22.88Zm0-34.68a17.17,17.17,0,0,0-5,.75A17,17,0,0,0,188,132.18a17.11,17.11,0,0,0,16.24,12,17,17,0,0,0,16.23-22A17.12,17.12,0,0,0,204.24,110.2Z" transform="translate(-13.29 -78.23)"/><path class="cls-11" d="M181.93,174.71a1.21,1.21,0,0,1-1.2-.78l-.81-2.64a13.51,13.51,0,0,1-6.24-1.43l-1.88,2a1.08,1.08,0,0,1-.8.33h0a1.55,1.55,0,0,1-1-.43l-3.39-3.15a1.51,1.51,0,0,1-.5-1,1,1,0,0,1,.27-.77l1.88-2a13,13,0,0,1-1.31-2.95,13.2,13.2,0,0,1-.57-3.17l-2.69-.62a1.31,1.31,0,0,1-.83-1.63l1-4.51a1.32,1.32,0,0,1,1.46-1.11l2.68.61a13.52,13.52,0,0,1,4.36-4.69l-.8-2.63a1.31,1.31,0,0,1,1-1.54l4.42-1.36a1.34,1.34,0,0,1,1.69.71l.81,2.64a13.38,13.38,0,0,1,6.24,1.43l1.88-2a1.35,1.35,0,0,1,1.83.1l3.39,3.15a1.65,1.65,0,0,1,.49.89,1.13,1.13,0,0,1-.26.93l-1.88,2a13.46,13.46,0,0,1,1.31,3,13.2,13.2,0,0,1,.57,3.17l2.69.62a1,1,0,0,1,.66.49,1.56,1.56,0,0,1,.17,1.15l-1,4.5a1.32,1.32,0,0,1-1.46,1.11l-2.69-.61a13.42,13.42,0,0,1-4.36,4.69l.81,2.63a1.31,1.31,0,0,1-1,1.54l-4.42,1.36A1.61,1.61,0,0,1,181.93,174.71Zm-1.5-4.13,1,3.14c.07.24.46.36.82.25l4.42-1.36c.36-.11.61-.42.53-.66l-1-3.15.23-.14a12.65,12.65,0,0,0,4.46-4.81l.13-.24,3.21.74a.64.64,0,0,0,.62-.58l1-4.51a.85.85,0,0,0-.08-.62.39.39,0,0,0-.23-.18l-3.21-.74v-.26a12.58,12.58,0,0,0-.55-3.27,13.2,13.2,0,0,0-1.37-3l-.15-.23,2.24-2.4a.42.42,0,0,0,.09-.35.85.85,0,0,0-.28-.48L189,144.56a.83.83,0,0,0-.55-.24.39.39,0,0,0-.29.11l-2.24,2.41-.24-.12a12.81,12.81,0,0,0-6.4-1.48H179l-1-3.14c-.07-.24-.45-.36-.82-.25l-4.42,1.36c-.36.11-.61.42-.53.66l1,3.15-.23.14A12.68,12.68,0,0,0,168.5,152l-.12.24-3.21-.74c-.27,0-.54.21-.62.58l-1,4.51c-.08.38.06.74.31.8l3.21.73v.27a12.75,12.75,0,0,0,1.92,6.28l.15.22-2.25,2.42a.42.42,0,0,0-.09.27.88.88,0,0,0,.29.56l3.38,3.15a.87.87,0,0,0,.56.24.41.41,0,0,0,.29-.11l2.24-2.41.24.13a12.9,12.9,0,0,0,6.4,1.47Zm-.72-3.38a7.56,7.56,0,0,1-.83,0,9,9,0,0,1-2.47-.57l-.34-.13-.07,0-.4-.19-.39-.2-.38-.23-.38-.24-.36-.26-.14-.11-.2-.16-.24-.21h0l-.1-.09c-.11-.1-.22-.2-.32-.31l-.31-.33c-.1-.11-.2-.22-.29-.34l-.26-.33a9.76,9.76,0,0,1-.95-1.6,10.27,10.27,0,0,1-.45-1.19,9.34,9.34,0,0,1-.41-3.06l0-.45v-.06c0-.13,0-.26,0-.39s0-.29.07-.44l.09-.44.05-.18.06-.24,0,0,.09-.29h0l0-.1c.06-.17.1-.29.15-.41s.11-.28.17-.41.13-.27.19-.4.14-.26.22-.39a3.72,3.72,0,0,1,.22-.38l.11-.16c0-.07.09-.14.14-.21a9.23,9.23,0,0,1,1.72-1.86,9.61,9.61,0,0,1,1.08-.76l.38-.22.08,0,.32-.16.26.26-.15-.31.3-.14.22-.08.22-.09L177,149l.45-.13.24,0,.21-.05.32-.06.11,0,.39,0,.48,0h.65c.23,0,.47,0,.7,0a9.37,9.37,0,0,1,4.43,1.6l.35.26.11.08.13.1h0l.12.15a2.24,2.24,0,0,1,.29.24,9.16,9.16,0,0,1,2.13,2.91,10.81,10.81,0,0,1,.46,1.19,9.74,9.74,0,0,1,.28,1.24,9.19,9.19,0,0,1,0,2.72c0,.15,0,.29-.07.44l0,.15-.06.29-.07.27,0,.11,0,.05c0,.14-.08.28-.13.42l-.05.14c0,.06,0,.12-.07.19l0,.16-.11.06-.09.21v0l-.08.1a1.91,1.91,0,0,1-.11.26l0,.07a3,3,0,0,1-.16.31v.26h-.15l-.12.2c-.08.13-.16.25-.25.37a9.8,9.8,0,0,1-1.72,1.86,7.63,7.63,0,0,1-.71.52l0,0-.33.21-.38.22-.11,0c-.1.05-.19.11-.29.15l-.12.06-.29.13-.13.05-.21-.3.12.33-.22.09-.44.15-.45.12-.24.05-.21.05-.33.06-.09,0-.4.05-.47,0h-.53Zm-3.49-1.44.07,0,.37.15a8.68,8.68,0,0,0,2.28.53,9.94,9.94,0,0,0,1.22,0h.1a1.68,1.68,0,0,1,.31,0l.37-.05.14,0,.31,0,.19-.05.23,0,.42-.11.4-.14.19-.08.21-.08.28-.12.26.27-.15-.32.27-.14.11-.05.31-.19a4,4,0,0,0,.37-.23l0,0c.21-.15.42-.3.61-.46a8.7,8.7,0,0,0,1.6-1.72l.22-.34c.07-.1.12-.19.18-.29l.13-.23.06-.12v0l.09-.1a1.27,1.27,0,0,1,.1-.25l0-.06c.05-.12.11-.24.15-.37l.05-.13a2.77,2.77,0,0,0,.1-.26l0-.08.09-.27v-.05c0-.13.07-.26.1-.39l0-.06c0-.12,0-.23.07-.35l0-.14a2.34,2.34,0,0,0,0-.26,8.19,8.19,0,0,0,0-2.52,8.72,8.72,0,0,0-.26-1.15,9.85,9.85,0,0,0-.43-1.09,8.32,8.32,0,0,0-2-2.69,3.65,3.65,0,0,0-.3-.27h0l-.32-.26-.08-.06-.26-.18a8.08,8.08,0,0,0-1.82-1,8.5,8.5,0,0,0-2.28-.53q-.36,0-.72,0h-.49l-.41,0-.41,0-.12,0-.29.05-.2,0-.22.05-.42.11-.41.14-.4.16-.26.12-.11,0-.32.16-.35.2-.08,0a9.3,9.3,0,0,0-1,.69,9,9,0,0,0-1.59,1.72c-.08.11-.15.23-.22.34l-.09.14-.12.21c-.07.12-.14.24-.2.37l-.18.36-.16.39a2.83,2.83,0,0,0-.11.31l0,.07-.12.39v.05a2,2,0,0,0-.09.35l0,.18a1.55,1.55,0,0,0-.05.23c0,.13,0,.27-.06.4s0,.28,0,.42v.05c0,.12,0,.25,0,.37a8.58,8.58,0,0,0,.11,1.68,8.05,8.05,0,0,0,.26,1.15,10.84,10.84,0,0,0,.43,1.1,8.26,8.26,0,0,0,.86,1.45l.25.33.27.31c.09.11.19.21.29.31l.29.28h0l.28.25.34.27.14.11.2.13.34.23.36.2.36.19Z" transform="translate(-13.29 -78.23)"/></g><g class="cls-3"><path class="cls-15" d="M275.57,124.58l-9.1-.06-2.17-.89-5.47,0V112.18l3.53,0,1.72-1.53,0-.16h.18l2.46-1.93,2.46-2,0,0,1-.86a3.63,3.63,0,0,0,.65-1.15c.13-.29.26-.59.4-.84a1.83,1.83,0,0,1,2.09-1.2,2,2,0,0,1,1.71,2.09,6,6,0,0,1-2.21,4.3l-.52.47c-.34.31-.75.69-1.27,1.11h.19l5.7,0a2,2,0,0,1,2,2,2,2,0,0,1-.53,1.36,1.94,1.94,0,0,1,1,.55,2,2,0,0,1,.6,1.44,2,2,0,0,1-1.57,2,2,2,0,0,1-.27,3l1.37.34-2.46.08a2,2,0,0,1-1.56,3.35Zm-8.9-.73,8.9,0v0a1.34,1.34,0,0,0,1.33-1.33,1.32,1.32,0,0,0-.66-1.16l-1-.6-.46-.12H275l-.09-.06,2.11-.06a1.33,1.33,0,0,0,.59-2.49l-.28-.16.06-.13a.41.41,0,0,1,0-.22.45.45,0,0,1,.27-.3l0,0H278a1.35,1.35,0,0,0,1.35-1.33,1.33,1.33,0,0,0-1.33-1.33h-.16a.46.46,0,0,1-.44-.36.45.45,0,0,1,.26-.51,1.34,1.34,0,0,0-.69-2.48l-5.64,0h0c-.86,0-1.09-.07-1.18-.32a.79.79,0,0,1,.1-.6l.07-.06c.66-.53,1.14-1,1.57-1.36.19-.17.36-.33.53-.47a5.37,5.37,0,0,0,2-3.76c0-.84-.39-1.32-1.1-1.42s-.94,0-1.39.85c-.13.23-.25.51-.37.78a3.83,3.83,0,0,1-.84,1.4c-.33.29-.8.67-1.33,1.09l-.27.22,0,0-1.91,1.56-2.55,2-.37.29-1.63,1.49-3.11,0v10l5,0Z" transform="translate(-13.29 -78.23)"/><path class="cls-15" d="M258.82,124.91H253.4v-14h5.42Zm-4.72-.7h4V111.58h-4Z" transform="translate(-13.29 -78.23)"/></g><g class="cls-3"><path class="cls-15" d="M194,203.27c-6.31,0-8.6-4-8.69-4.2a.34.34,0,0,1,0-.34.33.33,0,0,1,.29-.18,8.35,8.35,0,0,0,4.67-2,7.64,7.64,0,0,0,1.57-1.92,13.76,13.76,0,0,1-3.92-1.7,4.59,4.59,0,0,1-1.62-2.95.36.36,0,0,1,.13-.3.35.35,0,0,1,.32-.06l.6.17,0,0a6.21,6.21,0,0,1-1.68-4,.36.36,0,0,1,.14-.29.35.35,0,0,1,.31-.06l6.82,2A8.38,8.38,0,0,1,201,180a8.17,8.17,0,0,1,7.53,5.3l.62.12c1.42.19,4,.22,4,.22a.34.34,0,0,1,.34.28.36.36,0,0,1-.2.39l-2.79,1.21,3,.14a.35.35,0,0,1,.33.29.35.35,0,0,1-.22.39s-2.5,1-3.83,1.69c-.23.13-.47.27-.7.42a.41.41,0,0,1,0,.19c0,.11-1.89,11.45-13.69,12.54A14,14,0,0,1,194,203.27Zm-7.78-4.09c.77,1,3.07,3.39,7.78,3.39.44,0,.9,0,1.37-.06,10.24-.95,12.64-10,13-11.68a.35.35,0,0,1,0-.25l.06-.34a.35.35,0,0,1,.15-.24c.31-.2.63-.4.93-.56.69-.37,1.65-.8,2.44-1.13l-2.92-.14a.35.35,0,0,1-.32-.29.34.34,0,0,1,.2-.38l2.72-1.18c-.83,0-1.81-.09-2.53-.19-.28,0-.58-.1-.87-.17a.36.36,0,0,1-.25-.21,7.49,7.49,0,0,0-6.94-5,7.73,7.73,0,0,0-7.45,7.19.37.37,0,0,1-.15.25.36.36,0,0,1-.3.05l-6.71-2a5.32,5.32,0,0,0,1.42,3.06c.7.66,2.63,1.44,5.44,2.19a.34.34,0,0,1,.26.37.39.39,0,0,1-.15.28.38.38,0,0,1-.3.08l-6-1.74a3.85,3.85,0,0,0,1.25,1.94,15.27,15.27,0,0,0,4.09,1.7.35.35,0,0,1,.22.19.39.39,0,0,1,0,.3,8.35,8.35,0,0,1-1.92,2.49A8.91,8.91,0,0,1,186.21,199.18Z" transform="translate(-13.29 -78.23)"/></g><g class="cls-7"><path class="cls-13" d="M223.46,134.37a3.47,3.47,0,0,1-3.47-3.46V119.16a3.47,3.47,0,0,1,3.47-3.46H233c1.77,0,2.5,1.45,3.2,2.86l.22.44c1.2,2.34,4.74,8.91,4.78,9l0,.1a2.51,2.51,0,0,1-1.31,2.64,2,2,0,0,1-2.4-.36l-.05-.07-4.77-8.4a.35.35,0,0,1,.13-.48.37.37,0,0,1,.48.13L238,129.9a1.28,1.28,0,0,0,1.55.2,1.82,1.82,0,0,0,.95-1.84c-.33-.63-3.6-6.71-4.75-8.94l-.23-.45c-.66-1.33-1.23-2.47-2.57-2.47h-9.52a2.77,2.77,0,0,0-2.77,2.76v11.75a2.77,2.77,0,0,0,2.77,2.76.35.35,0,0,1,.35.35A.35.35,0,0,1,223.46,134.37Z" transform="translate(-13.29 -78.23)"/><path class="cls-13" d="M228.22,114.74A4.73,4.73,0,1,1,233,110,4.74,4.74,0,0,1,228.22,114.74Zm0-8.76a4,4,0,1,0,4,4A4,4,0,0,0,228.22,106Z" transform="translate(-13.29 -78.23)"/><path class="cls-13" d="M233,148.42h-9.52a.35.35,0,0,1-.35-.35V122.18a.35.35,0,0,1,.35-.35.35.35,0,0,1,.35.35v25.54h8.82V121.94a.35.35,0,0,1,.7,0v26.13A.35.35,0,0,1,233,148.42Z" transform="translate(-13.29 -78.23)"/><path class="cls-13" d="M228.22,148.3a.35.35,0,0,1-.35-.35V133.78a.35.35,0,0,1,.35-.35.35.35,0,0,1,.35.35V148A.35.35,0,0,1,228.22,148.3Z" transform="translate(-13.29 -78.23)"/><path class="cls-13" d="M254.57,134.37a.35.35,0,0,1-.35-.35.35.35,0,0,1,.35-.35,2.77,2.77,0,0,0,2.77-2.76V119.16a2.77,2.77,0,0,0-2.77-2.76h-9.52c-1.33,0-1.91,1.14-2.57,2.47l-.23.45c-.51,1-1.14,2.19-2,3.88a.36.36,0,0,1-.48.15.36.36,0,0,1-.14-.48c.9-1.68,1.53-2.87,2-3.87l.22-.44c.71-1.41,1.43-2.86,3.2-2.86h9.52a3.47,3.47,0,0,1,3.47,3.46v11.75A3.47,3.47,0,0,1,254.57,134.37Z" transform="translate(-13.29 -78.23)"/><path class="cls-13" d="M249.81,114.74a4.73,4.73,0,1,1,4.73-4.73A4.74,4.74,0,0,1,249.81,114.74Zm0-8.76a4,4,0,1,0,4,4A4,4,0,0,0,249.81,106Z" transform="translate(-13.29 -78.23)"/><path class="cls-13" d="M254.58,148.42h-9.53a.35.35,0,0,1-.35-.35V121.94a.35.35,0,0,1,.35-.35.34.34,0,0,1,.35.35v25.78h8.83V122.18a.35.35,0,0,1,.35-.35.35.35,0,0,1,.35.35v25.89A.35.35,0,0,1,254.58,148.42Z" transform="translate(-13.29 -78.23)"/><path class="cls-13" d="M249.81,148.3a.35.35,0,0,1-.35-.35V133.78a.35.35,0,0,1,.35-.35.35.35,0,0,1,.35.35V148A.35.35,0,0,1,249.81,148.3Z" transform="translate(-13.29 -78.23)"/><path class="cls-13" d="M241,129.25a.41.41,0,0,1-.18-.05.35.35,0,0,1-.13-.47l4.06-7.18a.35.35,0,0,1,.47-.14.36.36,0,0,1,.14.48l-4.06,7.18A.33.33,0,0,1,241,129.25Z" transform="translate(-13.29 -78.23)"/></g><path class="cls-15" d="M231.61,193.3H219.56V187a2.6,2.6,0,0,1,2.6-2.59H229a2.6,2.6,0,0,1,2.6,2.59Zm-11.35-.69H230.9V187a1.89,1.89,0,0,0-1.89-1.89h-6.85a1.9,1.9,0,0,0-1.9,1.89Z" transform="translate(-13.29 -78.23)"/><path class="cls-15" d="M225.58,183.91a3.51,3.51,0,1,1,3.51-3.5A3.5,3.5,0,0,1,225.58,183.91Zm0-6.31a2.81,2.81,0,1,0,2.81,2.81A2.81,2.81,0,0,0,225.58,177.6Z" transform="translate(-13.29 -78.23)"/><path class="cls-15" d="M229,193.3h-6.86a.35.35,0,0,1-.35-.34v-3.78a.35.35,0,0,1,.35-.35.34.34,0,0,1,.35.35v3.43h6.16V189a.35.35,0,0,1,.35-.35.35.35,0,0,1,.35.35v4A.34.34,0,0,1,229,193.3Z" transform="translate(-13.29 -78.23)"/><path class="cls-15" d="M232.21,196.84H218.44a1,1,0,0,1-1.1-.91v-2.42a1,1,0,0,1,1.1-.9h13.77a1,1,0,0,1,1.1.9v2.42A1,1,0,0,1,232.21,196.84Zm-13.77-3.54c-.24,0-.4.13-.4.21v2.42c0,.08.16.21.4.21h13.77c.24,0,.4-.13.4-.21v-2.42c0-.08-.16-.21-.4-.21Z" transform="translate(-13.29 -78.23)"/><path class="cls-15" d="M228.54,213.48h-6.46l-.82-17.33h8.11Zm-5.79-.69h5.13l.75-15.94H222Z" transform="translate(-13.29 -78.23)"/><g class="cls-3"><path class="cls-15" d="M220.83,243.49h-3.59V218.57h3.59Zm-2.89-.7h2.19V219.27h-2.19Z" transform="translate(-13.29 -78.23)"/><path class="cls-15" d="M226.63,243.49H223V224.62h3.6Zm-2.9-.7h2.2V225.32h-2.2Z" transform="translate(-13.29 -78.23)"/><path class="cls-15" d="M232.42,243.49h-3.6V224.62h3.6Zm-2.9-.7h2.2V225.32h-2.2Z" transform="translate(-13.29 -78.23)"/><path class="cls-15" d="M238.21,243.49h-3.59v-29.4h3.59Zm-2.89-.7h2.19v-28h-2.19Z" transform="translate(-13.29 -78.23)"/><path class="cls-15" d="M244,243.49h-3.59V218.57H244Zm-2.89-.7h2.19V219.27h-2.19Z" transform="translate(-13.29 -78.23)"/><path class="cls-15" d="M249.8,243.49h-3.6v-31h3.6Zm-2.9-.7h2.2V213.21h-2.2Z" transform="translate(-13.29 -78.23)"/><path class="cls-15" d="M255.59,243.49H252V201.71h3.6Zm-2.9-.7h2.2V202.41h-2.2Z" transform="translate(-13.29 -78.23)"/><rect class="cls-15" x="203.34" y="167.08" width="4.36" height="1.33"/><rect class="cls-15" x="209.36" y="167.08" width="4.36" height="1.33"/><rect class="cls-15" x="215.38" y="167.08" width="4.36" height="1.33"/><rect class="cls-15" x="220.34" y="167.08" width="4.36" height="1.33"/><rect class="cls-15" x="226.89" y="167.08" width="4.36" height="1.33"/><rect class="cls-15" x="232.9" y="167.08" width="4.36" height="1.33"/><rect class="cls-15" x="238.92" y="167.08" width="4.36" height="1.33"/></g><g class="cls-3"><path class="cls-16" d="M239.6,257h-4.13a.56.56,0,0,1-.59-.53V251.6a.55.55,0,0,1,.59-.52h4.13a.55.55,0,0,1,.59.52v4.83A.56.56,0,0,1,239.6,257Zm-4-.7h3.91v-4.48h-3.91Z" transform="translate(-13.29 -78.23)"/><path class="cls-16" d="M243.79,258.27h-3.36c-.55,0-.92-.23-.92-.58v-7.44c0-.35.37-.58.92-.58h3.36c.55,0,.92.23.92.58v7.44C244.71,258,244.34,258.27,243.79,258.27Zm-3.58-.72.22,0h3.36l.22,0V250.4a.65.65,0,0,0-.22,0h-3.36a.65.65,0,0,0-.22,0Z" transform="translate(-13.29 -78.23)"/><path class="cls-16" d="M260.28,265.32a.28.28,0,0,1-.15,0l-15.9-8A.34.34,0,0,1,244,257v-6.23a.34.34,0,0,1,.19-.31l15.9-8a.37.37,0,0,1,.34,0,.37.37,0,0,1,.16.3V265a.37.37,0,0,1-.16.3A.41.41,0,0,1,260.28,265.32Zm-15.54-8.55,15.19,7.63v-21L244.74,251Z" transform="translate(-13.29 -78.23)"/><path class="cls-16" d="M241.26,267.94h-4a.32.32,0,0,1-.27-.14.33.33,0,0,1-.06-.3l2.74-9.6a.34.34,0,0,1,.33-.25h4a.35.35,0,0,1,.28.14.35.35,0,0,1,.06.31l-2.74,9.59A.35.35,0,0,1,241.26,267.94Zm-3.52-.7H241l2.54-8.89h-3.26Z" transform="translate(-13.29 -78.23)"/></g><g class="cls-14"><path class="cls-11" d="M199.4,229.75h0c-.57,0-1.18-.46-1.18-1.75v-3.55H176.69a2.9,2.9,0,0,1-2.83-3v-1.9a2.9,2.9,0,0,1,2.83-3h21.53v-3.81c0-1.29.61-1.75,1.17-1.75a1.86,1.86,0,0,1,1.28.65l6.79,6.66a2.86,2.86,0,0,1,0,4.07l-6.79,6.66A1.9,1.9,0,0,1,199.4,229.75ZM176.69,217.4a2.12,2.12,0,0,0-2.05,2.18v1.9a2.13,2.13,0,0,0,2.05,2.19H199V228c0,.45.1,1,.4,1h0c.08,0,.33,0,.72-.42l6.79-6.67a2.06,2.06,0,0,0,0-2.95l-6.79-6.67c-.39-.38-.64-.42-.73-.42-.29,0-.39.52-.39,1v4.59Z" transform="translate(-13.29 -78.23)"/></g><g class="cls-7"><path class="cls-13" d="M207.66,284.26a2.42,2.42,0,0,1-1.39-.45L204,282.18a.35.35,0,1,1,.41-.57l2.26,1.63a1.69,1.69,0,0,0,1.23.3,1.56,1.56,0,0,0,1.05-.63,1.59,1.59,0,0,0,.27-1.18,1.64,1.64,0,0,0-.68-1.09l-5.16-3.71a.35.35,0,0,1-.07-.49.34.34,0,0,1,.48-.08h0l7.07,5.08a1.6,1.6,0,1,0,1.87-2.6l-7.05-5.07a.35.35,0,0,1-.08-.48.45.45,0,0,1,.24-.17.38.38,0,0,1,.28,0l8.46,6.09a1.6,1.6,0,1,0,1.87-2.6L208,270.58a.33.33,0,0,1-.14-.23.36.36,0,0,1,.06-.27c.12-.15.38-.25.53-.13l8.76,6.29a1.75,1.75,0,0,0,1.32.32,1.49,1.49,0,0,0,1-.61,1.57,1.57,0,0,0,.27-1.16,1.79,1.79,0,0,0-.73-1.15L203,262.2a.35.35,0,0,1-.08-.49.36.36,0,0,1,.49-.08l16.1,11.44a2.49,2.49,0,0,1,1,1.61,2.23,2.23,0,0,1-1.86,2.58,2.43,2.43,0,0,1-.93,0,2.27,2.27,0,0,1-.29,2.09,2.34,2.34,0,0,1-3.26.5l-.08-.06a2.29,2.29,0,0,1-3.64,2.25l-.53-.39a2.27,2.27,0,0,1-1.92,2.61A2,2,0,0,1,207.66,284.26Z" transform="translate(-13.29 -78.23)"/><path class="cls-13" d="M188.92,273.5a.36.36,0,0,1-.2-.06l-6-4.24a.41.41,0,0,1-.16-.34c.06-.9,7-11.62,7.72-11.95a.44.44,0,0,1,.32,0h0l4.16,1.88,8-2.92a2.31,2.31,0,0,1,2.61.79.35.35,0,0,1-.56.42,1.61,1.61,0,0,0-1.82-.55l-8.14,3a.39.39,0,0,1-.26,0l-4.12-1.86a109.31,109.31,0,0,0-7.18,11.14l5.78,4.1a.34.34,0,0,1,.09.48A.35.35,0,0,1,188.92,273.5Z" transform="translate(-13.29 -78.23)"/><path class="cls-13" d="M219.78,274.07,204.15,263l-.93-.73-1.8.6v2.06a2.46,2.46,0,0,1-4.92,0l-.06-3c0-1.57.91-2.61,2.8-3.18l.42-.16c.74-.29,2.25-.88,3.37-1.28l2.85-1.06a5.18,5.18,0,0,1,3.3.23l6.42,2.16,4.19-1.91h.13c.22,0,.55,0,4.12,5.53a59.28,59.28,0,0,1,3.74,6.32.4.4,0,0,1-.15.49Zm-16.43-12.58,1.21.95,1.14.77,14.1,10,7.25-4.6a109.81,109.81,0,0,0-7.17-11.13l-4.24,1.92-6.7-2.26a4.45,4.45,0,0,0-2.82-.23L203.27,258c-1.11.41-2.62,1-3.35,1.28l-.51.19c-2,.61-2.27,1.65-2.27,2.49l.06,3a1.76,1.76,0,0,0,3.52,0v-2.56Z" transform="translate(-13.29 -78.23)"/><path class="cls-13" d="M197.22,282.52a2.38,2.38,0,0,1-1.54-.55,2.64,2.64,0,0,1-.15-3.71l2.81-3.34a2.69,2.69,0,0,1,3.68-.48,2.38,2.38,0,0,1,.84,1.77,2.85,2.85,0,0,1-.68,1.94l-2.82,3.34A2.81,2.81,0,0,1,197.22,282.52Zm3.26-7.93a2.11,2.11,0,0,0-1.6.78l-2.82,3.34a1.93,1.93,0,0,0,.08,2.72,2,2,0,0,0,2.69-.39l2.81-3.34a2.12,2.12,0,0,0,.52-1.46,1.72,1.72,0,0,0-.59-1.26A1.64,1.64,0,0,0,200.48,274.59Z" transform="translate(-13.29 -78.23)"/><path class="cls-13" d="M193.83,280a2.65,2.65,0,0,1-1.68-.63,2.58,2.58,0,0,1-.92-1.65,2.25,2.25,0,0,1,.49-1.74l2.32-2.76a2.5,2.5,0,0,1,3.42-.15,2.43,2.43,0,0,1,.42,3.39l-2.32,2.75A2.25,2.25,0,0,1,193.83,280Zm1.94-6.86a1.53,1.53,0,0,0-1.19.53l-2.32,2.76a1.55,1.55,0,0,0-.34,1.2,2,2,0,0,0,.68,1.21,1.76,1.76,0,0,0,2.42-.08l2.33-2.76a1.73,1.73,0,0,0-.34-2.4A1.94,1.94,0,0,0,195.77,273.18Z" transform="translate(-13.29 -78.23)"/><path class="cls-13" d="M191.16,276.48a2.57,2.57,0,0,1-1.53-.5,2.64,2.64,0,0,1-1-1.57,2.24,2.24,0,0,1,.36-1.77L190,271.3a2.5,2.5,0,0,1,3.38-.4,2.58,2.58,0,0,1,1,1.57,2.23,2.23,0,0,1-.36,1.78L193,275.58A2.21,2.21,0,0,1,191.16,276.48Zm.72-5.38a1.54,1.54,0,0,0-1.29.63l-1.09,1.33a1.48,1.48,0,0,0-.23,1.21,1.88,1.88,0,0,0,.76,1.14,1.76,1.76,0,0,0,2.42-.26l1.09-1.33a1.5,1.5,0,0,0,.22-1.2,1.84,1.84,0,0,0-.76-1.15A2,2,0,0,0,191.88,271.1Z" transform="translate(-13.29 -78.23)"/><path class="cls-13" d="M201.65,284.09a2.49,2.49,0,0,1-1.51-.5,2.53,2.53,0,0,1-.49-3.52l1.23-1.43a2.56,2.56,0,0,1,3.5-.47,2.51,2.51,0,0,1,.49,3.51l-1.23,1.44A2.47,2.47,0,0,1,201.65,284.09Zm1.22-5.73a1.81,1.81,0,0,0-1.45.72l-1.22,1.43a1.81,1.81,0,0,0,.36,2.52,1.86,1.86,0,0,0,2.54-.35l1.22-1.44a1.81,1.81,0,0,0-1.45-2.88Z" transform="translate(-13.29 -78.23)"/></g></g><g id="new_green"><g class="cls-17"><path class="cls-13" d="M311.23,228.88h-6.46a1.82,1.82,0,0,1-1.81-1.82v-3.5a24.6,24.6,0,0,1-5.23-1.7l-2.05,2.84a1.88,1.88,0,0,1-2.54.39l-5.22-3.79a1.76,1.76,0,0,1-.72-1.18,1.8,1.8,0,0,1,.32-1.35l2.06-2.84a24.84,24.84,0,0,1-3.23-4.44L283,212.57a1.84,1.84,0,0,1-2.29-1.16l-2-6.14A1.82,1.82,0,0,1,279.9,203l3.33-1.08a25.16,25.16,0,0,1-.15-2.74,25.52,25.52,0,0,1,.15-2.76l-3.33-1.08a1.81,1.81,0,0,1-1.16-2.28l2-6.14a1.85,1.85,0,0,1,2.29-1.17l3.33,1.09a24.78,24.78,0,0,1,3.23-4.45l-2.06-2.83a1.84,1.84,0,0,1,.4-2.54l5.22-3.79a1.87,1.87,0,0,1,2.54.4l2.05,2.83a25.15,25.15,0,0,1,5.23-1.69v-3.51a1.81,1.81,0,0,1,1.81-1.81h6.46a1.81,1.81,0,0,1,1.81,1.81v3.51a24,24,0,0,1,5.23,1.69l2.06-2.83a1.86,1.86,0,0,1,2.53-.4l5.23,3.79a1.84,1.84,0,0,1,.4,2.54l-2.07,2.84a24.41,24.41,0,0,1,3.24,4.44l3.33-1.09a1.84,1.84,0,0,1,2.28,1.17l2,6.14a1.79,1.79,0,0,1-.11,1.38,1.82,1.82,0,0,1-1.06.9l-3.33,1.08a25.25,25.25,0,0,1,.15,2.76,24.88,24.88,0,0,1-.15,2.74l3.34,1.09a1.81,1.81,0,0,1,1.16,2.28l-2,6.14a1.84,1.84,0,0,1-2.28,1.16l-3.33-1.08a24.76,24.76,0,0,1-3.24,4.44l2.07,2.84a1.82,1.82,0,0,1-.4,2.53l-5.23,3.79a1.86,1.86,0,0,1-2.53-.4l-2.06-2.83a24.42,24.42,0,0,1-5.23,1.7v3.5A1.82,1.82,0,0,1,311.23,228.88ZM297.51,221l.25.12a24.3,24.3,0,0,0,5.6,1.82l.27,0v4.05a1.15,1.15,0,0,0,1.14,1.15h6.46a1.15,1.15,0,0,0,1.14-1.15V223l.27,0a24.3,24.3,0,0,0,5.6-1.82l.25-.12,2.39,3.28a1.16,1.16,0,0,0,1.59.25l5.22-3.79a1.13,1.13,0,0,0,.46-.75,1.1,1.1,0,0,0-.21-.84l-2.38-3.29.19-.2a24.54,24.54,0,0,0,3.46-4.76l.13-.24,3.86,1.26a1.17,1.17,0,0,0,1.44-.74l2-6.14a1.15,1.15,0,0,0-.73-1.44L332,202.36l0-.27a24.1,24.1,0,0,0,0-5.88l0-.27,3.86-1.26a1.11,1.11,0,0,0,.66-.56,1.16,1.16,0,0,0,.07-.88l-2-6.14a1.17,1.17,0,0,0-1.44-.73l-3.86,1.25-.13-.24a24.48,24.48,0,0,0-3.46-4.75l-.19-.2,2.38-3.29a1.15,1.15,0,0,0-.25-1.6l-5.22-3.79a1.16,1.16,0,0,0-1.59.25l-2.39,3.28-.25-.12a23.88,23.88,0,0,0-5.59-1.81l-.28,0v-4.06a1.14,1.14,0,0,0-1.14-1.14h-6.46a1.14,1.14,0,0,0-1.14,1.14v4.06l-.27,0a23.8,23.8,0,0,0-5.6,1.81l-.25.12L295.13,174a1.16,1.16,0,0,0-1.59-.25l-5.22,3.79a1.15,1.15,0,0,0-.26,1.6l2.39,3.29-.19.2a23.78,23.78,0,0,0-3.46,4.75l-.14.24-3.85-1.25a1.16,1.16,0,0,0-1.44.73l-2,6.14a1.12,1.12,0,0,0,.07.88,1.08,1.08,0,0,0,.66.56l3.85,1.26,0,.27a24.33,24.33,0,0,0-.18,2.95,24,24,0,0,0,.18,2.93l0,.27-3.85,1.26a1.14,1.14,0,0,0-.74,1.44l2,6.14a1.16,1.16,0,0,0,1.44.73l3.85-1.25.14.24a23.84,23.84,0,0,0,3.46,4.76l.19.2-2.39,3.29a1.09,1.09,0,0,0-.2.84,1.13,1.13,0,0,0,.46.75l5.22,3.79a1.16,1.16,0,0,0,1.59-.25ZM308,219.38a20.23,20.23,0,1,1,20.23-20.22A20.25,20.25,0,0,1,308,219.38Zm0-39.79a19.56,19.56,0,1,0,19.56,19.57A19.59,19.59,0,0,0,308,179.59Z" transform="translate(-13.29 -78.23)"/><path class="cls-13" d="M347.93,192.91h-5.31a1.44,1.44,0,0,1-1.55-1.28v-3.21a15.38,15.38,0,0,1-6.42-3.71l-2.79,1.61a1.46,1.46,0,0,1-1.88-.71L327.33,181a1.42,1.42,0,0,1,.33-2l2.79-1.6a15.19,15.19,0,0,1,0-7.42l-2.79-1.6a1.45,1.45,0,0,1-.33-2l2.65-4.59a1.44,1.44,0,0,1,1.88-.7l2.79,1.6a15.32,15.32,0,0,1,6.42-3.7v-3.22a1.44,1.44,0,0,1,1.55-1.28h5.31a1.44,1.44,0,0,1,1.55,1.28V159a15.32,15.32,0,0,1,6.42,3.7l2.78-1.6a1.46,1.46,0,0,1,1.89.69l2.65,4.6a1.75,1.75,0,0,1,.2,1.27,1.21,1.21,0,0,1-.54.72L360.1,170a15.19,15.19,0,0,1,0,7.42l2.78,1.6a1.44,1.44,0,0,1,.34,2l-2.65,4.59a1.57,1.57,0,0,1-1.33.85h0a1.19,1.19,0,0,1-.56-.14l-2.78-1.61a15.44,15.44,0,0,1-6.42,3.71v3.21A1.44,1.44,0,0,1,347.93,192.91Zm-13.17-9,.18.18a14.62,14.62,0,0,0,6.56,3.79l.24.06v3.73c0,.33.4.61.88.61h5.31c.47,0,.88-.28.88-.61V187.9l.24-.06a14.68,14.68,0,0,0,6.56-3.79l.18-.18,3.23,1.87c.28.16.74-.06,1-.46l2.65-4.6a.79.79,0,0,0-.09-1.07l-3.23-1.86.07-.24a14.58,14.58,0,0,0,0-7.57l-.07-.25,3.23-1.86a.55.55,0,0,0,.22-.32,1,1,0,0,0-.13-.75l-2.65-4.6c-.23-.4-.69-.61-1-.45l-3.23,1.86-.18-.18a14.55,14.55,0,0,0-6.55-3.78l-.25-.07v-3.73c0-.33-.41-.61-.88-.61h-5.31c-.48,0-.88.28-.88.61v3.73l-.25.07a14.5,14.5,0,0,0-6.55,3.78l-.18.18-3.23-1.86c-.29-.17-.74,0-1,.45l-2.65,4.6a.79.79,0,0,0,.09,1.07l3.22,1.86-.06.25a14.58,14.58,0,0,0,0,7.57l.06.24L328,179.61a.79.79,0,0,0-.09,1.07l2.65,4.6c.23.4.69.62,1,.46Zm10.51.44h-.73l-.27,0-.42,0-.05-.34-.09.33-.42-.07-.08,0-.39-.09-.12,0-.06,0c-.09,0-.25-.06-.41-.1l-.24-.08-.7-.26a10.61,10.61,0,0,1-4.3-3.22l-.21-.27h0l-.1-.14-.18-.26h0l-.41-.67a10.57,10.57,0,0,1-1.3-3.81,10.16,10.16,0,0,1-.1-1.44,10.5,10.5,0,0,1,.1-1.45,10.74,10.74,0,0,1,.87-3l.23-.45.29.15-.29-.15.24-.45.11-.17.14-.23.06-.08c.08-.13.16-.25.25-.37l.1-.14.21-.27.1-.12a2.31,2.31,0,0,1,.16-.19l.16-.19.2-.21.06-.14h.08l.2-.19,0-.15h.12l.24-.22.08-.11h.06l.28-.24a11.23,11.23,0,0,1,2.51-1.45,9.67,9.67,0,0,1,1-.33l.48-.14.49-.11.51-.08.11,0,.4,0,.26,0,.26,0a9.55,9.55,0,0,1,1.07,0l.27,0,.25,0,.38,0,.15,0a3.52,3.52,0,0,1,.41.07l.54.12.1,0a10.13,10.13,0,0,1,1.36.44,11.16,11.16,0,0,1,2.5,1.45l.38.31.13.11.25.23.37.36.34.38c.11.13.22.25.32.39s.21.26.31.4l.06.09.22.32c.06.1.12.18.17.27h0l.1.17c.09.15.17.3.25.45s.15.3.22.45l0,.07.18.4.18.49a10.63,10.63,0,0,1,.49,2,10.94,10.94,0,0,1,.1,1.45,10.58,10.58,0,0,1-.1,1.44,11,11,0,0,1-.49,2l-.18.49-.21.47c-.07.15-.14.31-.22.45s-.13.25-.2.37v.24h-.15l-.16.26c-.08.12-.15.23-.23.33h0l-.06.09c-.1.13-.2.27-.31.4s-.21.26-.32.38-.23.26-.35.38a4,4,0,0,1-.36.35,4,4,0,0,1-.37.34c-.13.11-.26.22-.4.32a10.14,10.14,0,0,1-2.49,1.45,11.87,11.87,0,0,1-1.35.45l-.1,0-.48.11h-.09l-.41.08h-.14l-.37,0-.25,0-.27,0Zm1.87-.85.09.33v-.34l.36-.08.09,0a10.47,10.47,0,0,0,1.34-.44,10,10,0,0,0,2.34-1.36l.36-.3a3.52,3.52,0,0,0,.35-.31l.35-.34.32-.35.3-.36.25-.33,0-.05a4.56,4.56,0,0,0,.27-.39l.28-.45c.07-.12.14-.24.2-.37l.22-.43c.06-.15.13-.29.19-.44l.17-.46a9.75,9.75,0,0,0,.45-1.9,9.34,9.34,0,0,0,.1-1.35,9.68,9.68,0,0,0-.1-1.36,10,10,0,0,0-.45-1.89c-.06-.15-.11-.31-.17-.45l-.19-.45,0-.06c-.06-.12-.12-.24-.19-.36s-.08-.17-.13-.26h0l-.1-.17c-.08-.13-.16-.27-.25-.4s-.17-.26-.26-.38l-.07-.1-.22-.29c-.1-.13-.2-.24-.31-.36s-.21-.24-.32-.35l-.33-.34-.35-.31-.12-.1-.25-.2a9.86,9.86,0,0,0-2.35-1.36,11.67,11.67,0,0,0-1.34-.44l-.46-.1-.46-.08h-.11a3.07,3.07,0,0,0-.38-.05l-.2,0-.29,0a8.34,8.34,0,0,0-1,0l-.25,0-.24,0-.33,0-.15,0-.39.07-.51.11-.48.13a8.31,8.31,0,0,0-.88.31,9.86,9.86,0,0,0-2.35,1.36l-.33.27-.08.11h0l-.19.18-.07.06-.3.29,0,0v0l-.08.08-.23.25-.05.06a3.5,3.5,0,0,0-.24.3l-.11.13-.18.25-.1.14-.18.25,0,.06c-.08.12-.15.23-.21.34l-.1.17-.13.25-.1.19-.12.25a9.62,9.62,0,0,0-.81,2.79,9,9,0,0,0-.1,1.35,9,9,0,0,0,.1,1.35,9.91,9.91,0,0,0,1.25,3.64l.26.41c.05.09.11.17.16.25h.17v.23l.22.29a10.54,10.54,0,0,0,1.68,1.66,10.06,10.06,0,0,0,2.35,1.36c.28.11.58.22.88.31l.24.07.21.06.1,0,.36.08.08,0,.39.06.16,0,.33,0,.22,0,.26,0a8.34,8.34,0,0,0,1,0l.26,0,.21,0,.37,0h.1Z" transform="translate(-13.29 -78.23)"/></g><g class="cls-3"><path class="cls-13" d="M366.92,286a3.23,3.23,0,0,1-3.22-3.23V272.09a3.23,3.23,0,0,1,3.22-3.23h8.67c1.65,0,2.32,1.35,3,2.65l.21.4c1.09,2.12,4.31,8.1,4.34,8.16l0,.12a2.36,2.36,0,0,1-1.23,2.48,1.88,1.88,0,0,1-2.26-.34l-.07-.08-4.34-7.65a.39.39,0,0,1,.15-.53.4.4,0,0,1,.53.15l4.31,7.59a1.11,1.11,0,0,0,1.32.17,1.58,1.58,0,0,0,.83-1.6c-.33-.62-3.28-6.1-4.32-8.12l-.2-.41c-.69-1.37-1.17-2.21-2.28-2.21h-8.67a2.45,2.45,0,0,0-2.44,2.45v10.68a2.45,2.45,0,0,0,2.44,2.45.38.38,0,0,1,.39.39A.39.39,0,0,1,366.92,286Z" transform="translate(-13.29 -78.23)"/><path class="cls-13" d="M371.26,268.13a4.38,4.38,0,1,1,4.37-4.37A4.38,4.38,0,0,1,371.26,268.13Zm0-8a3.6,3.6,0,1,0,3.59,3.6A3.6,3.6,0,0,0,371.26,260.16Z" transform="translate(-13.29 -78.23)"/><path class="cls-13" d="M375.59,298.78h-8.67a.4.4,0,0,1-.39-.39V274.83a.39.39,0,0,1,.39-.38.38.38,0,0,1,.39.38V298h7.89V274.61a.39.39,0,0,1,.39-.39.4.4,0,0,1,.39.39v23.78A.4.4,0,0,1,375.59,298.78Z" transform="translate(-13.29 -78.23)"/><path class="cls-13" d="M371.26,298.67a.39.39,0,0,1-.39-.39V285.39a.39.39,0,1,1,.77,0v12.89A.39.39,0,0,1,371.26,298.67Z" transform="translate(-13.29 -78.23)"/><path class="cls-13" d="M395.23,286a.39.39,0,0,1-.38-.39.38.38,0,0,1,.38-.39,2.45,2.45,0,0,0,2.45-2.45V272.09a2.45,2.45,0,0,0-2.45-2.45h-8.66c-1.11,0-1.59.84-2.28,2.21l-.21.41c-.46.91-1,2-1.86,3.53a.38.38,0,0,1-.68-.36c.82-1.53,1.39-2.62,1.85-3.52l.21-.41c.65-1.29,1.32-2.64,3-2.64h8.66a3.23,3.23,0,0,1,3.23,3.23v10.68A3.23,3.23,0,0,1,395.23,286Z" transform="translate(-13.29 -78.23)"/><path class="cls-13" d="M390.9,268.13a4.38,4.38,0,1,1,4.38-4.37A4.37,4.37,0,0,1,390.9,268.13Zm0-8a3.6,3.6,0,1,0,3.6,3.6A3.6,3.6,0,0,0,390.9,260.16Z" transform="translate(-13.29 -78.23)"/><path class="cls-13" d="M395.24,298.78h-8.67a.4.4,0,0,1-.39-.39V274.61a.4.4,0,0,1,.39-.39.39.39,0,0,1,.39.39V298h7.89V274.83a.39.39,0,0,1,.77,0v23.56A.39.39,0,0,1,395.24,298.78Z" transform="translate(-13.29 -78.23)"/><path class="cls-13" d="M390.9,298.67a.4.4,0,0,1-.39-.39V285.39a.39.39,0,0,1,.39-.39.38.38,0,0,1,.39.39v12.89A.39.39,0,0,1,390.9,298.67Z" transform="translate(-13.29 -78.23)"/><path class="cls-13" d="M382.88,281.33a.34.34,0,0,1-.19-.05.39.39,0,0,1-.15-.53l3.69-6.53a.39.39,0,0,1,.68.38l-3.69,6.54A.39.39,0,0,1,382.88,281.33Z" transform="translate(-13.29 -78.23)"/></g><g class="cls-3"><path class="cls-15" d="M339.49,284.91H295.61a2.84,2.84,0,0,1-2.83-2.84v-2.6h.6v2.6a2.23,2.23,0,0,0,2.23,2.24h43.88a2.24,2.24,0,0,0,2.24-2.24v-2.6h.6v2.6A2.84,2.84,0,0,1,339.49,284.91Z" transform="translate(-13.29 -78.23)"/><path class="cls-15" d="M297,278.92h-.59V251.55a2.84,2.84,0,0,1,2.83-2.84h36.72a2.84,2.84,0,0,1,2.83,2.84v27.22h-.59V251.55a2.24,2.24,0,0,0-2.24-2.25H299.19a2.25,2.25,0,0,0-2.24,2.25Z" transform="translate(-13.29 -78.23)"/><rect class="cls-15" x="279.85" y="200.81" width="48.83" height="0.59"/><rect class="cls-15" x="293.39" y="186.28" width="0.59" height="9.24"/><rect class="cls-15" x="300.43" y="183.64" width="0.59" height="11.88"/><rect class="cls-15" x="307.47" y="180.41" width="0.59" height="15.1"/><rect class="cls-15" x="314.51" y="177.19" width="0.59" height="18.33"/><rect class="cls-15" x="289.53" y="195.8" width="29.52" height="0.59"/></g><g class="cls-18"><path class="cls-11" d="M391.29,226.73a20,20,0,1,1,20-20A20,20,0,0,1,391.29,226.73Zm0-39.09a19.07,19.07,0,1,0,19.06,19.07A19.09,19.09,0,0,0,391.29,187.64Z" transform="translate(-13.29 -78.23)"/><path class="cls-11" d="M391.47,226.73a.44.44,0,0,1-.22,0,.47.47,0,0,1-.26-.43V187.18a.49.49,0,0,1,.48-.48h0a.48.48,0,0,1,.36.16,25.39,25.39,0,0,1,9.6,19.93c0,12.34-9.57,19.77-9.67,19.85A.52.52,0,0,1,391.47,226.73Zm.48-38.55v37c2.23-2,8.52-8.61,8.52-18.42A24.49,24.49,0,0,0,392,188.18Z" transform="translate(-13.29 -78.23)"/><path class="cls-11" d="M391.52,226.73a.48.48,0,0,1-.29-.09c-.1-.08-9.68-7.51-9.68-19.85a25.38,25.38,0,0,1,9.61-19.93.46.46,0,0,1,.35-.16.48.48,0,0,1,.48.48v39.07a.48.48,0,0,1-.27.43A.41.41,0,0,1,391.52,226.73ZM391,188.18a24.55,24.55,0,0,0-8.52,18.61c0,9.82,6.3,16.4,8.53,18.42Z" transform="translate(-13.29 -78.23)"/><path class="cls-11" d="M391.42,197.28A24.74,24.74,0,0,1,377.59,193a.48.48,0,0,1,.53-.81,23.75,23.75,0,0,0,13.3,4.14,24.13,24.13,0,0,0,13.35-3.91.48.48,0,1,1,.52.8A25.07,25.07,0,0,1,391.42,197.28Z" transform="translate(-13.29 -78.23)"/><path class="cls-11" d="M410.88,207.22H371.74a.48.48,0,0,1-.48-.48.47.47,0,0,1,.48-.48h39.14a.48.48,0,0,1,.48.48A.49.49,0,0,1,410.88,207.22Z" transform="translate(-13.29 -78.23)"/></g><g class="cls-3"><path class="cls-19" d="M495.08,141.76a.37.37,0,0,1-.26-.1.38.38,0,0,1,0-.55,8.14,8.14,0,1,0-12.2,0,.39.39,0,1,1-.59.51,8.91,8.91,0,1,1,13.37,0A.39.39,0,0,1,495.08,141.76Z" transform="translate(-13.29 -78.23)"/><path class="cls-19" d="M497.3,146.4a.39.39,0,0,1-.3-.13.4.4,0,0,1,.05-.55,13,13,0,1,0-16.88-.17.39.39,0,0,1,0,.55.38.38,0,0,1-.54,0,13.81,13.81,0,1,1,17.89.17A.34.34,0,0,1,497.3,146.4Z" transform="translate(-13.29 -78.23)"/><path class="cls-19" d="M492.28,143.52H485a.39.39,0,1,1,0-.77h7.29a.39.39,0,1,1,0,.77Z" transform="translate(-13.29 -78.23)"/><path class="cls-19" d="M482.23,149.53a.39.39,0,0,1,0-.77H495a.39.39,0,1,1,0,.77Z" transform="translate(-13.29 -78.23)"/><path class="cls-19" d="M497.75,155.48H479.59a.38.38,0,0,1-.39-.39.39.39,0,0,1,.39-.39h18.16a.39.39,0,0,1,.39.39A.38.38,0,0,1,497.75,155.48Z" transform="translate(-13.29 -78.23)"/><path class="cls-19" d="M488.56,139.15a3.89,3.89,0,1,1,3.89-3.89A3.89,3.89,0,0,1,488.56,139.15Zm0-7a3.11,3.11,0,1,0,3.11,3.11A3.11,3.11,0,0,0,488.56,132.15Z" transform="translate(-13.29 -78.23)"/><path class="cls-19" d="M500.27,160.76a.39.39,0,0,1-.36-.23l-10.09-21.89a.4.4,0,0,1,.19-.52.41.41,0,0,1,.52.19l10.09,21.9a.39.39,0,0,1-.19.51A.32.32,0,0,1,500.27,160.76Z" transform="translate(-13.29 -78.23)"/><path class="cls-19" d="M477.27,160.52a.32.32,0,0,1-.16,0,.39.39,0,0,1-.19-.51l9.73-21.63a.38.38,0,1,1,.7.32l-9.72,21.63A.41.41,0,0,1,477.27,160.52Z" transform="translate(-13.29 -78.23)"/></g><g class="cls-3"><path class="cls-4" d="M316.82,166.36h-.09a.46.46,0,0,1-.36-.54L320.52,145a.46.46,0,0,1,.91.19L317.28,166A.47.47,0,0,1,316.82,166.36Z" transform="translate(-13.29 -78.23)"/><path class="cls-4" d="M339.45,166.36A.45.45,0,0,1,339,166l-4.16-20.85a.47.47,0,0,1,.92-.19l4.15,20.86a.46.46,0,0,1-.37.54Z" transform="translate(-13.29 -78.23)"/><path class="cls-4" d="M341.73,145.2h-27.4a1.68,1.68,0,0,1-1.64-1.71v-8.73a.46.46,0,0,1,.46-.47.47.47,0,0,1,.47.47v8.73a.75.75,0,0,0,.71.78h27.4a.75.75,0,0,0,.72-.78V122.75a.75.75,0,0,0-.72-.78h-27.4a.75.75,0,0,0-.71.78v7.87a.46.46,0,0,1-.47.46.45.45,0,0,1-.46-.46v-7.87a1.68,1.68,0,0,1,1.64-1.71h27.4a1.68,1.68,0,0,1,1.65,1.71v20.74A1.68,1.68,0,0,1,341.73,145.2Z" transform="translate(-13.29 -78.23)"/><path class="cls-4" d="M342.51,122h-29c-1.54,0-1.71-.41-1.71-.71V117c0-.31.17-.72,1.71-.72h29c1.53,0,1.71.41,1.71.72v4.23C344.22,121.56,344,122,342.51,122Zm-29.74-1a4.36,4.36,0,0,0,.78.06h29a4.36,4.36,0,0,0,.78-.06v-3.67a3.43,3.43,0,0,0-.78-.07h-29a3.43,3.43,0,0,0-.78.07Z" transform="translate(-13.29 -78.23)"/><path class="cls-4" d="M302,129.62a5.29,5.29,0,1,1,5.17-5.29A5.24,5.24,0,0,1,302,129.62Zm0-9.64a4.36,4.36,0,1,0,4.24,4.35A4.31,4.31,0,0,0,302,120Z" transform="translate(-13.29 -78.23)"/><path class="cls-4" d="M307.12,166.31H296.89a.47.47,0,0,1-.47-.47v-15a3.87,3.87,0,0,1-3.34-3.87V134a3.85,3.85,0,0,1,3.81-3.89h20.22a2.24,2.24,0,0,1,2.25,2.32,2.47,2.47,0,0,1-2.23,2.66l-9.54.12v30.62A.47.47,0,0,1,307.12,166.31Zm-9.77-.93h9.31V134.76a.46.46,0,0,1,.46-.46l10-.13a1.53,1.53,0,0,0,1.33-1.71,1.31,1.31,0,0,0-1.32-1.42H296.89a2.93,2.93,0,0,0-2.88,3v12.93a2.94,2.94,0,0,0,2.41,2.93V137.34a.47.47,0,1,1,.93,0v28Z" transform="translate(-13.29 -78.23)"/><path class="cls-4" d="M302,166.17a.47.47,0,0,1-.46-.46v-15.6a.47.47,0,1,1,.93,0v15.6A.47.47,0,0,1,302,166.17Z" transform="translate(-13.29 -78.23)"/></g><g class="cls-3"><path class="cls-4" d="M364,277.49a3.11,3.11,0,0,1-1.8-.58l-3-2.13a.43.43,0,0,1-.1-.59.42.42,0,0,1,.59-.09l2.95,2.12a2.25,2.25,0,0,0,1.66.4,2.1,2.1,0,0,0,1.37-.84,2.16,2.16,0,0,0-.51-3l-6.76-4.87a.43.43,0,0,1-.1-.59.42.42,0,0,1,.59-.09l6.73,4.84,0,0,2.45,1.76a2.13,2.13,0,1,0,2.48-3.46l-9.19-6.61a.42.42,0,0,1-.1-.58.5.5,0,0,1,.29-.2.45.45,0,0,1,.34.05L373,271a2.13,2.13,0,1,0,2.49-3.46l-11-7.92a.41.41,0,0,1-.09-.58.55.55,0,0,1,.3-.22.49.49,0,0,1,.34,0l11.43,8.21a2.31,2.31,0,0,0,1.75.43,2,2,0,0,0,1.34-.82,2,2,0,0,0,.35-1.53,2.36,2.36,0,0,0-1-1.52l-21-14.93a.42.42,0,0,1-.1-.59.42.42,0,0,1,.58-.1l21,14.93a3.19,3.19,0,0,1,1.3,2.07,2.87,2.87,0,0,1-2.39,3.32,3.14,3.14,0,0,1-1.26-.05,2.92,2.92,0,0,1-.36,2.76,3,3,0,0,1-4.2.64l-.18-.13a2.93,2.93,0,0,1-.48,2.35,3,3,0,0,1-4.2.64l-.76-.55a2.93,2.93,0,0,1-2.41,3.44A2.77,2.77,0,0,1,364,277.49Z" transform="translate(-13.29 -78.23)"/><path class="cls-4" d="M339.5,263.45a.44.44,0,0,1-.24-.07l-7.79-5.53a.51.51,0,0,1-.19-.42c.07-1.17,9.09-15.13,10.05-15.55a.53.53,0,0,1,.39,0h0l5.44,2.45,10.47-3.81a3,3,0,0,1,3.36,1,.42.42,0,1,1-.67.51,2.15,2.15,0,0,0-2.41-.73l-10.62,3.87a.4.4,0,0,1-.32,0l-5.39-2.43a137.61,137.61,0,0,0-9.4,14.58l7.57,5.37a.42.42,0,0,1,.1.58A.41.41,0,0,1,339.5,263.45Z" transform="translate(-13.29 -78.23)"/><path class="cls-4" d="M379.77,264.18l-.23-.16-20.15-14.25-1.23-1-2.38.8v2.71a3.18,3.18,0,0,1-6.35,0l-.09-3.91c0-2,1.19-3.38,3.64-4.12l.43-.17c.91-.35,3-1.16,4.51-1.71l3.73-1.39a6.68,6.68,0,0,1,4.27.31l8.4,2.82,5.47-2.49H380c.26,0,.69,0,5.35,7.21,1.69,2.61,4.61,7.29,4.87,8.23a.47.47,0,0,1-.19.6Zm-21.44-16.32,1.56,1.23,1.48,1,18.42,13.08,9.51-6c-.81-1.93-8.09-13.23-9.4-14.57l-5.54,2.5-8.73-2.94a5.87,5.87,0,0,0-3.7-.3l-3.72,1.38c-1.51.55-3.58,1.35-4.49,1.71l-.51.19c-2.68.81-3,2.19-3,3.3l.09,3.91a2.34,2.34,0,0,0,4.67,0V249Z" transform="translate(-13.29 -78.23)"/><path class="cls-4" d="M350.33,275.22a3.06,3.06,0,0,1-2-.71,3.41,3.41,0,0,1-.2-4.79l3.67-4.36a3.64,3.64,0,0,1,2.76-1.33,3,3,0,0,1,2,.72,3.06,3.06,0,0,1,1.07,2.11,3.63,3.63,0,0,1-.87,2.67l-3.67,4.36A3.65,3.65,0,0,1,350.33,275.22Zm4.25-10.34a2.8,2.8,0,0,0-2.12,1l-3.67,4.36a2.56,2.56,0,0,0,.1,3.6,2.61,2.61,0,0,0,3.57-.52l3.67-4.35a2.89,2.89,0,0,0,.68-2.06,2.28,2.28,0,0,0-.78-1.54A2.19,2.19,0,0,0,354.58,264.88Z" transform="translate(-13.29 -78.23)"/><path class="cls-4" d="M345.91,272a3.37,3.37,0,0,1-2.17-.81,3.42,3.42,0,0,1-1.21-2.27,2.87,2.87,0,0,1,.66-2.1l3-3.6a3.22,3.22,0,0,1,4.41-.2,3.13,3.13,0,0,1,.55,4.37l-3,3.6A2.91,2.91,0,0,1,345.91,272Zm2.53-9a2,2,0,0,0-1.58.71l-3,3.6a2.07,2.07,0,0,0-.46,1.49,2.57,2.57,0,0,0,.91,1.7,2.34,2.34,0,0,0,3.21-.1l3-3.6a2.28,2.28,0,0,0-.45-3.19A2.53,2.53,0,0,0,348.44,263Z" transform="translate(-13.29 -78.23)"/><path class="cls-4" d="M342.42,267.34a3.41,3.41,0,0,1-2-.64,3.37,3.37,0,0,1-1.34-2,2.84,2.84,0,0,1,.46-2.29l1.42-1.73a2.87,2.87,0,0,1,2.38-1.17,3.38,3.38,0,0,1,2,.64,3.13,3.13,0,0,1,.89,4.32l-1.42,1.74A2.9,2.9,0,0,1,342.42,267.34Zm.94-7a2.07,2.07,0,0,0-1.72.84l-1.42,1.74a2,2,0,0,0-.3,1.6,2.52,2.52,0,0,0,1,1.51,2.35,2.35,0,0,0,3.2-.34l1.42-1.74a2.27,2.27,0,0,0-.71-3.12A2.52,2.52,0,0,0,343.36,260.32Z" transform="translate(-13.29 -78.23)"/><path class="cls-4" d="M356.11,277.27a3.2,3.2,0,0,1-1.95-.65,3.25,3.25,0,0,1-.62-4.54l1.59-1.87A3.22,3.22,0,0,1,357.7,269a3.19,3.19,0,0,1,1.95.66,3.24,3.24,0,0,1,.63,4.53l-1.6,1.87A3.18,3.18,0,0,1,356.11,277.27Zm1.59-7.48a2.39,2.39,0,0,0-1.91.95l-1.6,1.87a2.4,2.4,0,0,0,.48,3.34,2.46,2.46,0,0,0,3.36-.47l1.59-1.86a2.4,2.4,0,0,0-.48-3.34A2.34,2.34,0,0,0,357.7,269.79Z" transform="translate(-13.29 -78.23)"/></g><g class="cls-3"><path class="cls-4" d="M373.46,154.84c-1.4,0-1.9-7.73-1.9-12.92s.5-12.91,1.9-12.91,1.89,7.72,1.89,12.91S374.85,154.84,373.46,154.84Zm0-25.09c-.49.82-1.24,5.16-1.24,12.17s.75,11.35,1.24,12.17c.43-.76,1.25-4.73,1.25-12.17S373.88,130.51,373.45,129.75Z" transform="translate(-13.29 -78.23)"/><path class="cls-4" d="M373.25,124.47a3.89,3.89,0,1,1,3.89-3.89A3.89,3.89,0,0,1,373.25,124.47Zm0-7.12a3.23,3.23,0,1,0,3.23,3.23A3.23,3.23,0,0,0,373.25,117.35Z" transform="translate(-13.29 -78.23)"/><path class="cls-4" d="M387.59,154.79h0c-.8,0-1.5-1.18-2.58-3.1a18.4,18.4,0,0,0-1.5-2.42,12.62,12.62,0,0,0-6-3.87.32.32,0,0,1-.21-.43,66.29,66.29,0,0,0,3.58-15.51.34.34,0,0,1,.22-.28.31.31,0,0,1,.33.08c2.47,2.46,8.18,9.21,7.84,18.83C389.09,153.65,388.46,154.79,387.59,154.79Zm-9.53-9.91a13.25,13.25,0,0,1,6,4,18.34,18.34,0,0,1,1.56,2.51c.62,1.1,1.55,2.77,2,2.77h0c.14,0,.84-.3,1.05-6.08.31-8.79-4.57-15.12-7.16-17.85A66.79,66.79,0,0,1,378.06,144.88Z" transform="translate(-13.29 -78.23)"/><path class="cls-4" d="M377,146.4H375a.33.33,0,0,1-.24-.1.34.34,0,0,1-.09-.24c0-.52,0-1,.05-1.56a93.43,93.43,0,0,0-.26-10.11c-.27-3.29-.73-4.66-1-4.78-.29.16-.44,1.12-.51,1.52l0,.25a32.87,32.87,0,0,0-.46,4.12A97.71,97.71,0,0,0,372.3,146a.25.25,0,0,1,0,.12.29.29,0,0,1-.33.32h-2.56c-.6,0-.75-.52-.85-.86a1.83,1.83,0,0,0-.08-.25q-.37-1-.72-2A66.44,66.44,0,0,1,365.32,133a46.53,46.53,0,0,1-.8-11.47,31.89,31.89,0,0,1,2.42-9.6,37.33,37.33,0,0,1,6-10,.33.33,0,0,1,.5,0,32.39,32.39,0,0,1,3,4.21,33.79,33.79,0,0,1,5.49,17.53,58.84,58.84,0,0,1-1.2,11.08,57.72,57.72,0,0,1-2.53,9.59v0h0c-.19.53-.39,1.07-.61,1.6A.57.57,0,0,1,377,146.4Zm-1.73-.66H377c.24-.56.44-1.07.61-1.58h0a58.87,58.87,0,0,0,2.51-9.52,59.28,59.28,0,0,0,1.19-11,37,37,0,0,0-8.1-21,37.33,37.33,0,0,0-5.64,9.52,31.52,31.52,0,0,0-2.37,9.41,46.81,46.81,0,0,0,.79,11.31,65,65,0,0,0,2.45,10.17c.22.67.45,1.33.7,2,0,.1.07.2.1.3.1.37.14.4.22.4h2.21a99.85,99.85,0,0,1,.14-10.29,36.71,36.71,0,0,1,.47-4.2l0-.23c.11-.68.27-1.71.92-2a.58.58,0,0,1,.26-.06c.34,0,1.15,0,1.59,5.32a93.49,93.49,0,0,1,.27,10.24C375.32,144.92,375.3,145.33,375.29,145.74Z" transform="translate(-13.29 -78.23)"/><path class="cls-4" d="M359.21,154.79h0c-.87,0-1.49-1.14-1.7-6.7-.31-9,4.52-15.38,7.43-18.41a.31.31,0,0,1,.34-.09.34.34,0,0,1,.22.27,65.05,65.05,0,0,0,3.58,15.24.34.34,0,0,1,0,.26.35.35,0,0,1-.19.17,12.51,12.51,0,0,0-5.58,3.74,19.48,19.48,0,0,0-1.51,2.42C360.72,153.61,360,154.79,359.21,154.79Zm5.72-24.15a24.72,24.72,0,0,0-6.76,17.42c.21,5.78.91,6.08,1,6.08.46,0,1.4-1.67,2-2.77a19,19,0,0,1,1.57-2.51,13.1,13.1,0,0,1,5.56-3.84A66.79,66.79,0,0,1,364.93,130.64Z" transform="translate(-13.29 -78.23)"/></g><g class="cls-3"><path class="cls-13" d="M368.89,215.12a11.59,11.59,0,1,1,7.63-2.87A11.6,11.6,0,0,1,368.89,215.12Zm0-22.41a10.82,10.82,0,1,0,7.13,19,10.82,10.82,0,0,0,1-15.26A10.84,10.84,0,0,0,368.88,192.71Z" transform="translate(-13.29 -78.23)"/><path class="cls-13" d="M343.77,229.19,340.14,225,355,212l3.63,4.15Zm-2.55-4.08,2.62,3,13.7-12-2.63-3Z" transform="translate(-13.29 -78.23)"/><path class="cls-13" d="M358.19,215.78l-2.85-3.26,3.38-3,2.85,3.26Zm-1.77-3.19,1.84,2.11,2.23-1.95-1.85-2.11Z" transform="translate(-13.29 -78.23)"/></g><g class="cls-7"><path class="cls-16" d="M328,254.63c-2.64,0-4.8-1.79-4.8-4a3.51,3.51,0,0,1,.5-1.77c.05-.09.11-.17.17-.26a3.11,3.11,0,0,0,.6-1.65,1,1,0,0,0-.24-.74,2.54,2.54,0,0,0-1.82-.5h-11.6a.38.38,0,0,1-.37-.38v-3.62c0-2.4,1.2-2.76,1.9-2.76h.12a3.75,3.75,0,0,1,2,.72l.24.15a2.69,2.69,0,0,0,1.39.4c1.79,0,3.24-1.83,3.24-4.07s-1.45-4.06-3.24-4.06a2.66,2.66,0,0,0-1.39.39l-.24.15a3.67,3.67,0,0,1-2,.72h-.12c-.7,0-1.88-.36-1.9-2.75v-8.83a.35.35,0,0,1,.11-.26.36.36,0,0,1,.26-.11h12.71a3.13,3.13,0,0,1,2.31.73,1.66,1.66,0,0,1,.44,1.29,3.79,3.79,0,0,1-.71,2l-.16.23a2.72,2.72,0,0,0-.39,1.4c0,1.78,1.82,3.24,4.06,3.24s4.05-1.46,4.05-3.24a2.66,2.66,0,0,0-.39-1.39l-.15-.25a3.71,3.71,0,0,1-.72-2,1.7,1.7,0,0,1,.44-1.29,3.13,3.13,0,0,1,2.31-.73h6.32a.37.37,0,0,1,.37.37l0,8.71v.05a2.8,2.8,0,0,0,.43,1.75.91.91,0,0,0,.73.32,3.07,3.07,0,0,0,1.73-.61l.26-.16,0,0a3.38,3.38,0,0,1,1.74-.48c2.2,0,4,2.16,4,4.81s-1.78,4.82-4,4.82a3.45,3.45,0,0,1-1.75-.49h0l-.26-.17a3,3,0,0,0-1.65-.6h0c-.85,0-1.24.7-1.24,2.07v3.58a.38.38,0,0,1-.37.38h-7.44a2.45,2.45,0,0,0-1.74.5.92.92,0,0,0-.23.73,3,3,0,0,0,.59,1.64c.06.1.12.18.17.27a3.41,3.41,0,0,1,.5,1.77C332.81,252.84,330.66,254.63,328,254.63ZM311.19,245l11.23,0a3.19,3.19,0,0,1,2.36.73,1.7,1.7,0,0,1,.44,1.29,3.84,3.84,0,0,1-.72,2l-.15.24a2.68,2.68,0,0,0-.39,1.39c0,1.79,1.81,3.24,4.05,3.24s4.06-1.45,4.06-3.24a2.63,2.63,0,0,0-.4-1.39,1.58,1.58,0,0,0-.15-.24,3.76,3.76,0,0,1-.71-2,1.68,1.68,0,0,1,.43-1.28,3.08,3.08,0,0,1,2.27-.74h7.08v-3.27c0-2.39,1.2-2.75,1.9-2.75h.12a3.72,3.72,0,0,1,2,.72l.22.14h0a2.69,2.69,0,0,0,1.39.4c1.79,0,3.24-1.83,3.24-4.08s-1.45-4.07-3.24-4.07a2.6,2.6,0,0,0-1.39.4h0l-.21.13a3.72,3.72,0,0,1-2,.73h-.12a1.62,1.62,0,0,1-1.3-.59,3.37,3.37,0,0,1-.6-2.16v-.06l0-8.39h-5.9a2.54,2.54,0,0,0-1.82.5.92.92,0,0,0-.24.74,3.07,3.07,0,0,0,.6,1.64l.17.27a3.41,3.41,0,0,1,.5,1.77c0,2.19-2.16,4-4.8,4s-4.8-1.79-4.8-4a3.47,3.47,0,0,1,.5-1.78l.16-.26a2.91,2.91,0,0,0,.6-1.64.92.92,0,0,0-.24-.74,2.51,2.51,0,0,0-1.82-.5H311.19v8.41c0,1.37.39,2.06,1.16,2.06a3.07,3.07,0,0,0,1.73-.6l.26-.16a3.32,3.32,0,0,1,1.77-.5c2.19,0,4,2.15,4,4.8s-1.79,4.81-4,4.81a3.41,3.41,0,0,1-1.77-.5l-.26-.17a3.14,3.14,0,0,0-1.65-.6h0c-.85,0-1.24.7-1.24,2.06V245Z" transform="translate(-13.29 -78.23)"/></g><path class="cls-15" d="M380.91,180.57l-6.19-3.52-6.41,3.1,1.44-7L364.81,168l7.08-.79,3.36-6.28,2.94,6.48,7,1.26-5.27,4.8Zm-6.16-4.36,5.22,3-.81-6,4.44-4-5.92-1.07-2.48-5.47-2.84,5.3-6,.67,4.16,4.33-1.21,5.89Z" transform="translate(-13.29 -78.23)"/></g><g id="new_purple"><g class="cls-20"><path class="cls-19" d="M491.35,308.89a1.78,1.78,0,0,1-1.73-1.41l-.65-3.07a23.55,23.55,0,0,1-4.89-.53l-1.28,2.86a1.82,1.82,0,0,1-2.35.89L475,305.2a1.76,1.76,0,0,1-.89-2.35l1.28-2.86a23.8,23.8,0,0,1-3.64-3.3l-2.73,1.56a1.83,1.83,0,0,1-2.42-.65l-3-5.16a1.81,1.81,0,0,1-.17-1.35,1.72,1.72,0,0,1,.83-1.07l2.73-1.56a22.81,22.81,0,0,1-.64-2.39,21.56,21.56,0,0,1-.37-2.43l-3.13-.34a1.77,1.77,0,0,1-1.57-1.95l.64-5.91a1.77,1.77,0,0,1,1.95-1.57l3.12.34a22.93,22.93,0,0,1,2-4.49l-2.33-2.11a1.78,1.78,0,0,1-.13-2.5l4-4.41a1.82,1.82,0,0,1,2.5-.13l2.33,2.11a22.3,22.3,0,0,1,4.27-2.45l-.65-3.07a1.78,1.78,0,0,1,1.37-2.1l5.82-1.22a1.81,1.81,0,0,1,2.1,1.37l.65,3.08a22.72,22.72,0,0,1,4.88.52l1.29-2.86a1.8,1.8,0,0,1,2.34-.89l5.43,2.43a1.77,1.77,0,0,1,.89,2.34l-1.29,2.88A23.25,23.25,0,0,1,506.2,266l2.72-1.56a1.81,1.81,0,0,1,2.42.66l3,5.15a1.76,1.76,0,0,1-.65,2.42l-2.73,1.57a24.52,24.52,0,0,1,.63,2.38,23.68,23.68,0,0,1,.38,2.43l3.12.34a1.74,1.74,0,0,1,1.19.65,1.71,1.71,0,0,1,.38,1.3l-.63,5.91a1.78,1.78,0,0,1-1.77,1.58H514l-3.13-.33a23.11,23.11,0,0,1-2,4.48l2.34,2.11a1.78,1.78,0,0,1,.12,2.51l-4,4.4a1.82,1.82,0,0,1-2.5.13L502.53,300a23.08,23.08,0,0,1-4.27,2.45l.65,3.07a1.78,1.78,0,0,1-1.38,2.1l-5.82,1.22A2.2,2.2,0,0,1,491.35,308.89Zm-1.71-5.32.78,3.74a1,1,0,0,0,1.12.73l5.82-1.22a.94.94,0,0,0,.74-1.12l-.78-3.74.31-.13a22.28,22.28,0,0,0,4.68-2.68l.27-.21,2.83,2.57a1,1,0,0,0,1.33-.07l4-4.41a.91.91,0,0,0,.24-.68.88.88,0,0,0-.31-.65l-2.83-2.57.17-.29a22.43,22.43,0,0,0,2.22-4.92l.1-.33,3.79.41a1,1,0,0,0,1-.84l.63-5.91a.94.94,0,0,0-.2-.7.92.92,0,0,0-.63-.34l-3.8-.41,0-.34a22.88,22.88,0,0,0-.39-2.67,23.43,23.43,0,0,0-.72-2.61l-.11-.32,3.32-1.9a1,1,0,0,0,.44-.58.92.92,0,0,0-.09-.71l-3-5.16a1,1,0,0,0-1.3-.35l-3.31,1.9-.22-.26a22.17,22.17,0,0,0-4-3.62l-.28-.19,1.57-3.49a1,1,0,0,0-.48-1.25l-5.43-2.44a1,1,0,0,0-1.25.48l-1.56,3.48-.33-.08a22.31,22.31,0,0,0-5-.58h-.67l-.79-3.74a1,1,0,0,0-1.12-.73l-5.82,1.22a1,1,0,0,0-.73,1.12l.78,3.74-.31.13a21.92,21.92,0,0,0-4.68,2.68l-.28.21-2.82-2.57a1,1,0,0,0-1.34.07l-4,4.41a1,1,0,0,0-.25.68,1,1,0,0,0,.32.66l2.83,2.56-.18.3a22.11,22.11,0,0,0-2.21,4.91l-.1.33-3.8-.41a.94.94,0,0,0-1,.84l-.64,5.91a.94.94,0,0,0,.2.69.92.92,0,0,0,.64.35l3.8.41,0,.34a21.46,21.46,0,0,0,.39,2.67,21.91,21.91,0,0,0,.71,2.61l.11.32-3.31,1.9a.92.92,0,0,0-.44.58.91.91,0,0,0,.09.72l3,5.16a1,1,0,0,0,1.29.35l3.31-1.9.22.25a22.64,22.64,0,0,0,4,3.62l.27.2-1.56,3.48a1,1,0,0,0,0,.73,1,1,0,0,0,.5.53l5.42,2.43a1,1,0,0,0,1.26-.48l1.55-3.48.34.08a22.39,22.39,0,0,0,5,.58Zm-.66-3.49a18.81,18.81,0,0,1-18.33-14.89A18.74,18.74,0,0,1,489,262.61a18.73,18.73,0,0,1,3.84,37.07A18.51,18.51,0,0,1,489,300.08Zm0-36.65A17.92,17.92,0,0,0,471.46,285,18,18,0,0,0,489,299.26a18.24,18.24,0,0,0,3.68-.38A17.92,17.92,0,0,0,489,263.43Z" transform="translate(-13.29 -78.23)"/><path class="cls-19" d="M518.66,269.32a1.36,1.36,0,0,1-1.39-1l-.59-2.82a14.27,14.27,0,0,1-6.39-2.1l-2.15,1.92a1.44,1.44,0,0,1-2-.28l-3.27-3.64a1.69,1.69,0,0,1-.44-1.18,1.16,1.16,0,0,1,.38-.82L505,257.5a14.06,14.06,0,0,1-1.38-6.59l-2.74-.9a1.21,1.21,0,0,1-.75-.75,1.66,1.66,0,0,1,0-1.1l1.52-4.65a1.44,1.44,0,0,1,1.7-1l2.74.9a14.21,14.21,0,0,1,5-4.49l-.59-2.82a1.19,1.19,0,0,1,.28-1,1.66,1.66,0,0,1,.95-.55l4.79-1a1.44,1.44,0,0,1,1.76.94l.59,2.82a14.27,14.27,0,0,1,6.39,2.1l2.15-1.92a1.45,1.45,0,0,1,2,.28l3.26,3.64a1.41,1.41,0,0,1,.06,2l-2.15,1.92a14.47,14.47,0,0,1,1.09,3.21,14.18,14.18,0,0,1,.29,3.38l2.74.9a1.21,1.21,0,0,1,.75.75,1.72,1.72,0,0,1,0,1.1l-1.53,4.65a1.51,1.51,0,0,1-1.35,1.1h0a1.34,1.34,0,0,1-.35-.05l-2.74-.9a14.13,14.13,0,0,1-5,4.49l.59,2.82a1.42,1.42,0,0,1-1.23,1.57l-4.78,1A1.69,1.69,0,0,1,518.66,269.32Zm-8.45-6.94.26.18a13.34,13.34,0,0,0,6.57,2.15l.32,0,.72,3.44c0,.23.42.38.79.3l4.78-1c.41-.08.64-.38.6-.59l-.72-3.44.28-.14a13.33,13.33,0,0,0,5.15-4.62l.17-.26,3.34,1.09a.7.7,0,0,0,.66-.52l1.52-4.65a.83.83,0,0,0,0-.56.4.4,0,0,0-.22-.25l-3.34-1.1v-.31a13.1,13.1,0,0,0-.26-3.48,13.67,13.67,0,0,0-1.15-3.29l-.15-.28,2.62-2.34c.18-.17.12-.56-.13-.84l-3.26-3.64c-.24-.27-.63-.38-.81-.22l-2.62,2.34-.26-.17a13.46,13.46,0,0,0-6.57-2.16h-.32l-.72-3.44c-.05-.23-.42-.38-.78-.3l-4.79,1a.87.87,0,0,0-.49.27.4.4,0,0,0-.1.32l.72,3.44-.29.14a13.44,13.44,0,0,0-5.15,4.61l-.17.27-3.34-1.09a.65.65,0,0,0-.66.52l-1.52,4.65a.9.9,0,0,0,0,.56.4.4,0,0,0,.22.25l3.34,1.1,0,.31a13.53,13.53,0,0,0,.27,3.48,13.83,13.83,0,0,0,1.15,3.29l.14.28L503.39,260a.37.37,0,0,0-.11.24.87.87,0,0,0,.24.59l3.26,3.64c.24.27.64.37.81.22Zm7.54-1.14h-.31c-.21,0-.35,0-.5,0q-.47,0-.93-.12a10.06,10.06,0,0,1-4.52-2.12l-.18-.15h0l-.18-.16a3.83,3.83,0,0,1-.29-.28l-.06-.05-.32-.34a9.85,9.85,0,0,1-2-3.28,11.35,11.35,0,0,1-.37-1.3,8.72,8.72,0,0,1-.18-1.33,9.64,9.64,0,0,1,.22-2.89l.12-.46.12-.39v-.18l.07,0,.06-.14h0l.06-.14.14-.35v-.08l.07-.07L509,247h0l.06-.12.06-.1,0-.05v0l.13-.16c0-.08.1-.19.17-.3l.06-.25h.1l.06-.09h0l.07-.1.2-.27.08-.12.29-.35a9.82,9.82,0,0,1,2-1.8l.58-.37v-.17h.31l.32-.16.43-.2.42-.17.29.34-.14-.39.33-.11.2-.06.26-.08.49-.11.48-.09.27,0,.7-.08h1a9.64,9.64,0,0,1,1.34.15,10,10,0,0,1,2.55.84l.11.06.31.16.11.06.3.18.39.25.09.06.29.21.37.3.36.31.22.2h0l.12.12.14.15h0l.32.39h.07l.14.26s.14.17.24.3l.27.39c.09.13.18.27.26.41a9.38,9.38,0,0,1,.83,1.75,9.87,9.87,0,0,1,.37,1.3,10.26,10.26,0,0,1,.18,1.34,9.13,9.13,0,0,1,0,1.81v.12c0,.16,0,.32-.08.48v.06c0,.08,0,.15,0,.23h0l0,.18c0,.14-.07.29-.11.44l-.1.31a.14.14,0,0,1,0,.06l0,.09c0,.15-.1.3-.16.44l-.18.44a4.09,4.09,0,0,1-.2.42c-.07.15-.14.28-.22.42l-.07.12-.17.29-.26.39-.28.38-.3.37a10,10,0,0,1-3.21,2.49l-.44.2a3.75,3.75,0,0,1-.43.17l-.26-.34.15.38-.81.25c-.16,0-.32.08-.49.12l-.49.09-1,.1-.39,0ZM511.62,258l.07.06c.1.1.21.19.32.28a9,9,0,0,0,1.82,1.17,8.76,8.76,0,0,0,2.33.78c.28.05.57.08.85.11l.42,0v.41l0-.41h.84l.16.4,0-.41.76-.09.44-.08.44-.1.74-.23.25.35-.15-.38.36-.15.43-.19a10.38,10.38,0,0,0,1.13-.65,9,9,0,0,0,1.83-1.65,3.92,3.92,0,0,0,.27-.33c.09-.12.18-.23.26-.35l.24-.36.22-.38,0-.06a3.07,3.07,0,0,0,.17-.31c0-.1.1-.2.14-.3l0-.1.16-.39.07-.18c0-.07.05-.15.08-.23l.07-.21c0-.06,0-.1,0-.15v-.36h.09l0-.12c0-.14.06-.28.08-.43v-.05c0-.1,0-.2.05-.29v-.09a9.15,9.15,0,0,0-.12-3,10.16,10.16,0,0,0-.33-1.18,9.52,9.52,0,0,0-.76-1.61l-.24-.37L525,246c-.07-.11-.16-.21-.24-.32l-.31-.35c-.06-.06-.11-.13-.18-.19h-.08l-.08-.17-.27-.25-.32-.29c-.11-.09-.22-.18-.34-.26l-.35-.25-.09-.07-.27-.17a3.59,3.59,0,0,0-.38-.21l-.11-.07-.18-.09-.1-.05a9,9,0,0,0-2.33-.77,10.44,10.44,0,0,0-1.28-.14h-.43l-.43,0-.15-.4,0,.41-.47,0-.3,0-.45.09-.44.1-.16.05-.26.07-.25.09-.13,0-.38.15-.44.2-.31.16-.09,0a6.73,6.73,0,0,0-.73.44,9.29,9.29,0,0,0-1.84,1.65l-.18.22v0l-.1.11-.16.22v0l-.1.12c-.05.07-.12.17-.18.27l-.06.1-.1.15a1.09,1.09,0,0,1-.08.15l0,0-.17.31,0,.29h-.11a1.11,1.11,0,0,0-.07.16l0,.07c-.05.11-.1.22-.14.33h0l-.14.41,0,.14-.09.28c0,.13-.07.28-.11.42a9.34,9.34,0,0,0-.2,2.64,8.75,8.75,0,0,0,.17,1.22,10.78,10.78,0,0,0,.33,1.19,8.9,8.9,0,0,0,1.81,3,3.45,3.45,0,0,0,.26.28l0,0Z" transform="translate(-13.29 -78.23)"/></g><g class="cls-21"><path class="cls-11" d="M439,131.86a.54.54,0,0,1-.21-.05l-30-13.43a.51.51,0,0,1-.25-.67.5.5,0,0,1,.66-.25l30,13.44a.49.49,0,0,1,.25.66A.49.49,0,0,1,439,131.86Z" transform="translate(-13.29 -78.23)"/><path class="cls-11" d="M424.75,124l-12.52-5.61-.08-.11c-.15-.2-1.46-2-.93-3.47a2.22,2.22,0,0,1,1.76-1.34,2,2,0,0,1,.43,0c3.29,0,9.48,8.11,10.17,9Zm-11.87-6.42,8.65,3.88c-2.32-2.83-6.18-7-8.12-7l-.21,0c-.57.13-.92.37-1,.72C411.88,115.88,412.54,117.08,412.88,117.57Z" transform="translate(-13.29 -78.23)"/><path class="cls-11" d="M417.7,125.94c-8.15,0-9.06-1.61-9.35-2.14a2.19,2.19,0,0,1-.18-2.19c.71-1.34,2.94-1.56,3.19-1.58h.13L424,125.64l-2,.15S420.09,125.94,417.7,125.94Zm-6.38-4.9c-.59.07-1.91.36-2.27,1a1.25,1.25,0,0,0,.17,1.23c.28.49,1.65,1.63,8.48,1.63.82,0,1.59,0,2.24,0Z" transform="translate(-13.29 -78.23)"/><path class="cls-11" d="M440,138a6.19,6.19,0,0,1-6.19-6.19.51.51,0,0,1,.5-.5.5.5,0,0,1,.5.5,5.2,5.2,0,1,0,1.65-3.78.5.5,0,0,1-.71,0,.49.49,0,0,1,0-.7A6.18,6.18,0,1,1,440,138Z" transform="translate(-13.29 -78.23)"/><path class="cls-11" d="M440,144a12.23,12.23,0,0,1-12.21-12.22,12.59,12.59,0,0,1,.24-2.43.5.5,0,0,1,1,.2,11.23,11.23,0,1,0,2.08-4.57.5.5,0,0,1-.7.09.51.51,0,0,1-.1-.7A12.21,12.21,0,1,1,440,144Z" transform="translate(-13.29 -78.23)"/><path class="cls-11" d="M440,150.05a18.23,18.23,0,0,1-17.53-23.27.49.49,0,0,1,.61-.34.5.5,0,0,1,.35.62A17.24,17.24,0,1,0,440,114.58a17.12,17.12,0,0,0-14.7,8.23.5.5,0,0,1-.85-.53A18.24,18.24,0,1,1,440,150.05Z" transform="translate(-13.29 -78.23)"/></g><g class="cls-22"><path class="cls-23" d="M437.41,204.94a1.08,1.08,0,0,1-1.08-1.08V195.1a1.09,1.09,0,1,1,2.17,0v6.08l2.67-3a1,1,0,0,1,1.44,0,1.13,1.13,0,0,1,.4.79.86.86,0,0,1-.22.65l-4.45,5.05a.87.87,0,0,1-.67.29h-.26Zm0-9.93a.09.09,0,0,0-.08.09v8.76a.08.08,0,0,0,.06.08l.07,0h.18l4.38-5h0s0,0-.07-.06a.21.21,0,0,0-.1,0l-4.35,5V195.1A.09.09,0,0,0,437.41,195Z" transform="translate(-13.29 -78.23)"/><path class="cls-23" d="M437.19,214.54a11.68,11.68,0,1,1,11.67-11.68A11.69,11.69,0,0,1,437.19,214.54Zm0-22.35a10.68,10.68,0,1,0,10.67,10.67A10.69,10.69,0,0,0,437.19,192.19Zm0,20.52a9.85,9.85,0,1,1,9.85-9.85A9.86,9.86,0,0,1,437.19,212.71Zm0-18.7a8.85,8.85,0,1,0,8.85,8.85A8.86,8.86,0,0,0,437.19,194Z" transform="translate(-13.29 -78.23)"/></g><g class="cls-7"><path class="cls-24" d="M429.17,202.77H404.7a1.69,1.69,0,0,1-1.67-1.7v-46.4a1.69,1.69,0,0,1,1.67-1.7h24.47a1.69,1.69,0,0,1,1.67,1.7v5.51l-.28.13a13.58,13.58,0,0,0-1.73,1l-.79.55V158.5a.5.5,0,0,0-.51-.48H406.34a.5.5,0,0,0-.51.48v37.81a.49.49,0,0,0,.51.47h21.19a.49.49,0,0,0,.51-.47V184.13l.31-.13a14.88,14.88,0,0,0,1.54-.72l.23-.13.72.37v17.55A1.69,1.69,0,0,1,429.17,202.77ZM404.7,154a.68.68,0,0,0-.67.7v46.4a.68.68,0,0,0,.67.7h24.47a.68.68,0,0,0,.67-.7V184.43l-.8.36v11.52a1.49,1.49,0,0,1-1.51,1.47H406.34a1.49,1.49,0,0,1-1.51-1.47V158.5a1.5,1.5,0,0,1,1.51-1.48h21.19A1.5,1.5,0,0,1,429,158.5V160c.27-.16.54-.32.8-.45v-4.89a.68.68,0,0,0-.67-.7Z" transform="translate(-13.29 -78.23)"/><path class="cls-24" d="M419.94,185.42a13.26,13.26,0,0,1-1.93-.11l-1.95-.28,1.85-.68a23.59,23.59,0,0,0,7.2-4.51c.27-.26.52-.53.76-.81a12.57,12.57,0,0,1,2.36-16.93l0,0a12.59,12.59,0,1,1,1.84,20.8l-.09,0h0L430,183h0l-.1,0a17.81,17.81,0,0,1-3.51,1.44A21.77,21.77,0,0,1,419.94,185.42Zm8.88-22.52a11.6,11.6,0,0,0-1.92,15.86l.23.3-.24.31a13.34,13.34,0,0,1-1.08,1.19,22.94,22.94,0,0,1-5.59,3.86,21.05,21.05,0,0,0,5.83-.92,18,18,0,0,0,3.2-1.3l.85-.5.49.28a11.58,11.58,0,1,0,5.6-21.72,11.56,11.56,0,0,0-7.32,2.61Z" transform="translate(-13.29 -78.23)"/></g><g class="cls-7"><path class="cls-24" d="M471.26,209.05a4.14,4.14,0,0,1-4.14-4.13V191.07a4.15,4.15,0,0,1,4.14-4.14h11.23c2.11,0,3,1.73,3.82,3.41l.26.52c1.41,2.75,5.59,10.51,5.63,10.58l.05.14a3,3,0,0,1-1.58,3.16,2.38,2.38,0,0,1-2.88-.43l-.07-.1-5.63-9.9a.46.46,0,1,1,.8-.46l5.59,9.85a1.47,1.47,0,0,0,1.77.23,2.1,2.1,0,0,0,1.11-2.12c-.42-.77-4.26-7.91-5.61-10.53l-.26-.53c-.78-1.56-1.45-2.9-3-2.9H471.26a3.22,3.22,0,0,0-3.22,3.22v13.85a3.22,3.22,0,0,0,3.22,3.22.46.46,0,1,1,0,.91Z" transform="translate(-13.29 -78.23)"/><path class="cls-24" d="M476.87,185.89a5.63,5.63,0,1,1,5.63-5.62A5.62,5.62,0,0,1,476.87,185.89Zm0-10.33a4.71,4.71,0,1,0,4.71,4.71A4.71,4.71,0,0,0,476.87,175.56Z" transform="translate(-13.29 -78.23)"/><path class="cls-24" d="M482.49,225.62H471.25a.45.45,0,0,1-.45-.45V194.63a.46.46,0,1,1,.91,0v30.08H482V194.34a.46.46,0,0,1,.92,0v30.83A.46.46,0,0,1,482.49,225.62Z" transform="translate(-13.29 -78.23)"/><path class="cls-24" d="M476.87,225.48a.46.46,0,0,1-.46-.46V208.31a.46.46,0,0,1,.92,0V225A.46.46,0,0,1,476.87,225.48Z" transform="translate(-13.29 -78.23)"/><path class="cls-24" d="M508,209.05a.46.46,0,1,1,0-.91,3.23,3.23,0,0,0,3.22-3.22V191.07a3.22,3.22,0,0,0-3.22-3.22H496.73c-1.55,0-2.22,1.34-3,2.9l-.27.53c-.6,1.17-1.34,2.58-2.41,4.57a.45.45,0,0,1-.62.19.46.46,0,0,1-.18-.62c1.05-2,1.8-3.39,2.4-4.56l.26-.52c.84-1.68,1.7-3.41,3.82-3.41H508a4.14,4.14,0,0,1,4.13,4.14v13.85A4.13,4.13,0,0,1,508,209.05Z" transform="translate(-13.29 -78.23)"/><path class="cls-24" d="M502.35,185.89a5.63,5.63,0,1,1,5.62-5.62A5.63,5.63,0,0,1,502.35,185.89Zm0-10.33a4.71,4.71,0,1,0,4.7,4.71A4.71,4.71,0,0,0,502.35,175.56Z" transform="translate(-13.29 -78.23)"/><path class="cls-24" d="M508,225.62H496.73a.46.46,0,0,1-.46-.45V194.34a.46.46,0,0,1,.92,0v30.37h10.32V194.63a.46.46,0,1,1,.91,0v30.54A.45.45,0,0,1,508,225.62Z" transform="translate(-13.29 -78.23)"/><path class="cls-24" d="M502.35,225.48a.45.45,0,0,1-.46-.46V208.31a.46.46,0,0,1,.91,0V225A.45.45,0,0,1,502.35,225.48Z" transform="translate(-13.29 -78.23)"/><path class="cls-24" d="M492,203a.46.46,0,0,1-.23-.06.45.45,0,0,1-.17-.62l4.78-8.47a.45.45,0,0,1,.62-.18.47.47,0,0,1,.18.63l-4.78,8.47A.46.46,0,0,1,492,203Z" transform="translate(-13.29 -78.23)"/></g><g class="cls-25"><path class="cls-26" d="M450.15,262.62H405.57a2.68,2.68,0,0,1-2.67-2.68v-31.1a2.68,2.68,0,0,1,2.67-2.68h44.58a2.68,2.68,0,0,1,2.67,2.68v31.1A2.68,2.68,0,0,1,450.15,262.62Zm-44.58-35.46a1.68,1.68,0,0,0-1.67,1.68v31.1a1.68,1.68,0,0,0,1.67,1.68h44.58a1.68,1.68,0,0,0,1.67-1.68v-31.1a1.68,1.68,0,0,0-1.67-1.68Z" transform="translate(-13.29 -78.23)"/><path class="cls-26" d="M445.88,259.23H409.83a2.27,2.27,0,0,1-2.26-2.26V231.81a2.27,2.27,0,0,1,2.26-2.26h36.05a2.26,2.26,0,0,1,2.26,2.26V257A2.26,2.26,0,0,1,445.88,259.23Zm-36.05-28.68a1.27,1.27,0,0,0-1.26,1.26V257a1.27,1.27,0,0,0,1.26,1.26h36.05a1.26,1.26,0,0,0,1.26-1.26V231.81a1.26,1.26,0,0,0-1.26-1.26Z" transform="translate(-13.29 -78.23)"/><path class="cls-26" d="M435.49,270.31H420.23v-8.69h15.26Zm-14.26-1h13.26v-6.69H421.23Z" transform="translate(-13.29 -78.23)"/><rect class="cls-26" x="397.94" y="191.09" width="33.26" height="1"/></g><path class="cls-27" d="M535.34,183.87h-13.8a1.49,1.49,0,0,1-1.48-1.48v-1.2a16.91,16.91,0,0,0-1.51-5.88,21.67,21.67,0,0,0-3.43-4.58l-.54-.54h0a18.39,18.39,0,1,1,27.8-.19h.06l-.7.73a21.44,21.44,0,0,0-3.44,4.59,16.72,16.72,0,0,0-1.52,6.22v.85A1.48,1.48,0,0,1,535.34,183.87Zm-19-13.31a21.25,21.25,0,0,1,3.1,4.3,17.76,17.76,0,0,1,1.62,6.3v1.23a.49.49,0,0,0,.48.48h13.8a.49.49,0,0,0,.48-.48v-.85a17.63,17.63,0,0,1,1.63-6.68,20.89,20.89,0,0,1,2.94-4.11h0L541,170a17.39,17.39,0,1,0-25.2,0l.51.53Z" transform="translate(-13.29 -78.23)"/><path class="cls-27" d="M535.26,192.91H522.05a.92.92,0,0,1-.92-.92v-6a.93.93,0,0,1,.92-.93h13.21a.93.93,0,0,1,.92.93v6A.92.92,0,0,1,535.26,192.91Zm-13.13-1h13V186h-13Z" transform="translate(-13.29 -78.23)"/><path class="cls-27" d="M528.4,197c-2.84,0-5.71-.85-5.71-2.47a1.64,1.64,0,0,1,0-.23l.08-.41H534l.08.41a1.64,1.64,0,0,1,0,.23C534.11,196.11,531.24,197,528.4,197Zm-4.48-2.11c.57.55,2.22,1.11,4.48,1.11a7.47,7.47,0,0,0,4.52-1.11Z" transform="translate(-13.29 -78.23)"/><g class="cls-7"><path class="cls-24" d="M560.78,165.05v15.31H536V165.05h24.76m1-1H535v17.31h26.76V164.05Z" transform="translate(-13.29 -78.23)"/><rect class="cls-24" x="555.3" y="169.97" width="1" height="13.67" transform="translate(66.28 435.29) rotate(-52.91)"/><rect class="cls-24" x="534.13" y="176.24" width="13.62" height="1" transform="translate(-11.28 281.29) rotate(-36.83)"/><polygon class="cls-24" points="535.11 96.48 521.84 86.62 522.44 85.82 535.11 95.23 547.55 85.88 548.16 86.67 535.11 96.48"/></g><path class="cls-28" d="M466.06,172.76H452.58a2.1,2.1,0,0,1-1.83-2.28V157.42H447.6c-.72,0-1-.34-1.05-.55s-.14-.68.48-1.28l10.86-10.4a2.14,2.14,0,0,1,2.86,0l10.86,10.39c.62.61.57,1.07.48,1.29s-.33.55-1,.55H467.9v13.06A2.1,2.1,0,0,1,466.06,172.76Zm-18.65-16.22h4.2v13.93c0,.76.45,1.41,1,1.41h13.48c.53,0,1-.65,1-1.41V156.55h4a.93.93,0,0,0,.24,0s-.1-.14-.27-.31l-10.86-10.39a1.25,1.25,0,0,0-1.66,0l-10.86,10.39a1,1,0,0,0-.25.34Z" transform="translate(-13.29 -78.23)"/><g class="cls-7"><path class="cls-24" d="M462.71,116a1.05,1.05,0,0,1-.93-.36c-.42-.57.17-1.06.86-1.62,1.22-1,3.23-2.67,3-5.57h-.12c-8.5,0-18.25-1-18.25-8.51s9.75-8.52,18.25-8.52c9.84,0,15.84,1.53,18.37,4.69l-.78.62c-2.29-2.86-8.21-4.31-17.59-4.31-11.93,0-17.25,2.32-17.25,7.52s5.16,7.51,17.25,7.51h1l.06.43c.57,3.72-1.95,5.79-3.3,6.91l-.22.18a10.26,10.26,0,0,0,2.59-.81c1.26-.56,5.51-2.71,7-6.74l.11-.29.3,0c.73-.09,1.43-.18,2.11-.29l.16,1q-.9.15-1.86.27c-2,4.83-7.6,7.52-10.23,7.89A3.74,3.74,0,0,1,462.71,116Z" transform="translate(-13.29 -78.23)"/><path class="cls-24" d="M496.3,119.94c-2.23,0-8.65-2.78-10.77-7.94-7.89-.93-11.73-3.59-11.73-8.12,0-5.73,6.44-8.51,19.68-8.51,8.5,0,18.26,1,18.26,8.51s-9.76,8.52-18.26,8.52h-.11c-.24,2.9,1.78,4.55,3,5.56.69.57,1.28,1.06.86,1.63A1.1,1.1,0,0,1,496.3,119.94Zm-2.82-23.57c-12.39,0-18.68,2.53-18.68,7.51,0,4,3.65,6.33,11.14,7.16l.31,0,.11.29c1.74,4.7,7.43,7.28,9.59,7.56l-.22-.19c-1.35-1.11-3.86-3.18-3.3-6.91l.07-.42h1c11.94,0,17.26-2.32,17.26-7.52S505.42,96.37,493.48,96.37Z" transform="translate(-13.29 -78.23)"/><path class="cls-24" d="M486.57,105.57a2.07,2.07,0,1,1,2.07-2.07A2.07,2.07,0,0,1,486.57,105.57Zm0-3.14a1.07,1.07,0,1,0,1.07,1.07A1.07,1.07,0,0,0,486.57,102.43Z" transform="translate(-13.29 -78.23)"/><path class="cls-24" d="M493.07,105.57a2.07,2.07,0,1,1,2.07-2.07A2.07,2.07,0,0,1,493.07,105.57Zm0-3.14a1.07,1.07,0,1,0,1.07,1.07A1.07,1.07,0,0,0,493.07,102.43Z" transform="translate(-13.29 -78.23)"/><path class="cls-24" d="M499.57,105.57a2.07,2.07,0,1,1,2.07-2.07A2.07,2.07,0,0,1,499.57,105.57Zm0-3.14a1.07,1.07,0,1,0,1.07,1.07A1.07,1.07,0,0,0,499.57,102.43Z" transform="translate(-13.29 -78.23)"/></g><g class="cls-3"><path class="cls-24" d="M530.42,237.85h-.07a.44.44,0,0,1-.31-.18l-3.91-5.39a.45.45,0,0,1,.1-.64,10.12,10.12,0,0,0,1.57-15,.5.5,0,0,1-.12-.33.46.46,0,0,1,.15-.31l5-4.46a.46.46,0,0,1,.65,0,17.73,17.73,0,0,1-1.31,25c-.48.42-.94.79-1.44,1.16A.46.46,0,0,1,530.42,237.85Zm-3.28-5.76,3.37,4.65c.34-.26.67-.53,1-.83a16.8,16.8,0,0,0,1.54-23.35l-4.27,3.85a11,11,0,0,1,2.54,7A11.11,11.11,0,0,1,527.14,232.09Z" transform="translate(-13.29 -78.23)"/><path class="cls-24" d="M528.14,216.83h0a.45.45,0,0,1-.32-.16,10.14,10.14,0,0,0-7.52-3.35.47.47,0,0,1-.46-.46V206.2a.47.47,0,0,1,.46-.46,16.85,16.85,0,0,1,13.16,5.86.47.47,0,0,1,0,.65l-4.95,4.46A.47.47,0,0,1,528.14,216.83Zm-7.4-4.42a11.1,11.1,0,0,1,7.43,3.31l4.27-3.84a15.81,15.81,0,0,0-11.7-5.21Z" transform="translate(-13.29 -78.23)"/><path class="cls-24" d="M510.27,220.46l-.15,0-6.29-2.17a.45.45,0,0,1-.28-.58,17.47,17.47,0,0,1,16.73-11.94.46.46,0,0,1,.46.46v6.66a.46.46,0,0,1-.46.46,10.14,10.14,0,0,0-9.58,6.82A.45.45,0,0,1,510.27,220.46Zm-5.7-2.91,5.42,1.86a11.06,11.06,0,0,1,9.83-7v-5.74A16.56,16.56,0,0,0,504.57,217.55Z" transform="translate(-13.29 -78.23)"/><path class="cls-24" d="M520.3,241.14A17.76,17.76,0,0,1,506,233.85a17.33,17.33,0,0,1-3.28-8.56.44.44,0,0,1,.1-.33.44.44,0,0,1,.31-.17l6.61-.7a.52.52,0,0,1,.34.1.53.53,0,0,1,.17.31,10.13,10.13,0,0,0,16,7.13.46.46,0,0,1,.34-.08.42.42,0,0,1,.3.18l3.92,5.39a.46.46,0,0,1,.08.34.45.45,0,0,1-.18.3A17.6,17.6,0,0,1,520.3,241.14Zm-16.65-15.49a16.3,16.3,0,0,0,3.06,7.65,16.83,16.83,0,0,0,13.59,6.92,16.6,16.6,0,0,0,9.47-2.94l-3.38-4.64a11.05,11.05,0,0,1-17-7.59Z" transform="translate(-13.29 -78.23)"/><path class="cls-24" d="M503.14,225.7a.43.43,0,0,1-.29-.1.44.44,0,0,1-.17-.31,16.41,16.41,0,0,1,.87-7.61.45.45,0,0,1,.58-.28l6.29,2.16a.45.45,0,0,1,.28.58,10.34,10.34,0,0,0-.55,3.3,9.28,9.28,0,0,0,.06,1.06.48.48,0,0,1-.41.51l-6.62.69Zm1.13-7.28a15.37,15.37,0,0,0-.72,6.32l5.7-.6c0-.23,0-.46,0-.7a11.29,11.29,0,0,1,.46-3.16Z" transform="translate(-13.29 -78.23)"/></g><g class="cls-3"><path class="cls-27" d="M465.77,245a2.45,2.45,0,0,1-2.37-2.5,2.68,2.68,0,0,1,.46-1.49l-.56,0,.07-.14a2.52,2.52,0,0,1-1.53-2.33,2.64,2.64,0,0,1,.53-1.59,2.5,2.5,0,0,1-1.7-2.39,2.59,2.59,0,0,1,.68-1.77,2.45,2.45,0,0,1,1-.64,2.64,2.64,0,0,1-.54-1.58,2.45,2.45,0,0,1,2.37-2.52l6.27,0h0c-.51-.46-.92-.86-1.26-1.2l-.58-.56a7.45,7.45,0,0,1-2.49-5.19,2.37,2.37,0,0,1,2-2.57,2.11,2.11,0,0,1,2.45,1.48c.16.31.31.66.45,1a4.9,4.9,0,0,0,.7,1.35l1.06.93h0l.43.33,2.43,2.14,2.69,2.26h.23l.05.25.29.24,1.59,1.55,4,0v13.81l-6.16,0-2.59,1.09Zm-1.58-5,2.57.09-1.65,1.06a1.57,1.57,0,0,0-.71,1.33,1.44,1.44,0,0,0,1.37,1.5v0l9.86,0,2.59-1.09,5.27,0V231l-3.4,0-2.37-2.24-2.71-2.3-2.46-2.1-1.48-1.3a5,5,0,0,1-1-1.71c-.13-.32-.26-.65-.4-.93-.54-1-.81-1-1.42-1s-1.11.66-1.14,1.61a6.46,6.46,0,0,0,2.17,4.44c.19.17.38.37.6.58.47.46,1,1,1.73,1.6l.09.1a1,1,0,0,1,.13.76c-.13.39-.5.45-1.36.45l-6.34,0a1.45,1.45,0,0,0-1.37,1.51,1.55,1.55,0,0,0,.71,1.31l.24.15v.1a.64.64,0,0,1,.06.43.58.58,0,0,1-.5.48h-.27a1.27,1.27,0,0,0-1,.43,1.58,1.58,0,0,0-.42,1.09,1.46,1.46,0,0,0,1.38,1.5h.16a.61.61,0,0,1,.61.48.6.6,0,0,1-.29.68,1.56,1.56,0,0,0-.69,1.31,1.46,1.46,0,0,0,1.3,1.51Z" transform="translate(-13.29 -78.23)"/><path class="cls-27" d="M490.54,245.36h-6.25V228.45h6.25Zm-5.25-1h4.25V229.45h-4.25Z" transform="translate(-13.29 -78.23)"/></g><g class="cls-7"><path class="cls-24" d="M461.18,297.77c-2.78,0-5-1.88-5-4.2a3.64,3.64,0,0,1,.53-1.88l.17-.27a3.06,3.06,0,0,0,.6-1.62.89.89,0,0,0-.22-.68,2.54,2.54,0,0,0-1.77-.47l-11.89,0a.5.5,0,0,1-.5-.5v-3.66a.13.13,0,0,1,0-.06c0-2.55,1.3-2.94,2.06-2.94h.14a4,4,0,0,1,2.11.75l.24.15a2.61,2.61,0,0,0,1.36.39c1.77,0,3.2-1.81,3.2-4s-1.43-4.05-3.2-4.05a2.61,2.61,0,0,0-1.36.39l-.24.15a4,4,0,0,1-2.11.76h-.14c-.76,0-2-.38-2.06-2.94a.13.13,0,0,1,0-.06v-9a.55.55,0,0,1,.15-.36.5.5,0,0,1,.35-.14h13a3.3,3.3,0,0,1,2.5.79,1.79,1.79,0,0,1,.48,1.41,3.85,3.85,0,0,1-.75,2.11l-.15.24a2.61,2.61,0,0,0-.39,1.37c0,1.76,1.81,3.2,4,3.2s4-1.44,4-3.2a2.61,2.61,0,0,0-.39-1.37l-.16-.24a4,4,0,0,1-.75-2.11,1.86,1.86,0,0,1,.49-1.42,3.34,3.34,0,0,1,2.5-.78h6.43a.51.51,0,0,1,.5.5v8.91a.15.15,0,0,1,0,.07,2.69,2.69,0,0,0,.4,1.71.83.83,0,0,0,.66.29,3,3,0,0,0,1.71-.61l.27-.16,0,0a3.63,3.63,0,0,1,1.84-.5c2.31,0,4.19,2.26,4.19,5.05s-1.88,5-4.19,5a3.61,3.61,0,0,1-1.88-.53l-.28-.17a3,3,0,0,0-1.62-.6c-.33,0-1.14,0-1.14,2a.17.17,0,0,1,0,.07v3.6a.5.5,0,0,1-.5.5h-7.62a2.46,2.46,0,0,0-1.69.48.88.88,0,0,0-.21.67,3,3,0,0,0,.59,1.62c.07.09.12.18.18.27l0,0a3.7,3.7,0,0,1,.51,1.84C466.22,295.89,464,297.77,461.18,297.77Zm-17.12-10.13h11.39a3.34,3.34,0,0,1,2.5.79,1.79,1.79,0,0,1,.48,1.41,4,4,0,0,1-.75,2.12l-.15.24a2.61,2.61,0,0,0-.39,1.36c0,1.76,1.81,3.2,4,3.2s4-1.44,4-3.2a2.61,2.61,0,0,0-.39-1.36l0,0-.14-.21a4,4,0,0,1-.75-2.11,1.85,1.85,0,0,1,.48-1.4,3.3,3.3,0,0,1,2.41-.8h7.13v-3.17s0-.05,0-.07c0-2.55,1.3-2.93,2.07-2.93h.13a3.93,3.93,0,0,1,2.11.75l.24.15a2.61,2.61,0,0,0,1.37.39c1.76,0,3.19-1.82,3.19-4s-1.43-4.05-3.19-4.05a2.7,2.7,0,0,0-1.37.38l0,0-.2.13a4,4,0,0,1-2.12.76H476a1.79,1.79,0,0,1-1.42-.65,3.52,3.52,0,0,1-.64-2.28s0-.05,0-.07V264.5H468a2.49,2.49,0,0,0-1.77.47.88.88,0,0,0-.22.67,2.91,2.91,0,0,0,.6,1.63l.17.27a3.64,3.64,0,0,1,.53,1.88c0,2.31-2.26,4.2-5,4.2s-5-1.89-5-4.2a3.64,3.64,0,0,1,.53-1.88c.05-.09.11-.18.17-.27a3.06,3.06,0,0,0,.6-1.63.92.92,0,0,0-.21-.67,2.53,2.53,0,0,0-1.78-.47H444.06v8.44a.11.11,0,0,1,0,.05c0,2,.8,2,1.06,2a3,3,0,0,0,1.7-.6l.28-.17a3.58,3.58,0,0,1,1.87-.53c2.32,0,4.2,2.26,4.2,5.05s-1.88,5-4.2,5a3.63,3.63,0,0,1-1.87-.53l-.28-.17a3,3,0,0,0-1.62-.59c-.34,0-1.14,0-1.14,2a.09.09,0,0,1,0,0Z" transform="translate(-13.29 -78.23)"/></g><g class="cls-20"><path class="cls-19" d="M538,130.26l-6.5-3.7-6.73,3.26,1.51-7.32-5.18-5.4,7.43-.83,3.53-6.59,3.09,6.81,7.36,1.32-5.53,5Zm-6.46-4.82,5.19,2.95-.81-5.92,4.42-4-5.89-1.06L532,111.94l-2.83,5.27-5.94.66,4.14,4.31-1.2,5.86Z" transform="translate(-13.29 -78.23)"/></g></g></g></svg>