<svg id="Layer_1" data-name="Layer 1" xmlns="http://www.w3.org/2000/svg" viewBox="0 0 270.17 53.27"><defs><style>.cls-1,.cls-2{fill:#7dcb87;}.cls-2{fill-rule:evenodd;}</style></defs><path class="cls-1" d="M76.79,37.05c0,6.78-4.81,9.88-9.79,9.88-5.4,0-9.58-3.57-9.58-9.56s3.95-9.84,9.92-9.84C73,27.53,76.79,31.44,76.79,37.05Zm-13.42.19c0,3.16,1.33,5.57,3.79,5.57,2.26,0,3.68-2.26,3.68-5.6,0-2.74-1.06-5.56-3.67-5.56S63.37,34.48,63.37,37.24Z" transform="translate(-1.68 -0.76)"/><path class="cls-1" d="M98.46,19.58V41c0,2.11.07,4.3.15,5.54H93.48l-.24-2.71h-.08a6.48,6.48,0,0,1-5.81,3.13c-4.39,0-7.93-3.76-7.93-9.53,0-6.24,3.89-9.87,8.31-9.87,2.29,0,4,.82,4.88,2.1h.08v-10ZM92.69,35.83a6.19,6.19,0,0,0-.08-1A3.43,3.43,0,0,0,89.26,32c-2.64,0-4,2.35-4,5.27,0,3.13,1.54,5.1,3.94,5.1a3.4,3.4,0,0,0,3.34-2.77,5.36,5.36,0,0,0,.13-1.3Z" transform="translate(-1.68 -0.76)"/><path class="cls-1" d="M107.54,39.09c.17,2.39,2.54,3.53,5.23,3.53a15.36,15.36,0,0,0,5.11-.79l.78,3.91a18.08,18.08,0,0,1-6.73,1.17c-6.29,0-9.9-3.66-9.9-9.45,0-4.71,2.94-9.93,9.36-9.93,6,0,8.29,4.68,8.29,9.27a10.51,10.51,0,0,1-.21,2.29Zm6.78-4c0-1.39-.62-3.76-3.24-3.76-2.44,0-3.43,2.23-3.59,3.76Z" transform="translate(-1.68 -0.76)"/><path class="cls-1" d="M123.52,40.55a14.32,14.32,0,0,0,6.41,1.6c2.65,0,4.06-1.1,4.06-2.78s-1.22-2.5-4.28-3.58c-4.27-1.51-7.05-3.83-7.05-7.57,0-4.36,3.66-7.67,9.67-7.67a15.15,15.15,0,0,1,6.53,1.29l-1.28,4.63a12.34,12.34,0,0,0-5.34-1.21c-2.51,0-3.72,1.16-3.72,2.47,0,1.62,1.42,2.34,4.74,3.6,4.52,1.69,6.62,4,6.62,7.65,0,4.27-3.27,7.93-10.31,7.93a16.54,16.54,0,0,1-7.22-1.59Z" transform="translate(-1.68 -0.76)"/><path class="cls-1" d="M149.86,22.65V28H154v4.26h-4.15v6.72c0,2.24.55,3.27,2.28,3.27a7.85,7.85,0,0,0,1.71-.17l.05,4.39a12.24,12.24,0,0,1-3.74.49,6,6,0,0,1-4.35-1.61c-1.07-1.1-1.6-2.86-1.6-5.5V32.21h-2.47V28h2.47V24Z" transform="translate(-1.68 -0.76)"/><path class="cls-1" d="M157.34,34.07c0-2.73-.05-4.52-.15-6.12h5l.21,3.43h.14a5.44,5.44,0,0,1,5-3.85,4.73,4.73,0,0,1,1.24.11v5.43a6.81,6.81,0,0,0-1.56-.17,3.72,3.72,0,0,0-4,2.94,6.94,6.94,0,0,0-.11,1.28v9.39h-5.78Z" transform="translate(-1.68 -0.76)"/><path class="cls-1" d="M181.91,46.51l-.34-1.84h-.12a6.68,6.68,0,0,1-5.31,2.26,5.66,5.66,0,0,1-6-5.68c0-4.83,4.33-7.13,10.9-7.12v-.24c0-1-.53-2.39-3.4-2.39a10.7,10.7,0,0,0-5.12,1.39l-1.06-3.7a15,15,0,0,1,7.21-1.66c6.18,0,8.14,3.65,8.14,8V42a27,27,0,0,0,.29,4.49Zm-.7-8.78c-3,0-5.39.72-5.39,2.93a2.08,2.08,0,0,0,2.3,2.22,3.15,3.15,0,0,0,3-2.13,3.58,3.58,0,0,0,.11-1Z" transform="translate(-1.68 -0.76)"/><path class="cls-1" d="M191.37,34.19c0-2.44-.07-4.5-.15-6.24h5l.26,2.6h.08a7.18,7.18,0,0,1,6.18-3c4.07,0,7.72,3.53,7.72,9.46,0,6.77-4.31,9.94-8.45,9.94a5.72,5.72,0,0,1-4.81-2.12h-.07V54h-5.78Zm5.78,4.38a5.69,5.69,0,0,0,.11,1.2,3.5,3.5,0,0,0,3.38,2.74c2.49,0,4-2.1,4-5.25,0-2.95-1.32-5.21-3.89-5.21A3.6,3.6,0,0,0,197.28,35a3.93,3.93,0,0,0-.13,1Z" transform="translate(-1.68 -0.76)"/><path class="cls-1" d="M212.35,43.43a3.41,3.41,0,1,1,6.81,0,3.41,3.41,0,1,1-6.81,0Z" transform="translate(-1.68 -0.76)"/><path class="cls-1" d="M222.64,33.88c0-2.31-.08-4.27-.16-5.93h4.88l.25,2.51h.12a6.44,6.44,0,0,1,5.6-2.93,5.24,5.24,0,0,1,5.08,3.18h.08a7.67,7.67,0,0,1,2.41-2.26,6.66,6.66,0,0,1,3.52-.92c3.55,0,6.26,2.51,6.26,8.06V46.51h-5.62V36.43c0-2.69-.87-4.25-2.73-4.25a2.83,2.83,0,0,0-2.66,2,5.07,5.07,0,0,0-.21,1.47V46.51h-5.61V36.11c0-2.34-.84-3.93-2.68-3.93a3,3,0,0,0-2.7,2.07,4.24,4.24,0,0,0-.22,1.46v10.8h-5.61Z" transform="translate(-1.68 -0.76)"/><path class="cls-1" d="M259.71,39.09c.17,2.39,2.54,3.53,5.23,3.53a15.27,15.27,0,0,0,5.11-.79l.78,3.91a18.08,18.08,0,0,1-6.73,1.17c-6.28,0-9.9-3.66-9.9-9.45,0-4.71,2.95-9.93,9.36-9.93,6,0,8.29,4.68,8.29,9.27a11.36,11.36,0,0,1-.2,2.29Zm6.78-4c0-1.39-.61-3.76-3.24-3.76-2.44,0-3.43,2.23-3.59,3.76Z" transform="translate(-1.68 -0.76)"/><path class="cls-1" d="M3.26,18.36a26.61,26.61,0,0,1,48.67-3.22l0,.13v.06a14.94,14.94,0,0,0-3.33,1.45C42.19,8,31,3.12,19.47,8.6A20.75,20.75,0,0,0,37.13,46.16c1.28-.6,1.54,2.7,2.7,1.84A21.77,21.77,0,0,0,43,45.08l5.37-.18a27.2,27.2,0,0,1-4,3.74,26.86,26.86,0,0,1-4.71,2.83A26.62,26.62,0,0,1,3.26,18.36Z" transform="translate(-1.68 -0.76)"/><path class="cls-2" d="M13.9,49.71c10.94,7.7,18.39,2.11,25.13.66,5.34-1.16,10.83-6.36,12.9-9,.31-.39,2-2.1.08-2.48-1.18-.23-2.77,1.61-5.63,3.53s-5.14,3-11.05,3.9c-1.31.19-4.51.22-4.93-1.44C30.11,43.69,32,42.35,33.57,41c3.91-3.25,1.35-7.9-.14-5.64-2.19,3.33-3.13,3-7.29,5.69a17.39,17.39,0,0,0-5.56,5.5C18,50.85,9.52,44.35,13.9,49.71Zm25.28-5a20.68,20.68,0,0,0,3.32-1c1.15-2,2.31-4,1.89-4.48-.58-.6-2.18-.24-3.85,3.2a18.88,18.88,0,0,1-1.36,2.27ZM43,43.56a22.37,22.37,0,0,0,3.3-1.82c.43-.27.83-.54,1.21-.81.9-1.5,1.6-2.83,1.28-3.18-.56-.62-2.17-.32-4,3.07A20.09,20.09,0,0,1,43,43.56Zm-6.89,1.73c1-.14,1.9-.29,2.71-.46,1-1.73,2-3.49,1.61-3.87-.53-.55-2-.22-3.5,2.9a13.54,13.54,0,0,1-.82,1.43Z" transform="translate(-1.68 -0.76)"/></svg>