<svg width="556" height="176" viewBox="0 0 556 176" fill="none" xmlns="http://www.w3.org/2000/svg">
<g clip-path="url(#clip0_6686_1477)">
<path d="M0 0.371094H27.8C48.928 0.371094 56.712 12.9956 56.712 34.9027C56.712 56.8099 48.928 69.4344 27.8 69.4344H0V0.371094ZM27.8 61.6369C41.144 61.6369 47.816 55.696 47.816 40.8437V29.3331C47.816 14.1095 40.7733 8.16856 27.8 8.16856H8.52533V61.6369H27.8Z" fill="#202426"/>
<path d="M85.624 18.9365C98.968 18.9365 107.493 27.1053 107.493 41.215C107.493 55.3247 107.493 44.9281 107.493 46.4133H71.168V49.3838C71.168 57.9239 77.0987 63.8648 86.3654 63.8648C95.632 63.8648 98.5974 60.1517 100.08 54.5821H108.235C106.381 64.2361 97.4854 70.5483 85.9947 70.5483C74.504 70.5483 62.6427 60.523 62.6427 44.5568C62.6427 28.5905 71.5387 18.9365 85.624 18.9365ZM99.3387 40.4724V38.6158C99.3387 30.8184 93.7787 25.9914 85.624 25.9914C77.4694 25.9914 70.7974 31.561 70.7974 39.3585V40.8437H99.3387V40.4724Z" fill="#202426"/>
<path d="M116.76 20.0508L125.285 46.4136L130.104 61.266H130.845L135.293 46.4136L143.819 20.0508H152.715L135.293 69.4347H125.656L107.864 20.0508H116.76Z" fill="#202426"/>
<path d="M176.437 18.9365C189.781 18.9365 198.307 27.1053 198.307 41.215C198.307 55.3247 198.307 44.9281 198.307 46.4133H161.981V49.3838C161.981 57.9239 167.912 63.8648 177.179 63.8648C186.445 63.8648 189.411 60.1517 190.893 54.5821H199.048C197.195 64.2361 188.299 70.5483 176.808 70.5483C165.317 70.5483 153.456 60.523 153.456 44.5568C153.456 28.5905 162.352 18.9365 176.437 18.9365ZM190.152 40.4724V38.6158C190.152 30.8184 184.592 25.9914 176.437 25.9914C168.283 25.9914 161.611 31.561 161.611 39.3585V40.8437H190.152V40.4724Z" fill="#202426"/>
<path d="M206.832 0H214.987V69.4346H206.832V0Z" fill="#202426"/>
<path d="M246.864 18.9365C260.579 18.9365 270.587 28.2192 270.587 44.5568C270.587 60.8943 262.061 70.177 246.864 70.177C231.667 70.177 223.141 60.1517 223.141 44.5568C223.141 28.9618 232.779 18.9365 246.864 18.9365ZM246.864 63.4935C255.389 63.4935 262.061 58.2952 262.061 48.6412V40.8437C262.061 31.561 255.389 25.6201 246.864 25.6201C238.339 25.6201 231.667 31.561 231.667 40.8437V48.6412C231.667 58.2952 238.709 63.4935 246.864 63.4935Z" fill="#202426"/>
<path d="M278.741 20.0504H286.155L286.896 28.5905H287.637C290.973 22.2783 297.275 18.9365 305.429 18.9365C318.403 18.9365 325.816 28.2192 325.816 44.1855C325.816 60.1517 318.032 69.4344 305.429 69.4344C292.827 69.4344 290.973 65.7213 287.637 59.7804H286.896V85.0294H278.741V20.0504ZM317.291 49.3838V39.3585C317.291 31.1897 311.731 25.9914 302.835 25.9914C293.939 25.9914 286.896 32.3036 286.896 41.5863V47.8986C286.896 57.1813 293.197 63.1222 302.835 63.1222C312.472 63.1222 317.291 57.9239 317.291 49.7551V49.3838Z" fill="#202426"/>
<path d="M353.987 18.9365C367.331 18.9365 375.856 27.1053 375.856 41.215C375.856 55.3247 375.856 44.9281 375.856 46.4133H339.531V49.3838C339.531 57.9239 345.461 63.8648 354.728 63.8648C363.995 63.8648 366.96 60.1517 368.443 54.5821H376.597C374.744 64.2361 365.848 70.5483 354.357 70.5483C342.867 70.5483 331.005 60.523 331.005 44.5568C331.005 28.5905 339.901 18.9365 353.987 18.9365ZM368.072 40.4724V38.6158C368.072 30.8184 362.512 25.9914 354.357 25.9914C346.203 25.9914 339.531 31.561 339.531 39.3585V40.8437H368.072V40.4724Z" fill="#202426"/>
<path d="M409.216 20.0505V26.734H392.907V69.4345H384.752V27.1054C384.752 23.7636 385.864 19.6792 392.165 19.6792H409.216V20.0505Z" fill="#202426"/>
<path d="M40.4027 145.553V133.671H0.741333V90.228H6.30133V127.73H40.7733V115.848L56.712 130.701L40.7733 145.182L40.4027 145.553Z" fill="#202426"/>
<path d="M67.4613 125.502C67.4613 103.224 78.952 89.8564 99.3386 89.8564C119.725 89.8564 127.509 99.5105 129.363 113.991H120.467C118.613 104.337 111.571 97.6539 99.3386 97.6539C87.1066 97.6539 76.728 106.194 76.728 119.932V131.072C76.728 143.696 85.624 152.979 99.3386 152.979C113.053 152.979 118.613 146.667 120.837 136.641H129.733C127.509 151.494 115.648 160.776 98.968 160.776C82.288 160.776 67.832 147.78 67.832 125.502H67.4613Z" fill="#202426"/>
<path d="M158.645 109.907C172.36 109.907 182.368 119.19 182.368 135.527C182.368 151.865 173.843 161.148 158.645 161.148C143.448 161.148 134.923 151.122 134.923 135.527C134.923 119.933 144.56 109.907 158.645 109.907ZM158.645 154.093C167.171 154.093 173.843 148.895 173.843 139.241V131.443C173.843 122.16 167.171 116.219 158.645 116.219C150.12 116.219 143.448 122.16 143.448 131.443V139.241C143.448 148.895 150.491 154.093 158.645 154.093Z" fill="#202426"/>
<path d="M190.523 110.65H197.565L198.677 119.933H199.419C202.384 112.878 207.944 109.907 214.616 109.907C221.288 109.907 227.219 114.363 229.072 120.675H229.813C232.779 113.249 238.709 109.907 246.123 109.907C256.501 109.907 262.432 116.962 262.432 129.587V160.405H254.277V130.7C254.277 121.046 250.2 116.962 243.528 116.962C236.856 116.962 230.555 124.017 230.555 134.042V160.405H222.4V130.7C222.4 121.418 218.693 116.962 211.651 116.962C204.608 116.962 198.677 124.017 198.677 134.042V160.405H190.523V111.021V110.65Z" fill="#202426"/>
<path d="M273.552 110.65H280.595L281.707 119.933H282.448C285.413 112.878 290.973 109.907 297.645 109.907C304.317 109.907 310.248 114.363 312.101 120.675H312.843C315.808 113.249 321.739 109.907 329.152 109.907C339.531 109.907 345.461 116.962 345.461 129.587V160.405H337.307V130.7C337.307 121.046 333.229 116.962 326.557 116.962C319.885 116.962 313.584 124.017 313.584 134.042V160.405H305.429V130.7C305.429 121.418 301.723 116.962 294.68 116.962C287.637 116.962 281.707 124.017 281.707 134.042V160.405H273.552V111.021V110.65Z" fill="#202426"/>
<path d="M397.725 160.034H390.683L389.571 150.751H388.829C386.235 156.692 379.933 160.776 372.149 160.776C364.365 160.776 355.84 154.093 355.84 141.84V110.278H363.995V140.726C363.995 149.637 368.072 153.721 375.115 153.721C382.157 153.721 389.941 146.667 389.941 136.27V110.278H398.096V159.662L397.725 160.034Z" fill="#202426"/>
<path d="M409.216 110.65H416.259L417.371 119.933H418.112C421.077 113.62 427.379 109.907 434.792 109.907C445.541 109.907 451.843 117.705 451.843 129.958V160.405H443.688V130.7C443.688 121.418 439.611 117.333 432.197 117.333C424.784 117.333 417.741 124.388 417.741 134.414V160.405H409.587V111.021L409.216 110.65Z" fill="#202426"/>
<path d="M462.963 90.5991H471.117V101.367H462.963V90.5991ZM462.963 110.65H471.117V160.034H462.963V110.65Z" fill="#202426"/>
<path d="M504.107 153.35V160.034H492.616C487.427 160.034 485.573 157.434 485.573 152.979V117.333H476.677V110.65H485.573V94.312H493.728V110.65H504.107V117.333H493.728V152.979H504.107V153.35Z" fill="#202426"/>
<path d="M515.968 110.65L523.011 126.987L531.165 145.924H531.907L547.475 110.65H556.371L535.984 154.464V168.945C535.984 171.916 535.243 176.371 528.941 176.371H516.339V169.688H527.829V154.836L507.443 111.393H516.339L515.968 110.65Z" fill="#202426"/>
</g>
<defs>
<clipPath id="clip0_6686_1477">
<rect width="556" height="176" fill="white"/>
</clipPath>
</defs>
</svg>
