<svg xmlns="http://www.w3.org/2000/svg" viewBox="0 0 874 527.41"><defs><style>.cls-1{isolation:isolate;}.cls-2{fill:#302b59;}.cls-3{mix-blend-mode:hard-light;}.cls-4{fill:#ffc400;}.cls-5{fill:#ff9114;opacity:0.44;}.cls-6{fill:#00ccc2;}.cls-7{fill:#7ad41a;}.cls-8{fill:#ffd600;}.cls-9{fill:#ffe800;opacity:0.79;}.cls-10{fill:#c27dff;}.cls-11{fill:#9db1ff;}.cls-12{fill:#f668d4;}.cls-13{fill:#ff5cc2;}.cls-14{fill:#00b8d6;}</style></defs><g class="cls-1"><g id="back"><rect class="cls-2" width="874" height="527.41"/></g><g id="Layer_1" data-name="Layer 1"><g class="cls-3"><path class="cls-4" d="M553,402.35l45.64-25.27-4.13-8.36-56.09,24.75A66.58,66.58,0,0,1,553,402.35Z" transform="translate(0 0)"/><path class="cls-4" d="M689.85,289.22c-32.92,15.31-82.91,50.93-82.91,50.93l6.39,12.26A101.92,101.92,0,0,1,627,345.23c11.28-4.52,22.34-3,24,.19s-3.75,13.37-13.58,19.82a102.93,102.93,0,0,1-13.69,7.05l5.38,10.32S686.9,362,718.3,343.78Z" transform="translate(0 0)"/><path class="cls-4" d="M612.25,353.05l-6.15-11.8-4,7,4.4,8.42C608.38,355.46,610.31,354.24,612.25,353.05Z" transform="translate(0 0)"/><path class="cls-4" d="M616.32,375.43l3.15,6,8,.76-4.9-9.41C620.47,373.72,618.37,374.61,616.32,375.43Z" transform="translate(0 0)"/><path class="cls-4" d="M611.12,376c7.35-2.87,19-7.72,25.42-11.88,9.74-6.35,14.3-15.75,13.13-18s-11.48-3.87-22.27.47c-7,2.84-17.73,9.67-24.29,14.05Z" transform="translate(0 0)"/><path class="cls-4" d="M601.47,361.43c-2.75,1.87-4.52,3.13-4.52,3.13h0a2.08,2.08,0,0,0-.62,2.64l5.51,10.57a2.09,2.09,0,0,0,2.51,1h0s2-.73,5.14-1.91Z" transform="translate(0 0)"/><path class="cls-4" d="M567.1,307.53h0a2.14,2.14,0,0,0-.63,2.68L572.08,321a2.12,2.12,0,0,0,2.56,1h0s2.2-.78,5.51-2.05l-8.21-15.75C569,306.18,567.1,307.53,567.1,307.53Z" transform="translate(0 0)"/><path class="cls-4" d="M666,299.43c-11.75,4.82-29,10.86-41.94,9.82a77.48,77.48,0,0,1-10.41-1.65h0s-2.2-.46-2.79-1.44c-.4-.67.16-1.45.51-1.82,7.17-6.13,10.43-13.44,9.33-15.56-1.22-2.33-11.79-4.14-22.78.26-7.12,2.85-17.84,9.71-24.52,14.19l8.36,16,1.2-.46h0a12.69,12.69,0,0,1,2.72-.32,15.28,15.28,0,0,1,3.75,1.32c4.2,2.56,9.5,6.31,13.29,10.85a37.42,37.42,0,0,1,4.36,6.81C612.93,333.36,640.13,314.38,666,299.43Z" transform="translate(0 0)"/><path class="cls-4" d="M625.48,419.48h0a2.11,2.11,0,0,0-.62,2.68l5.6,10.75a2.11,2.11,0,0,0,2.56,1h0s2.19-.79,5.51-2.06l-8.22-15.75C627.38,418.13,625.48,419.48,625.48,419.48Z" transform="translate(0 0)"/><path class="cls-4" d="M665.85,419.24c9.89-6.49,14.46-16.19,13.25-18.53-1.11-2.11-9-3.62-18.1-1.25-.5.06-1.46.08-1.78-.63-.47-1,.41-3.12.41-3.12h0a76.18,76.18,0,0,1,4.6-9.47c6.53-11.17,21.38-21.89,32-28.77-27.07,12.67-58.21,24.11-64.9,26.54a37,37,0,0,1,3.07,7.47c1.56,5.7,1.61,12.2,1.3,17.1a15.44,15.44,0,0,1-1.07,3.83,12,12,0,0,1-1.81,2h0l-1.07.72,8.37,16C647.67,428.32,659.43,423.45,665.85,419.24Z" transform="translate(0 0)"/><path class="cls-4" d="M725.24,339.56c27.22-17.84,40.71-44,39.38-52.85l28.44-14.82a1.88,1.88,0,0,0-1.74-3.33l-28.6,14.92c-7.3-6.23-35.75-9.43-65.44,2.46-1.78.72-3.65,1.53-5.58,2.4l28.38,54.43Q722.83,341.15,725.24,339.56Zm-9.67-28.8a12,12,0,1,1,16.12,5.07A12,12,0,0,1,715.57,310.76Z" transform="translate(0 0)"/><path class="cls-4" d="M734.13,301.08a9,9,0,1,0-3.81,12.12A9,9,0,0,0,734.13,301.08Z" transform="translate(0 0)"/></g><g id="Layer_11" data-name="Layer 11"><path class="cls-5" d="M463.83,440.07c0,1.73-.09,3.43-.25,5.12a55.6,55.6,0,0,1,12.59-1.45c.66,0,1.33,0,2,.05L553,402.35a66.58,66.58,0,0,0-14.58-8.88l-76.22,33.64A52.23,52.23,0,0,1,463.83,440.07Z" transform="translate(0 0)"/></g></g><g id="Layer_7" data-name="Layer 7" class="cls-3"><path class="cls-6" d="M123.81,271.88A14.84,14.84,0,1,0,144,266,14.87,14.87,0,0,0,123.81,271.88Z" transform="translate(0 0)"/><path class="cls-6" d="M177.71,261.32c26.58,18.87,43.12,36.78,49.7,44.53,3.4-3.3,13.41-12,26.86-14.37,14-2.49,50.53,5.28,6.87-21C227.12,250.14,191.43,257.31,177.71,261.32Z" transform="translate(0 0)"/><path class="cls-6" d="M224,305l-.63-.72c-.13-.13-.25-.28-.38-.42l-1.14-1.26-.47-.51-.7-.76-.51-.56-.76-.79-.59-.63L217.41,298l-.58-.6-.9-.92-.55-.55L213.51,294l-.45-.45L212,292.48l-.55-.53q-1.91-1.84-4-3.8l-.47-.44-1.43-1.31-.25-.23c-1-.93-2.09-1.89-3.18-2.85l-.15-.13-1.66-1.46-.37-.32c-1.74-1.5-3.55-3-5.44-4.6l-.36-.29q-2.94-2.43-6.13-4.92l-.17-.13-2.07-1.6-.43-.32q-3.14-2.4-6.49-4.83l-.68-.49L176,262.69h0c-4.47-3.15-9.2-6.33-14.22-9.48-43-27-96.19-16.81-101-15.8,1.74,4.64,21.48,55.06,67.28,77q8.85,4.24,17.16,7.6h0l2.83,1.14,2,.77,1.36.53,2,.74,1.23.47,3.51,1.27,1.09.39,2,.69,1.09.37q3.22,1.11,6.3,2.08l1,.33,1.84.57.85.25c1.11.34,2.21.67,3.29,1l.89.26,1.72.48.93.26c1.09.31,2.17.6,3.22.87l.55.15,1.53.4,1,.24,1.44.36,1,.24,2.3.54,1,.23,1.25.28,1,.22,1.68.36,1.2.25,1.05.22.95.18,1,.19,1.2.23,1.19.21.9.17.82.14.81.13,1.12.19.83.13.75.12.53.08.74.11H208c2.59.37,4.3.55,5,.62l5.65-10.24c-5.23-2.62-10.39-5.35-15-7.87C185,312,158,295.18,160.33,291s31,9.62,49.66,19.93c4.56,2.52,9.62,5.43,14.63,8.44l4.5-8.15c-.54-.7-2.18-2.78-4.9-5.88ZM152.5,287.7a17.92,17.92,0,1,1-7-24.34A17.93,17.93,0,0,1,152.5,287.7Z" transform="translate(0 0)"/><path class="cls-6" d="M196.55,387.63c45.51,22.9,19.44-3.85,14.08-17-4.61-11.34-3.49-23-2.5-28.67-9.53-1.32-33.18-5.54-63.17-17.69C149.61,339.18,163,370.64,196.55,387.63Z" transform="translate(0 0)"/><path class="cls-6" d="M238.47,328.76l1.83,1.31c12.11,7.82,15.79,10.7,14.48,12.52-.63.88-7.38,0-16.57-3.91L268.32,355a84.16,84.16,0,0,1,8.86-8.23Z" transform="translate(0 0)"/><path class="cls-6" d="M162.64,292.05c-1,1.78,14.75,13.68,42.6,29s46.32,22.3,47.3,20.53-14.76-13.69-42.6-29S163.62,290.27,162.64,292.05Z" transform="translate(0 0)"/></g><g id="Layer_3" data-name="Layer 3" class="cls-3"><path class="cls-7" d="M366.81,150.09c-14.82-15.62-29.8-23.3-35.4-21.29-5.93,2.12-12.51,17.53-13.91,39Z" transform="translate(0 0)"/><path class="cls-7" d="M410.53,243.18c-1.37-4.93-2.8-9.91-4.28-14.83l-69.37,24.86c2,4.74,4,9.49,6.12,14.17Z" transform="translate(0 0)"/><path class="cls-7" d="M343.25,273.81c-6.18,8.23-23.92,35-15.35,61.67,10.31,32,14,12.84,20.46,4.78,5.89-7.33,18.28-12.77,20.47-13.69C367.09,323.22,355.23,300.3,343.25,273.81Z" transform="translate(0 0)"/><path class="cls-7" d="M465.44,286.19c-10.3-26-41-35.46-51-37.88,7.58,28.06,13,53.3,13.76,57,2.27-.67,15.3-4.35,24.51-2.43C462.81,305,477.82,317.45,465.44,286.19Z" transform="translate(0 0)"/><path class="cls-7" d="M358,203a13.2,13.2,0,1,0,16.88,8A13.21,13.21,0,0,0,358,203Z" transform="translate(0 0)"/><path class="cls-7" d="M405.62,226.24c-4.75-15.66-10-30.62-15.24-41.7A134.37,134.37,0,0,0,368.59,152l-51.24,18.37a136.82,136.82,0,0,0,4,38.92c3,11.91,8.45,26.78,14.72,41.89Zm-49.28-27.8a18,18,0,1,1-10.87,23A18,18,0,0,1,356.34,198.44Z" transform="translate(0 0)"/><path class="cls-7" d="M405.2,326.53l.34,1a3.26,3.26,0,0,1-6.13,2.2l-.34-.95-13.4,4.8-1,9.33,41-14.69-6.72-6.56Z" transform="translate(0 0)"/><polygon class="cls-7" points="395.77 319.54 372.95 327.72 380.69 333.62 398.53 327.23 395.77 319.54"/><path class="cls-7" d="M343.78,269.14c13.52,30.3,27.53,57.05,27.53,57.05l23.79-8.52-19-52.9a3.26,3.26,0,0,1,6.14-2.2l19,52.9L426,306.59S419.84,277,411,245Z" transform="translate(0 0)"/><path class="cls-7" d="M403.75,327.3l-22.84-63.73a1.71,1.71,0,1,0-3.18,1.14l22.84,63.73a1.71,1.71,0,1,0,3.18-1.14Z" transform="translate(0 0)"/><polygon class="cls-7" points="404.67 325.03 423.49 318.28 425.72 308.8 401.91 317.34 404.67 325.03"/><path class="cls-7" d="M476.17,443.74a55.6,55.6,0,0,0-12.59,1.45c.16-1.69.25-3.39.25-5.12a52.3,52.3,0,0,0-25.18-44.75l-25.29-59.15-11.39,4,13.63,47.78c-1.36-.1-2.72-.17-4.1-.17a52.34,52.34,0,0,0-51.19,41.45A61.66,61.66,0,0,0,344.5,435l-.16-.27-.24-.61s-.05,0-.08.07a100.69,100.69,0,0,0-176.12,4.35,12.6,12.6,0,0,1-1.5-.36c0,.1-.07.19-.1.28a63.53,63.53,0,0,0-7.73-.49,62.18,62.18,0,0,0-25.65,5.51,94,94,0,0,0-68.31-31.38A92.21,92.21,0,0,0,0,374.07V526.91H524.56a55.67,55.67,0,0,0-48.39-83.17Z" transform="translate(0 0)"/><path class="cls-7" d="M383.83,421.74l20-16.67L277.18,346.76a84.16,84.16,0,0,0-8.86,8.23Z" transform="translate(0 0)"/></g><g id="Layer_4" data-name="Layer 4" class="cls-3"><path class="cls-8" d="M247.53,220.6l3.23,2.57,25.7-22.49-2.11-3.54Z" transform="translate(0 0)"/><path class="cls-8" d="M242.66,216.7l3.3,2.66,27.36-23.94-2.2-3.62Z" transform="translate(0 0)"/><path class="cls-8" d="M279.65,206.12c-.67-1.16-1.37-2.36-2.11-3.62l-25.11,22,3.29,2.58Z" transform="translate(0 0)"/><path class="cls-8" d="M278.79,230.33l1-.91,8.68-7.59s-2.78-5.21-7.82-13.93l-23.33,20.42c8,6.15,12.76,9.6,12.76,9.6Z" transform="translate(0 0)"/><path class="cls-8" d="M179.5,76.29a8.69,8.69,0,0,1,1-.75c-33.27-26.68-57.94-24.83-57.94-24.83h0s-5.11,24.21,16.91,60.73a8.3,8.3,0,0,1,.88-.9Z" transform="translate(0 0)"/><path class="cls-8" d="M185.27,82.88c2-1.73,2.57-4.32,1.31-5.76s-3.9-1.19-5.88.54l-39.16,34.27c-2,1.73-2.57,4.31-1.31,5.75s3.89,1.2,5.88-.54Z" transform="translate(0 0)"/><path class="cls-8" d="M270,189.91c-14.44-23.54-36.25-56.61-61.75-86.89a209.14,209.14,0,0,0-20.07-20.86,7.66,7.66,0,0,1-1.68,2.09l-39.16,34.27a7.77,7.77,0,0,1-2.3,1.39,206.18,206.18,0,0,0,18,22.66c26.63,29.29,56.5,55.3,77.93,72.73Zm-88.11-41.7a3.36,3.36,0,1,1,.32-4.74A3.37,3.37,0,0,1,181.86,148.21Zm9.95-8.7a3.36,3.36,0,1,1,.31-4.74A3.37,3.37,0,0,1,191.81,139.51Zm9.94-8.7a3.36,3.36,0,1,1,.31-4.74A3.37,3.37,0,0,1,201.75,130.81Zm9.94-8.7a3.36,3.36,0,1,1,.31-4.74A3.37,3.37,0,0,1,211.69,122.11Z" transform="translate(0 0)"/><path class="cls-8" d="M304.15,206.77c18.42-1.84,45.73,22.38,48.48,20,2-1.77-49.51-64.62-89-69.51a26.59,26.59,0,0,0-11.36,1c15.71,23.26,27.63,43.53,33.89,54.56A39.88,39.88,0,0,1,304.15,206.77Z" transform="translate(0 0)"/><path class="cls-8" d="M209.26,204.52c-.4,39.77,55.05,99.19,57.07,97.41,2.73-2.39-17.65-32.69-13.39-50.7a39.92,39.92,0,0,1,8.36-17c-10.11-7.67-28.61-22.18-49.58-40.84A26.47,26.47,0,0,0,209.26,204.52Z" transform="translate(0 0)"/><path class="cls-9" d="M645.41,482.8a57.28,57.28,0,0,0-23.73,5.12,70.51,70.51,0,0,0-43.1-38.7v-.47h-.74a66.77,66.77,0,0,0-61-60.81,38.86,38.86,0,0,0-38-46.51,38.68,38.68,0,0,0-29.52,13.65,61.35,61.35,0,0,0-74.42-32l-89.68-93.55-6.63,6.05,77.88,95.53a85.29,85.29,0,0,0-110.33,80.42,84.91,84.91,0,0,0,2.29,19.19,5.76,5.76,0,0,0-1.34.81c-.45.36-.45.25-.89.63a93.12,93.12,0,0,0-40.57,76.93,94.18,94.18,0,0,0,1.72,17.81H701.36A57.56,57.56,0,0,0,645.41,482.8Z" transform="translate(0 0)"/></g><g id="Layer_8" data-name="Layer 8" class="cls-3"><path class="cls-10" d="M651.72,239.56c-1.55,1.86-3.41,2.87-4.87,1.64h0c-1.47-1.23-.8-3.23.76-5.09L710,160.46c1.55-1.85,4-2.36,5.47-1.13h0c1.46,1.22,1.39,3.73-.17,5.58Z" transform="translate(0 0)"/><path class="cls-10" d="M691.6,134.7c-17.72,2.24-41.71,7.39-57.75,19.27-14.93,11.05-29.13,26.43-36.71,38.15-5.26,8.13,1.33,10.41,5,6S619,183.93,643,185.63a68.24,68.24,0,0,1,15.45,2.67C664.71,177.43,677.58,155.67,691.6,134.7Z" transform="translate(0 0)"/><path class="cls-10" d="M734.41,238.25c8.89-17.87,9.77-42.39,8.88-60.23-18.2,17.47-37.37,33.95-47,42a68.06,68.06,0,0,1,5.32,14.74c5.87,23.34-1.54,38-5.2,42.4s-.26,10.45,6.82,3.86C713.48,271.56,726.14,254.89,734.41,238.25Z" transform="translate(0 0)"/><path class="cls-10" d="M776.48,139.14l-52.4-43.91A256.76,256.76,0,0,0,705,119.12l51.31,43A257.38,257.38,0,0,0,776.48,139.14Z" transform="translate(0 0)"/><path class="cls-10" d="M777.8,137.48c.87-1.18,1.71-2.34,2.47-3.46,21.69-31.85,17-72.15,16.91-72.79-.64,0-41.15,2.45-68.71,29.37-1,1-2,2-3,3Z" transform="translate(0 0)"/><polygon class="cls-10" points="668.16 209.01 656.54 199.27 655.41 206.36 664.25 213.77 668.16 209.01"/><polygon class="cls-10" points="663.32 214.91 659.09 211.37 653.39 214.62 659.41 219.66 663.32 214.91"/><path class="cls-10" d="M703.85,120.59c-23.77,33.11-47.85,76-47.85,76l13.24,11.09,40.14-48.87A5,5,0,1,1,717,165.2l-41.12,48.06,12.7,10.64s38-31.21,66.49-60.4Z" transform="translate(0 0)"/><polygon class="cls-10" points="670.76 219.22 679.67 226.69 686.46 224.34 674.77 214.54 670.76 219.22"/><polygon class="cls-10" points="669.81 220.35 665.81 225.03 671.88 230.12 674.09 223.94 669.81 220.35"/><path class="cls-10" d="M664.49,225.89l-13.14,15.23a3.19,3.19,0,0,1-3,1.7c-3.38,0-4.23-3.93-2.54-5.9l0,0,12.75-15.14a2.88,2.88,0,0,1,.43-.56l-1.51-1.29L462.87,430.11a51.91,51.91,0,0,1,1,10c0,1.73-.09,3.43-.25,5.12a55.42,55.42,0,0,1,27.81.68L666.25,227.41Z" transform="translate(0 0)"/><path class="cls-10" d="M874,381.67a57.7,57.7,0,0,0-74.83,55.07,58.36,58.36,0,0,0,.37,6.51A53,53,0,0,0,739.76,479a40,40,0,0,0-63.59,26.9,36.67,36.67,0,0,0-51.82,21H874Z" transform="translate(0 0)"/></g><g id="Layer_6" data-name="Layer 6" class="cls-3"><path class="cls-11" d="M466.63,268.37c.07-.17.14-.34.22-.5l.33-.73.3-.65c.09-.21.19-.43.29-.64l.37-.85.27-.6c.17-.39.35-.77.51-1.16.08-.16.15-.32.22-.48s.25-.58.38-.87l.22-.51.36-.83c.08-.18.15-.35.22-.53l.35-.8c.07-.18.15-.35.22-.53s.22-.53.33-.78l.21-.51c.13-.3.25-.59.37-.89l.15-.35.48-1.21c0-.09.07-.17.1-.27l.35-.87.15-.42c.09-.23.18-.46.26-.68a4.29,4.29,0,0,0,.15-.42c.08-.21.16-.42.23-.63l.14-.39c.07-.2.13-.39.2-.58l.12-.36.18-.57c0-.09.06-.18.08-.27.07-.27.15-.52.21-.76l0-.15h0a23.87,23.87,0,0,0-1.19-13.73c-1.25.7-6.85,4.08-9.6,10.09-3,6.47-8.4,29.56-9,32.11l3.64,1.28,3,1.06c.48-1,2.58-5.39,5-10.64h0Z" transform="translate(0 0)"/><path class="cls-11" d="M584.94,110.63a12,12,0,1,0,7,15.23A11.86,11.86,0,0,0,584.94,110.63Z" transform="translate(0 0)"/><path class="cls-11" d="M601,158.41a210.69,210.69,0,0,0,7.67-22.94c8.8-35.65-8.13-69.8-8.4-70.34-.55.26-35.16,16.23-50.66,49.52a212.74,212.74,0,0,0-8.41,22.68Zm-15.17-50.15a14.55,14.55,0,1,1-18.16,9A14.35,14.35,0,0,1,585.78,108.26Z" transform="translate(0 0)"/><path class="cls-11" d="M520.47,202.33c-7.66,12.89-20.25,29.94-29,38-4.6,4.25-10.83,7-14.92,8.53a4.31,4.31,0,0,1-.11.49c-1,3.95-4.74,12.56-8,19.7,4.82-1.3,14.45-3.42,23-2.35a47.59,47.59,0,0,1,12.95,4C505,267.89,511.86,236.76,520.47,202.33Z" transform="translate(0 0)"/><path class="cls-11" d="M592.77,290.39c1.63-6.4-.62-12.55-1.16-13.88a24,24,0,0,0-9.53,9.95h0s-.05.09-.07.14c-.1.22-.21.46-.31.72,0,.08-.07.18-.11.26s-.14.37-.22.56-.09.23-.13.35l-.21.58-.14.39-.22.63c0,.14-.09.28-.14.42s-.15.46-.23.69-.08.29-.13.43c-.1.29-.19.6-.29.9,0,.09,0,.18-.08.28-.13.4-.25.81-.38,1.23,0,.13-.07.25-.11.37l-.27.93-.15.52-.24.82c0,.18-.1.37-.16.55s-.15.55-.23.83l-.16.58-.23.83-.15.56c-.09.3-.17.61-.25.91s-.09.35-.14.52l-.33,1.22c0,.21-.11.42-.16.63l-.24.9-.18.69-.18.69c-.06.26-.13.51-.19.77l-.14.53c0,.13-.07.27-.1.41h0c-1.43,5.59-2.55,10.33-2.8,11.41l3,1.05,3.64,1.28C580.77,318.68,591,297.29,592.77,290.39Z" transform="translate(0 0)"/><path class="cls-11" d="M580.17,285.91c.07-.16.15-.31.23-.46-2.24-3.74-5.35-9.8-6.27-16-1.69-11.34-.92-31.44,1-46.17-14.57,31.47-28.28,59.1-29.65,61.87A46.94,46.94,0,0,1,557.65,290c7.29,4.5,13.47,12.19,16.4,16.22C576,298.66,578.48,289.61,580.17,285.91Z" transform="translate(0 0)"/><path class="cls-11" d="M534.09,256.79a1.91,1.91,0,0,1,.76,1.32l14.79-41.85a1.14,1.14,0,0,0-2.12-.75L533,256.7A1.12,1.12,0,0,1,534.09,256.79Z" transform="translate(0 0)"/><path class="cls-11" d="M532.8,272.77l.09-.29c.08-.23.15-.45.22-.67s0-.17.08-.25c.09-.28.17-.55.23-.8s.2-.78.29-1.16c0-.17.06-.33.09-.49s.09-.44.12-.66.06-.4.09-.6,0-.35.07-.52l.06-.69c0-.13,0-.27,0-.4s0-.51,0-.77c0-.09,0-.18,0-.28,0-.28,0-.56,0-.83v-.17c0-.32,0-.61,0-.9v-.06c0-1-.08-1.79-.18-2.57a2,2,0,0,1,0-.37c0-.67-.21-1.56-.63-1.82a1.21,1.21,0,0,0-1.31-.12l-.19.14c-.28.23-.41.35-.74.65h0a28.91,28.91,0,0,0-2.3,2.35l-.18.21-.62.75-.18.23c-.26.33-.52.68-.77,1l-.06.09c-.23.32-.45.67-.66,1l-.21.35c-.17.29-.34.58-.5.88-.07.13-.14.25-.2.38-.22.41-.43.84-.62,1.29-.11.23-.21.49-.32.77,0,.08-.07.17-.11.26s-.16.41-.24.63-.08.21-.11.32l-.27.75a2.67,2.67,0,0,0-.09.26c-.13.37-.26.74-.39,1.13l0,.05-.38,1.16a3,3,0,0,1-.1.32c-.11.33-.21.66-.32,1,0,.11-.07.23-.11.35-.1.35-.22.71-.33,1.07l-.09.31c-.14.44-.27.89-.41,1.35l0,.09c-2.67,8.95-5.54,20.1-6,21.82l5.32,1.87c.73-1.62,5.49-12.1,9-20.74h0l.58-1.44.05-.11c.16-.41.32-.81.47-1.21l.12-.29c.14-.35.27-.7.4-1a2,2,0,0,1,.1-.26c.32-.83.61-1.62.87-2.35l.08-.21Z" transform="translate(0 0)"/><path class="cls-11" d="M540,139.4c-14.5,45.79-32,125.12-33.49,131.68l14,4.94a83.81,83.81,0,0,1,3.33-10,23.61,23.61,0,0,1,7.32-9.27l.36-.15c0-.17,14.64-42.4,14.64-42.4.36-1,2.23-1.31,3.5-.86A2.26,2.26,0,0,1,551.3,216l-15.63,44.32a22.31,22.31,0,0,1-.09,9.82,85.82,85.82,0,0,1-3.67,9.87l11.71,4.12c3-6,39.07-78.81,56.49-123.57Z" transform="translate(0 0)"/><path class="cls-11" d="M873.5,328.41a50.72,50.72,0,0,0-30.33,10,51,51,0,0,0-81,35.54c-.42.91-.82,1.84-1.2,2.77a54.69,54.69,0,0,0-5.76-.31h-.69a57.16,57.16,0,0,0-53.71,3.19,60.29,60.29,0,0,0-13.48,8.74,34.19,34.19,0,0,0-19-5.9,57.56,57.56,0,0,0-8.14-.58,56.81,56.81,0,0,0-28.85,7.83l-1.41-.36a56,56,0,0,0-105.25,15.55,83.85,83.85,0,0,0-35.33,12.68l42.34-135.33-1.17-.33-8.67,21.16-7.83-2.5,5.5-22-1.33-.16L448.05,457.69a56.59,56.59,0,0,0-69.93,69.22H698.75a40.21,40.21,0,0,0,9.08-25.5,40.63,40.63,0,0,0-.33-5.08A34.67,34.67,0,0,0,752.18,483c1,.06,2,.09,3,.09a53.34,53.34,0,0,0,53-47.45h.45v-5.41c1.39.11,2.8.19,4.21.19a50.74,50.74,0,0,0,30.34-10,50.73,50.73,0,0,0,30.33,10l.5,0v-102Z" transform="translate(0 0)"/></g><g id="Layer_5" data-name="Layer 5" class="cls-3"><rect class="cls-12" x="426.18" y="111.02" width="8.32" height="8.5" transform="translate(-0.55 2.08) rotate(-0.28)"/><rect class="cls-12" x="442.83" y="110.93" width="8.33" height="8.5" transform="translate(-0.56 2.2) rotate(-0.28)"/><rect class="cls-12" x="459.48" y="110.85" width="8.32" height="8.5" transform="translate(-0.54 2.18) rotate(-0.27)"/><rect class="cls-12" x="476.12" y="110.77" width="8.32" height="8.5" transform="translate(-0.55 2.32) rotate(-0.28)"/><rect class="cls-12" x="434.46" y="102.48" width="8.32" height="8.5" transform="translate(-0.52 2.16) rotate(-0.28)"/><rect class="cls-12" x="451.11" y="102.4" width="8.32" height="8.5" transform="translate(-0.52 2.24) rotate(-0.28)"/><rect class="cls-12" x="467.76" y="102.32" width="8.32" height="8.5" transform="translate(-0.52 2.33) rotate(-0.28)"/><rect class="cls-12" x="426.1" y="94.02" width="8.32" height="8.5" transform="translate(-0.47 2.07) rotate(-0.28)"/><rect class="cls-12" x="442.75" y="93.94" width="8.33" height="8.5" transform="translate(-0.47 2.15) rotate(-0.28)"/><rect class="cls-12" x="459.39" y="93.86" width="8.32" height="8.5" transform="translate(-0.45 2.17) rotate(-0.27)"/><rect class="cls-12" x="476.04" y="93.78" width="8.32" height="8.5" transform="translate(-0.49 2.42) rotate(-0.29)"/><path class="cls-12" d="M447.75,209.85a49.44,49.44,0,0,0-13.29,21.4l42.93-.21a49.38,49.38,0,0,0-13.64-21.27Z" transform="translate(0 0)"/><path class="cls-12" d="M447.74,207.73c-4.71-1.49-10.37-3.85-13.42-7.2l42.92-.21c-3.06,3.38-8.76,5.79-13.5,7.33Z" transform="translate(0 0)"/><path class="cls-12" d="M486.88,159.44s13.37,10.92,19.7,19.35a215.13,215.13,0,0,1,12.66,19.7l.1,22.27A107.56,107.56,0,0,0,504,207.34a76.71,76.71,0,0,0-17-8.76Z" transform="translate(0 0)"/><path class="cls-12" d="M424.31,159.75s-13.27,11-19.51,19.54a212.14,212.14,0,0,0-12.46,19.82l.1,22.26a107.18,107.18,0,0,1,15.27-13.56,76.73,76.73,0,0,1,16.91-8.93Z" transform="translate(0 0)"/><path class="cls-12" d="M426.69,184.85c0,8.64.07,13.85.07,13.85l29-.15h0l29-.14s0-5.2-.06-13.84Z" transform="translate(0 0)"/><path class="cls-12" d="M426.38,121c.13,27,.22,45.58.3,61.83l58.06-.28c-.08-16.25-.17-34.82-.3-61.83Z" transform="translate(0 0)"/><path class="cls-12" d="M484.27,92c-.93-49.75-29.33-71.17-29.33-71.17h-.35s-27.88,21.7-28.32,71.45Z" transform="translate(0 0)"/><path class="cls-13" d="M460,420.36,458.63,234l-6.73,0-10,163.48A52.46,52.46,0,0,1,460,420.36Z" transform="translate(0 0)"/><path class="cls-14" d="M311.16,454.28a64.67,64.67,0,0,0-94.52-81,42.63,42.63,0,0,0-57.09,12.05,61.12,61.12,0,1,0-15.69,104.56c0,.4,0,.8,0,1.2a59.68,59.68,0,0,0,11.9,35.84H357.55a60,60,0,0,0-46.39-72.63Z" transform="translate(0 0)"/></g></g></svg>