<svg xmlns="http://www.w3.org/2000/svg" viewBox="0 0 50 50"><defs><style>.cls-1,.cls-2{fill:#7dcb87;}.cls-2{stroke:#f2f2f2;stroke-miterlimit:10;}.cls-3,.cls-4{fill:#fff;}.cls-4{fill-rule:evenodd;}</style></defs><g id="Layer_2" data-name="Layer 2"><rect class="cls-1" width="50" height="50"/></g><g id="Layer_1" data-name="Layer 1"><circle class="cls-2" cx="25" cy="25" r="23.13"/><path class="cls-3" d="M9,19a17.75,17.75,0,0,1,32.46-2.15.29.29,0,0,0,0,.09v0a9.77,9.77,0,0,0-2.22,1c-4.26-5.83-11.72-9.11-19.41-5.46A13.85,13.85,0,0,0,31.56,37.53c.85-.4,1,1.8,1.8,1.22a13.77,13.77,0,0,0,2.09-1.94L39,36.68a17.48,17.48,0,0,1-2.67,2.5A17.75,17.75,0,0,1,9,19Z"/><path class="cls-4" d="M16.06,39.9c7.3,5.13,12.27,1.41,16.76.43,3.57-.77,7.23-4.23,8.61-6,.2-.27,1.35-1.41,0-1.66-.78-.15-1.84,1.07-3.75,2.35s-3.43,2-7.38,2.61c-.87.12-3,.14-3.28-1-.2-.79,1.05-1.69,2.11-2.57,2.61-2.17.9-5.27-.09-3.76-1.46,2.22-2.09,2-4.86,3.79a11.51,11.51,0,0,0-3.71,3.67c-1.71,2.86-7.38-1.48-4.46,2.1Zm16.86-3.31a14.49,14.49,0,0,0,2.22-.66c.77-1.32,1.54-2.7,1.26-3s-1.45-.16-2.57,2.13a11.49,11.49,0,0,1-.91,1.52Zm2.53-.79a15.42,15.42,0,0,0,2.2-1.22q.43-.27.81-.54c.6-1,1.07-1.89.85-2.12-.37-.42-1.45-.21-2.64,2a13,13,0,0,1-1.22,1.84ZM30.86,37c.67-.1,1.27-.2,1.8-.31.67-1.15,1.32-2.33,1.08-2.58S32.41,33.91,31.4,36a9.52,9.52,0,0,1-.54,1Z"/></g></svg>