<svg xmlns="http://www.w3.org/2000/svg" viewBox="0 0 828.66 346.83"><defs><style>.cls-1{isolation:isolate;}.cls-19,.cls-2,.cls-4{fill:#fff;}.cls-3{fill:#495ba9;opacity:0.2;}.cls-11,.cls-4{opacity:0.5;}.cls-5{fill:#282660;}.cls-6{fill:#2e3192;}.cls-7{fill:#e5846f;}.cls-8{fill:#f79e8c;}.cls-9{fill:#fdbc56;}.cls-10{fill:#faa228;}.cls-11,.cls-14{fill:#bcbec0;}.cls-12,.cls-13{fill:#beb9dc;}.cls-13{mix-blend-mode:multiply;}.cls-15{fill:#01706b;}.cls-16{fill:#00a79d;}.cls-17{fill:#0c8881;}.cls-18{fill:#e6e7e8;}.cls-19{opacity:0.8;}</style></defs><g class="cls-1"><g id="Capa_1" data-name="Capa 1"><rect class="cls-2" width="828.66" height="346.83"/><rect class="cls-2" width="828.66" height="346.83"/><rect class="cls-3" width="828.66" height="346.83"/><rect class="cls-4" y="255.05" width="828.66" height="91.78"/><path class="cls-5" d="M416.23,127.28s5.84.21,12.22,6.51a6.43,6.43,0,0,1-4.74,3.67Z"/><path class="cls-5" d="M406,127.52s6.44-4.09,14.49,1.62,5.78,20.35,3.58,27.68a16.19,16.19,0,0,1-17.7,1S402.63,130.65,406,127.52Z"/><path class="cls-5" d="M411.61,126.49s.88-4.35,4.13-4.37a2.26,2.26,0,0,1,1.77,3.42c-.95,2.33-2.12,1.65-2.12,1.65l-.59-.34s2.27-2.26.75-3c0,0-1.93-.91-3.4,2.8Z"/><path class="cls-6" d="M407.54,133.94s17.56,3.62,11-24l-7.11,12.93Z"/><path class="cls-6" d="M390.84,124.35s-3.82-17.7.47-23.82,3.38,2.51,3.38,2.51,4.89,15.31,5.1,15.64-1.45,6.77-1.45,6.77Z"/><path class="cls-7" d="M392.6,125.24c-2,2.77-1.51,2-15.69,23.41-3.33,5-2.79,6.34.75,6.23s13.54-8.17,14.17-14.14S392.6,125.24,392.6,125.24Z"/><path class="cls-7" d="M384.88,150s-11.52,14.68-29,17.67c0,0-4-.64-1.14-3.72s6.77-1,20.68-15C381,143.25,384.88,150,384.88,150Z"/><path class="cls-5" d="M396.43,265.47s.79.41.79.67a27.7,27.7,0,0,1,.17,4.4c-.21.62-11,1.7-11,1.7s-5.45-.32-6-1-.31-1.23,0-1.32,12.95-4.76,12.95-4.76Z"/><path class="cls-8" d="M396.08,261s-.18,5.38-.23,5.52c-.28.81-2.52.85-3.18.18l-.73-5.46Z"/><path class="cls-5" d="M385.5,167.76c-5.27,12-4.1,42-.79,58.53,0,0,9.46-1.18,10.79-5.3s3.64-50.45,3.64-50.45S393.29,150,385.5,167.76Z"/><path class="cls-5" d="M393.38,212.82s2.61,9.63,3,11,.31,29.66.26,39.57c0,0-3.59,1.8-4.78,0-1.84-2.81-8-40.88-8-40.88Z"/><path class="cls-5" d="M411.55,271s.8.4.8.67a28.29,28.29,0,0,1,.22,4.39c-.21.62-11,1.81-11,1.81s-5.45-.27-6-1-.32-1.23,0-1.32,12.9-4.88,12.9-4.88Z"/><path class="cls-8" d="M411.36,266.05s.13,5.42.1,5.51c-.25.82-2.58.88-3.27.25l-1.36-5.21Z"/><path class="cls-6" d="M400.23,168.77c-.13,2-14.56.45-14.69,2.47-.49,7.6,3.91,22.25,8.59,34.42a550.81,550.81,0,0,0,12.74,62.66c.72,2.87,5.63.11,5.63.11.51-18.4.51-73.22,2.07-77,3.6-8.87,0-10-2.63-20.41C409.66,162.07,405.24,168.72,400.23,168.77Z"/><path class="cls-8" d="M407.81,108.86c-.63,2.26-.11,4.38,1.17,4.74s2.83-1.17,3.47-3.43.12-4.38-1.16-4.74S408.45,106.61,407.81,108.86Z"/><path class="cls-2" d="M412.84,173.21s-4.5-12.47-4.66-19.23l6.39-24.15v-3.48s-2.37-2-10.07-2.65a32.94,32.94,0,0,0-11.9,1.54s-5.49,5.64-6.8,10.56c-.81,3.07.66,12.68.33,14.94-.45,3.13-1.82,20.16-2.23,22.32S394.47,178.87,412.84,173.21Z"/><path class="cls-5" d="M410.35,157.86l-.87.06s-7.83-25-2.28-32.55l3.31-.67S406.32,124.74,410.35,157.86Z"/><path class="cls-9" d="M422.49,191.73a2,2,0,0,1-2.28,1.64l-29.1-5.65a2,2,0,0,1-1.5-2.38l3.63-18.68a2,2,0,0,1,2.28-1.65l29.1,5.65a2,2,0,0,1,1.49,2.38Z"/><path class="cls-10" d="M424.62,170.66l-.47-.09c-4.83,8-13.72,13.72-22,16.54-1.8.61-3.64,1.2-5.5,1.7l23.52,4.56a2,2,0,0,0,2.28-1.64L426.11,173A2,2,0,0,0,424.62,170.66Z"/><path class="cls-2" d="M410,179.6A2.14,2.14,0,1,1,408.3,177,2.2,2.2,0,0,1,410,179.6Z"/><path class="cls-7" d="M410.67,124.71a45,45,0,0,0-5.38-1.07c-.79.06-6.37-.15-9.52.79-1.95.59-1.47,8.36-1.27,8.55S403.53,130.34,410.67,124.71Z"/><path class="cls-7" d="M408.18,111.59s-2.11,8.2-2.4,12.9c0,0-3.72,3.33-6.93.25,0,0-1.24-12.32-3.86-14.2S408.18,111.59,408.18,111.59Z"/><path class="cls-8" d="M415,126.88c-1.9-3.73-3.82,6.22-3.82,6.22-1,12-1,17.92.69,28.77-1.73,16.75-3.59,22.64-3.59,22.64L407,186.4l1.18.72c-1.14,1.18.13,1.14,1.45.88l1,.61.26-.9c.48-.13.82-.24.82-.24C418.62,177.26,424,144.65,415,126.88Z"/><path class="cls-8" d="M407.68,94.45s-9.38-4.77-15,.74c0,0-1.25,9-.65,14.35s1.09,9.21,5,9.48c0,0,11.11-.35,12.63-8C411,104.22,410.29,96.2,407.68,94.45Z"/><path class="cls-7" d="M357.76,161.75a8.21,8.21,0,0,0-6.18-1c-3.5.86.37,1.42,8,3.49Z"/><path class="cls-7" d="M355.76,161.09a27.76,27.76,0,0,0-4.75,1.55,29.53,29.53,0,0,0-4.8,2.37c-1.23.69.17.92.24,1s-.2,0,0,.39a2.46,2.46,0,0,0,.92.81l1.22.53c1.47.64,4.22,1.88,9.7-.61C358.26,167.1,359.31,162.17,355.76,161.09Z"/><path class="cls-6" d="M416.74,102.91c-3.08-8.62-5.23-12-11.82-11.28l-.11,0c-2.63-.82-8.73,0-8.73,0s-6.25,1.17-8,4.94,3.27,5.33,3.27,5.33a55.19,55.19,0,0,1,3.16-5.63c.37,1.58,2.2,3.42,9,2.8,0,0,1.26.21,0,1.78s.25,6.5,6.62,4.56c0,0,1.16,2.25-.63,6.26,0,0-12.08,15.85-9.69,20.7s3.7-4.5,12.91-7C420,123.41,420.33,113,416.74,102.91Z"/><path class="cls-6" d="M390.57,133.11A23.9,23.9,0,0,0,397,127.5c2.62-3.45,2.36-5.14,0-7.59s-5.72.73-5.72.73S387,130.38,390.57,133.11Z"/><path class="cls-8" d="M408.15,184.13a7.49,7.49,0,0,0-4,4c-1.57,3.27.92.7,6.34-3.68Z"/><path class="cls-8" d="M404.14,191.4l.58.31a8.42,8.42,0,0,0,3.93.75,17.33,17.33,0,0,0,3-4.92s-1.38-4.61-4.1-3.16a34.74,34.74,0,0,0-2.4,4.33c-.57,1.21-.9,1.94-1.15,2.54Z"/><path class="cls-7" d="M367.88,164.31a6.7,6.7,0,0,1,4.91,1.43c2.29,1.86-.78.92-7.15-.21Z"/><path class="cls-7" d="M367.92,164.76a23.37,23.37,0,0,1,3.71,1.72,24.17,24.17,0,0,1,3.66,2.39c.93.68-.22.73-.28.77s.15,0,0,.32a2,2,0,0,1-.82.57l-1.05.31c-1.25.38-3.6,1.12-7.81-1.44C365.31,169.4,364.93,165.3,367.92,164.76Z"/><path class="cls-10" d="M338.73,126.76s-6.53-5.15-9.6-1.93c-6.94,7.25,2.86,34.6,35.8,45.34,0,0,5.08-3.91,2.52-6.41-4.3-4.21-9.75-6.43-16.05-16.2C348.51,143.08,346.17,133.37,338.73,126.76Z"/><path class="cls-6" d="M314.37,95.25l0,.09c-.45,1.06-4.58,11.36,1.71,14.33l-1.68-14.39"/><path class="cls-5" d="M326.81,269.7s-.79.39-.8.65a27.78,27.78,0,0,0-.21,4.34c.2.61,10.85,1.78,10.85,1.78s5.38-.26,5.94-1,.32-1.22,0-1.31-12.73-4.82-12.73-4.82Z"/><path class="cls-5" d="M314.52,272.21s-.79.39-.79.66a26.55,26.55,0,0,0-.21,4.34c.2.61,10.84,1.78,10.84,1.78s5.38-.26,5.94-1,.33-1.21,0-1.3-12.73-4.82-12.73-4.82Z"/><path class="cls-8" d="M314.71,267.28s-.13,5.35-.1,5.45c.25.81,2.55.86,3.23.24l1.34-5.15Z"/><path class="cls-8" d="M326.57,265.26s-.09,5.32-.05,5.46c.24.81,2.45,1,3.13.34l1-5.35Z"/><path class="cls-5" d="M340.81,169.63s-1.71,38.57-3.57,56.64c0,0-9.71-1.58-10.7-5.73s.87-48.77.87-48.77Z"/><path class="cls-6" d="M325.69,171.24c.13,2,14.31-.89,14.44,1.12.49,7.49-11.49,28.45-11.47,28.72-4.66,32.31-7.79,61.64-9.52,68.45-.72,2.82-5.56.1-5.56.1-1-36.73-1.72-95.35-1.72-95.35C315.5,171.86,320.74,171.19,325.69,171.24Z"/><path class="cls-9" d="M326.58,123.1s-11.14-.66-17.34,4.77c0,0-.23,38.11,2.62,46.26,0,0,18.35,8.94,29.1-1.4,0,0,4.31-33.3-1.79-44.76C339.17,128,338.05,123.36,326.58,123.1Z"/><path class="cls-7" d="M317.07,112.16a92,92,0,0,1,2.37,12.74s3.67,3.28,6.84.24c0,0,1.23-12.16,3.82-14S317.07,112.16,317.07,112.16Z"/><path class="cls-8" d="M317.56,95.24s12.25-3.79,17.84,1.65c0,0-1,6.86-1.57,12.12s-1.85,10.22-5.74,10.49c0,0-11-.34-12.46-7.86C314.28,104.88,315,97,317.56,95.24Z"/><path class="cls-8" d="M317.43,109.47c.63,2.22.12,4.32-1.15,4.67s-2.79-1.15-3.42-3.38-.12-4.32,1.14-4.68S316.8,107.24,317.43,109.47Z"/><path class="cls-6" d="M359.1,172a2.51,2.51,0,0,1-2.58,2.44H326.39a2.51,2.51,0,0,1-2.58-2.44V152.7a2.51,2.51,0,0,1,2.58-2.44h30.13a2.51,2.51,0,0,1,2.58,2.44Z"/><rect class="cls-2" x="325.52" y="152.7" width="32" height="18.85"/><path class="cls-11" d="M356.89,153.66c0,.11,0,.21-.07.32a9.38,9.38,0,0,1-.84,2.17,16.9,16.9,0,0,1-2.18,3.18,20.43,20.43,0,0,1-2.23,2.33,26.76,26.76,0,0,1-3.36,2.55l-.09,0-.25.19a21.89,21.89,0,0,1-2,1.28,20.25,20.25,0,0,1-2.08,1.05l-1,.42a13.73,13.73,0,0,1-1.37.72,17.58,17.58,0,0,1-3.53,1.3c-.73.17-1.46.3-2.2.41a36.64,36.64,0,0,1-4.42.71,36,36,0,0,1-3.6.21h-.09l-.84.16-.22,0v.45h30.38v-17.6Z"/><path class="cls-2" d="M342,151.54a.59.59,0,0,1-1.17,0,.59.59,0,1,1,1.17,0Z"/><polygon class="cls-12" points="373.54 179.74 338.26 179.74 323.81 172.12 359.1 172.12 373.54 179.74"/><path class="cls-13" d="M359.31,172.23c-.19.18-.39.36-.6.53a26.29,26.29,0,0,1-5,3.25c-1.16.56-2.36,1.06-3.56,1.54-.87.35-1.74.71-2.62,1a12.44,12.44,0,0,1-2.5.66,27.53,27.53,0,0,1-3.74.36,29.23,29.23,0,0,1-3.63-.2l.62.33h35.28Z"/><polygon class="cls-5" points="338.26 179.74 338.26 180.81 323.81 173.19 323.81 172.12 338.26 179.74"/><rect class="cls-5" x="338.26" y="179.74" width="35.29" height="1.07"/><path class="cls-8" d="M331.81,174.93a6.14,6.14,0,0,1,4.53,2.14c2,2.27-.79.89-6.71-1.11Z"/><path class="cls-8" d="M331.83,175.41a23.29,23.29,0,0,1,3.37,2.31,25.83,25.83,0,0,1,3.29,3c.83.84-.26.76-.32.79s.14,0,0,.34a1.79,1.79,0,0,1-.81.51l-1,.2c-1.2.25-3.46.75-7.25-2.51C329.07,180.06,329,175.62,331.83,175.41Z"/><path class="cls-9" d="M315.47,131.36s-5.44-7.17-7-2.82c-6.5,17.92,1.84,49.4,21.51,52.73a6,6,0,0,0,2.52-5.27c0-3.88-9.77-12.75-9.77-12.75C323.05,155.2,320.25,140.84,315.47,131.36Z"/><path class="cls-5" d="M329.48,218.36s-2.56-.43-2.94,1-.54,39.2-.54,49c0,0,3.54,1.79,4.72,0,1.83-2.77,6.52-42,6.52-42Z"/><path class="cls-6" d="M314.53,92.73c16.48-5.39,24.27,0,24.27,0-.19,2.29-4.89,6.12-6.67,6.43s-10.55-.69-13-1.31c-1.79-.46-1.85,2-1.76,3.43l0,.34c0,.32.06.53.06.53a8.8,8.8,0,0,1,0,2.81c0,2.78,0,6,.69,7.79.61,1.54,2.64,2.46,5,2.81,1.15-1.56,6.57-8.42,10.56-4.41h0a.91.91,0,0,1,.18.22c.8,1.24-.18,5.71-.68,7.12-1.26,3.6-12.15,1-14.67,0a3.66,3.66,0,0,1-2.21-4.32,14.52,14.52,0,0,0-.16-5.45h0a14,14,0,0,0-1.4-2.94l-.7-2.53C312.47,98.85,314.53,92.73,314.53,92.73Z"/><path class="cls-10" d="M639.09,118.93s-1.79,9.68,2.18,12.25c3.48,2.26,22.2,1.11,30.21-16.36,3.69-8-18-20.31-25.8-20.71,0,0-7.72-.26-2.39,6.22a56.85,56.85,0,0,0,14,12C656.21,111.27,638.05,115.86,639.09,118.93Z"/><path class="cls-7" d="M641.6,96.94a8.83,8.83,0,0,1-2.31-6.79c.4-4.16,1.37-1,4.57,7.75Z"/><path class="cls-7" d="M641.6,96.94a38.08,38.08,0,0,1-.72-5.85,38.09,38.09,0,0,1,0-6.25c.08-1.64.94-.23,1-.17s-.08-.22.35-.2a2.52,2.52,0,0,1,1.18.64c.18.18,1,.64,1.3.92,1.28,1.31,3.39,2.82,3.56,9.87C648.31,95.9,644.24,100.31,641.6,96.94Z"/><path class="cls-5" d="M634.91,265s-.78.39-.79.66a27.71,27.71,0,0,0-.21,4.34c.2.61,10.84,1.78,10.84,1.78s5.39-.26,6-1,.32-1.21,0-1.3S638,264.71,638,264.71Z"/><path class="cls-5" d="M626.29,267.21a7.94,7.94,0,0,1-1.78.63,5.92,5.92,0,0,1-1.76-.4s2.1-1.22-1.5-.05c0,0-10,6.45-9.88,6.82s2.39,1.52,8.56.34c0,0,5.48-2,6.45-2.91C626.54,271.5,627.12,267.69,626.29,267.21Z"/><path class="cls-8" d="M622.82,262.59s-.14,5.35-.11,5.45c.26.81,2.55.86,3.24.25l1.34-5.15Z"/><path class="cls-8" d="M634.68,260.58s-.09,5.32,0,5.45c.24.81,2.45,1,3.13.34l1-5.34Z"/><path class="cls-14" d="M648.92,165s-1.71,38.57-3.57,56.63c0,0-9.72-1.58-10.7-5.73s.87-48.76.87-48.76Z"/><path class="cls-2" d="M633.8,166.55c.13,2,14.31-.88,14.44,1.12.49,7.5-11.49,28.45-11.48,28.72-4.65,32.32-7.78,61.65-9.51,68.45-.72,2.83-5.56.1-5.56.1-1-36.72-1.72-95.35-1.72-95.35C623.61,167.17,628.85,166.5,633.8,166.55Z"/><path class="cls-9" d="M634.69,118.42s-8.65-.8-14.86,4.62c0,0-4,28.49.14,46.4,0,0,18.35,8.95,29.1-1.39,0,0,5.95-29.71-.15-41.17C648.92,126.88,646.16,118.67,634.69,118.42Z"/><path class="cls-7" d="M641.35,107.48A92.11,92.11,0,0,0,639,120.21s-3.68,3.29-6.85.25c0,0-1.22-12.16-3.81-14S641.35,107.48,641.35,107.48Z"/><path class="cls-8" d="M639.59,90S627,87.88,622.14,94c0,0,1.88,6.67,3.17,11.8s3.2,9.88,7.09,9.63c0,0,10.82-1.81,11.3-9.46C644.14,99.11,642.38,91.37,639.59,90Z"/><path class="cls-14" d="M637.59,213.68s-2.56-.44-2.94.95-.54,39.21-.54,49c0,0,3.53,1.8,4.72,0,1.83-2.76,6.52-42,6.52-42Z"/><path class="cls-9" d="M626,129.78s1.67-5.89-2.87-7.24c-6.93-2.05-20.08,9.74-21.42,28.92-.62,8.83,22.94,9.69,30.35,7.33,0,0,7.32-2.47,0-6.66-8.23-4.74-16.54-5.52-16.16-5.87A53.46,53.46,0,0,0,626,129.78Z"/><path class="cls-8" d="M634.6,153.44a7.85,7.85,0,0,1,5.53,2.85c2.2,2.77-.29,1.41-7.57-2.16Z"/><path class="cls-8" d="M634.6,153.44a32.9,32.9,0,0,1,3.94,3.17,32.21,32.21,0,0,1,3.68,3.84c.92,1.05-.47.67-.56.69s.18.09-.11.31a2.3,2.3,0,0,1-1.15.28c-.22,0-1,.2-1.39.18-1.61-.08-3.88.19-8.16-4C630.85,157.88,630.88,152.87,634.6,153.44Z"/><path class="cls-6" d="M642.44,94.45s-14.89,8.5-22.15,1.6c0,0-6.82-7.39,0-9.35,0,0,2.87.14,4.73,0s3.68-2.21,4.11-2.65a6.83,6.83,0,0,1,7.29-.48c3.37,2,3.28,3.76,4.34,4s2.44-.63,5.2.81,3,6,1.82,8.93-1.14,5-.56,5.83.51,3.71-2.7,3.93c0,0,1.49-8.13-3-4.47C641.55,102.55,640,97.82,642.44,94.45Z"/><path class="cls-8" d="M641.16,103.72c-.32,2.29.47,4.29,1.76,4.48s2.62-1.52,3-3.81-.47-4.3-1.77-4.49S641.49,101.43,641.16,103.72Z"/><path class="cls-15" d="M586.67,124.77s-6.23-6.6-10.06-3.62c-5.84,4.54-3.87,22.52,11.3,35.09,7,5.78,21.76-13.32,24.21-20.9,0,0,2.31-7.56-5.52-4A58.16,58.16,0,0,0,591.06,142C592.35,141.21,593.65,133.11,586.67,124.77Z"/><path class="cls-7" d="M610.41,130.55a9,9,0,0,1,7.32-.48c4,1.5.65,1.63-8.88,2.46Z"/><path class="cls-7" d="M610.41,130.55a39.42,39.42,0,0,1,6,.84,40.1,40.1,0,0,1,6.18,1.68c1.6.52,0,1-.1,1.06s.24,0,.1.4a2.65,2.65,0,0,1-.94,1c-.23.13-.91.86-1.25,1-1.64.91-3.7,2.6-10.71.9C609.66,137.47,606.37,132.27,610.41,130.55Z"/><path class="cls-5" d="M587,162.32s5.1,38.28,6.19,56.46c0,0-12.24.72-14.22-3.13s-8-48.09-8-48.09Z"/><path class="cls-5" d="M566.47,256.38s-.88.08-1,.32a27.94,27.94,0,0,0-1.75,4c0,.64,9.48,5.55,9.48,5.55s5.12,1.68,5.89,1.23.74-1,.47-1.21-10.16-9.06-10.16-9.06Z"/><path class="cls-5" d="M561.37,267.84s-.79.39-.8.65a29.12,29.12,0,0,0-.21,4.35c.21.6,10.85,1.78,10.85,1.78s5.38-.26,5.94-1,.32-1.21,0-1.3-12.73-4.82-12.73-4.82Z"/><path class="cls-8" d="M561.56,262.91s-.13,5.35-.1,5.45c.25.81,2.54.86,3.23.24l1.34-5.15Z"/><path class="cls-8" d="M567.83,252.16s-2,4.92-2,5.06c-.06.85,1.94,1.78,2.8,1.44l2.84-4.63Z"/><path class="cls-5" d="M586.43,208.31s-4.4.74-5.31,1.9S569.06,244.77,565.83,254c0,0,3.58,3.16,5.58,2,3.07-1.85,21.58-37,21.58-37Z"/><path class="cls-6" d="M572.54,166.9c.13,2,14.31-.89,14.44,1.11.48,7.5-11.5,28.45-11.48,28.72-4.65,32.3-7.78,61.62-9.51,68.43-.72,2.83-5.56.1-5.56.1-1-36.72-1.72-95.32-1.72-95.32C562.35,167.52,567.59,166.85,572.54,166.9Z"/><path class="cls-16" d="M574.62,119.17s-10.93-1.15-12.91,3.94c0,0-4.92,17.64-3,46.83,0,0,19.4,9.71,30.45-.92,0,0,5.28-22.41-2.17-40.78C587,128.24,581.13,119.15,574.62,119.17Z"/><path class="cls-2" d="M567.71,120s11.42,6.48,14.6,12.31c0,0-1.46-9.69-4.67-12Z"/><path class="cls-7" d="M566.85,109.34s.86,7.37.86,10.34c0,1,6.88,2.79,9.69,1,.6-.38.55-8.58.55-8.58Z"/><path class="cls-8" d="M570.65,90.5s9.61-4.4,15.9,1.72a79.6,79.6,0,0,0-.38,10.18c.16,7.27-1.27,13-3.93,13.28,0,0-12.08,1.75-13.77-6.71C567,101.36,567.75,92.45,570.65,90.5Z"/><path class="cls-6" d="M572.09,102.07s-.61-6.18,6.3-7.49,6.44,1.83,11.27-1.14c4-2.47-1.47-2.55-1.47-2.55s2.73-4.6,1.16-4.07-22-3.46-25.15,2.15c-4.21,7.55,2.16,19.59,3.23,21.17S572.09,102.07,572.09,102.07Z"/><path class="cls-8" d="M571,105.94c.7,2.51.13,4.86-1.3,5.27s-3.15-1.31-3.85-3.82-.13-4.86,1.29-5.26c1-.29,2.17.49,3,1.86A7.71,7.71,0,0,1,571,105.94Z"/><path class="cls-8" d="M572.52,183.17a7.65,7.65,0,0,1,3.39,4.67c.82,3.27-1.27.31-6.15-5.08Z"/><path class="cls-8" d="M572.27,183.61a27.22,27.22,0,0,1,2.15,4.12,28.2,28.2,0,0,1,1.68,4.7c.38,1.26-.67.52-.75.51s.12.13-.22.28a2.19,2.19,0,0,1-1.1,0l-1.11-.43c-1.36-.51-3.9-1.44-5.95-6.66C567,186.09,569.29,182.06,572.27,183.61Z"/><path class="cls-16" d="M571.18,128.77s-2.41-9.19-7.2-8.34c-10.79,1.92-19.87,33.73,2.16,66.1,0,0,7-.11,6.36-4.16-1.06-6.8-4.41-12.57-3.64-25.84C569.22,150.43,573.45,139.92,571.18,128.77Z"/><path class="cls-6" d="M271.89,115.12l11-3.5,1.46,1.41s.84,11.57.84,12-.46,3.13-.46,3.13-4.55,0-4.79,0a23.6,23.6,0,0,1-8.05-13.59"/><path class="cls-6" d="M285.76,121.72l-.33-.11a8.36,8.36,0,0,1-3,3.63.47.47,0,0,1-.12.07,9.31,9.31,0,0,1,.24,1.42c0,1.66-7.62,23.88,3.22,23.15s7.3-7.54,9.07-9.57C298.34,136.28,298.91,125.39,285.76,121.72Z"/><path class="cls-9" d="M285.76,121.72s-1.81,2.94-8.6,3.67c0,0,1.69,3,3,2.73S286.39,124.81,285.76,121.72Z"/><path class="cls-7" d="M243.3,177.5a8,8,0,0,0-6,3.09c-2.63,3.21,1.12,1.21,9.06-1.71Z"/><path class="cls-7" d="M242.68,177.58a15.49,15.49,0,0,0-4.26,4.42,37.92,37.92,0,0,0-3.15,5.48c-.77,1.49.63.88.72.89s-.17.13.18.42a2.1,2.1,0,0,0,1.25.3l1.39-.19c1.68-.23,4.64-1.55,8.35-7.59C247.16,181.31,246.48,176.54,242.68,177.58Z"/><path class="cls-7" d="M264.77,128c-1.06-4-5.36,4.2-5.36,4.2-3.84,10.46-5.22,15.76-6.05,26.12-5.71,14.43-9,19.06-9,19.06l-1.76,1.22,1,1.08c-1.44.65-.14,1.07,1.28,1.32l.87.91.47-.72.9.08C256.62,174.64,269.83,147.29,264.77,128Z"/><path class="cls-5" d="M265.08,267s.89.06,1,.31a27.81,27.81,0,0,1,1.86,4c0,.65-9.5,5.81-9.5,5.81s-5.15,1.8-5.94,1.37-.77-1-.5-1.22,10.11-9.38,10.11-9.38Z"/><path class="cls-8" d="M265.05,262.92s.36,5.37.32,5.51c-.2.84-2.43,1.1-3.14.5L261,263.57Z"/><path class="cls-5" d="M264.2,172.51c-9.95,8.59-15.27,51.3-13.68,52.89,0,0,9.06,3,12-.13s23.74-44.53,23.74-44.53S278.89,159.82,264.2,172.51Z"/><path class="cls-5" d="M259.16,214.63l3.64,10.85c.47,1.38,2.05,29.59,2.58,39.48,0,0-3.48,2-4.78.26-2-2.69-10.35-40.35-10.35-40.35Z"/><path class="cls-5" d="M283.12,272.53s.78.42.78.69a28.66,28.66,0,0,1,.06,4.4c-.23.61-11,1.42-11,1.42s-5.44-.45-6-1.17-.28-1.24.05-1.32S280,272.12,280,272.12Z"/><path class="cls-8" d="M282.55,268.16s.14,5.41.11,5.51c-.26.82-2.59.88-3.28.25L278,268.71Z"/><path class="cls-6" d="M271.43,170.88c-.14,2-14.56.45-14.69,2.47-.49,7.6,5,13.93,8.75,22.16,4.72,32.73,10.82,68,12.57,74.92.73,2.87,5.63.11,5.63.11.52-18.4-1-66.51,2.07-75,3.4-10.94-1.94-21.54-2.63-22.35C277.1,166.13,276.44,170.83,271.43,170.88Z"/><path class="cls-8" d="M279,111c-.64,2.26-.12,4.38,1.16,4.74s2.83-1.18,3.47-3.43.12-4.38-1.16-4.74S279.65,108.71,279,111Z"/><path class="cls-2" d="M284.81,175.54s-2.33-10.69-3.71-16.34l4.66-27.26v-3.48s-2.37-2-10.07-2.65a33,33,0,0,0-11.9,1.53s-3.16,7.61-6.43,11.51c-3.77,4.48.21,11.5.9,13.68,3.19,10.05-1.95,20.43-2.36,22.59S266.45,181.2,284.81,175.54Z"/><path class="cls-9" d="M277,125.75a13.14,13.14,0,0,1,8.72,2.71s5.13,29.23,4.48,41.48c0,0-2.11,6.76-19.48,4.95,0,0-4.79-26.83-2-36.57S277,125.75,277,125.75Z"/><path class="cls-7" d="M279.38,113.7s-2.11,8.2-2.41,12.9c0,0-3.72,3.32-6.93.25,0,0-1.24-12.32-3.86-14.21S279.38,113.7,279.38,113.7Z"/><path class="cls-8" d="M281.43,184.75a7.62,7.62,0,0,0-3.13,4.82c-.84,3.52,1.09.47,5.52-5Z"/><path class="cls-8" d="M280.92,185.12a35.37,35.37,0,0,0-1.43,4.75,37.87,37.87,0,0,0-1,5.35c-.2,1.42.62.5.69.48s-.09.16.22.28a1.4,1.4,0,0,0,.93-.16c.16-.09.68-.44.92-.59,1.11-.7,3.2-2,4.42-7.94C285.71,187.29,283.32,183.11,280.92,185.12Z"/><path class="cls-8" d="M282.08,187.18l-1.19-.65.54-1.78s11.69-10.22,12.68-26.5c-2.11-10.43-11.83-11.8-11.38-23.48,0,0,.77-9.21,3.48-6.18,33.67,37.79,5.84,48.52-.5,58.7,0,0-.5.2-1,.34l-.21.89-1-.55C282.25,188.28,281,188.37,282.08,187.18Z"/><path class="cls-8" d="M278.88,96.55s-9.39-4.76-15.05.75c0,0-1.46,7.87-.86,13.19s1.3,10.37,5.24,10.64c0,0,11.1-.35,12.62-8C282.2,106.32,281.49,98.31,278.88,96.55Z"/><path class="cls-8" d="M255.84,274.46s5.08-4,6.24-5.83l3.29-.28s.43,2.26-6.6,5.62Z"/><path class="cls-8" d="M271.54,275.39s6-1.47,7.8-2.77l3.29.85s-.43,2.27-8.2,2.83Z"/><path class="cls-6" d="M282,96.64a12.56,12.56,0,0,0-6-3h0c-4.43-2-11,1-11,1s-4.52,2-6.1,5c-1.92,3.66,4,6.16,4,6.16a35.82,35.82,0,0,0,1.8-4.19c1.5,4.32,5.24,10.47,14.32,10.16a21.68,21.68,0,0,1,3,8.41,12.88,12.88,0,0,1,1.25,1.3c.78.88-.44.53-.05,1.52.25-.69,2.1-1,2.57-1.28C285.76,121.72,292,108.54,282,96.64Z"/><path class="cls-9" d="M259.27,165.76a57.78,57.78,0,0,0,.16-7.31,24.77,24.77,0,0,0-1.1-5.53c-.61-2.24-1.67-4.73-2.32-7-1.72,11.26-2.76,27-2.76,27l6.42.67A42.7,42.7,0,0,1,259.27,165.76Z"/><path class="cls-9" d="M261,134.39c.33-.31.67-.6,1-.89a37.71,37.71,0,0,1,3.34-2.73c.59-.49,1.18-1,1.73-1.5a2.18,2.18,0,0,1,.71-.44A23,23,0,0,1,270,126c-2.28-.64-6.36,1.3-6.36,1.3s-3.43,1.45-6.26,11.19c0,.12-.07.26-.11.39C258.66,137.38,259.73,135.59,261,134.39Z"/><path class="cls-2" d="M544.18,178s.54-49.19-8.17-55.41l.18-.39s1.61-.86,3.25,1.94,8.14,50.91,4.77,55.19Z"/><path class="cls-6" d="M548.19,103.73c1.27-3.3.85-13.6-4.78-16s-8.12.6-8.12.6l1.56,6s-.18,3.33-.39,7c-1.86,3.33-3.67,7-3.71,8.63-.08,3.44-.07,5.19-.07,5.19a22.27,22.27,0,0,0,3.73-3.76c1.07,2.86,3.84,5.17,4.32,7,.62,2.34-1.19,4.58-1.19,4.58,1.48.7,4,.13,4,.13,3.8-.67,5.84-6.89,3.88-9.33S546.91,107,548.19,103.73Z"/><path class="cls-17" d="M518.22,123.09c-2.05,2.82-1.53,2-15.9,23.74-3.38,5.1-2.83,6.43.76,6.32s14.21-3.08,14.85-9.13S518.22,123.09,518.22,123.09Z"/><path class="cls-5" d="M521.92,265.38s.79.55.8.82,1,4,.83,4.66-11.15,1.72-11.15,1.72-5.53-.33-6.1-1.05-.31-1.25,0-1.33,13.12-4.82,13.12-4.82Z"/><path class="cls-7" d="M522.05,223.07l-3-11.19-9.63,9.83s1.6,1.22,8.66,39.7h0l.75,5.54c.66.67,2.93.63,3.22-.19,0-.14.23-5.59.23-5.59C522.28,251.12,522.44,224.5,522.05,223.07Z"/><path class="cls-5" d="M537.9,271.37s.81.4.82.67a28,28,0,0,1,.21,4.46c-.2.62-11.13,1.83-11.13,1.83s-5.53-.27-6.1-1-.34-1.24,0-1.33,13.07-5,13.07-5Z"/><path class="cls-8" d="M537.25,209c4.34-20,3.25-28.87.58-39.41-2.31-9.1-6.79-2.37-11.87-2.31-.13,2-14.76.45-14.89,2.51-.5,7.7,4,22.55,8.71,34.89,7.22,18.12,14,58.45,14.69,66.74,0,0-6,2.32-6.66,2.64l2.36,1c6-.48,7.94-1.78,7.73-3.15,0-.07,0-2.38-.07-4C538.31,249.13,535.68,212.74,537.25,209Z"/><path class="cls-6" d="M510.59,170.51l-1.19,1.07s-5,22.26.31,52.12c0,0,16.71,4.73,28.42-.16,0,0,2.12-24.46,3-28.44s3.27-14-4.91-25.09Z"/><path class="cls-2" d="M526.76,175s11,2,16.46-3.09c0,0,6.49,16.46,4.53,21.32-.83,2.07-17.47,5.13-22.22,1.63C525.53,194.89,523,193.45,526.76,175Z"/><path class="cls-8" d="M533.65,106.49c-.65,2.29-.12,4.44,1.18,4.81s2.87-1.19,3.52-3.48.11-4.44-1.18-4.8S534.3,104.21,533.65,106.49Z"/><path class="cls-16" d="M538.74,171.73s-4.56-12.64-4.72-19.49l6.48-24.49v-3.53s-2.41-2-10.21-2.68a33.48,33.48,0,0,0-12.07,1.55s-5.56,5.72-6.89,10.71c-.82,3.11.67,12.86.34,15.15-.46,3.17-1.85,20.44-2.27,22.63S520.12,177.46,538.74,171.73Z"/><path class="cls-7" d="M534,109.26s-2.14,8.31-2.44,13.08c0,0-3.77,3.37-7,.25,0,0-1.26-12.49-3.92-14.4S534,109.26,534,109.26Z"/><path class="cls-8" d="M533,183.51a7.82,7.82,0,0,0-3.88,4.55c-1.15,3.4,1.23.51,6.66-4.62Z"/><path class="cls-8" d="M532.38,183.85a29.18,29.18,0,0,0-1.9,4.57,32,32,0,0,0-1.4,5.16c-.3,1.37.71.51.78.49s-.1.15.24.29a1.92,1.92,0,0,0,1.09-.12c.19-.08.82-.4,1.1-.53,1.32-.64,3.81-1.8,5.54-7.55C537.83,186.16,535.27,182,532.38,183.85Z"/><path class="cls-16" d="M541.65,125c-2.32-3.78-4.67,6.3-4.67,6.3-1.21,12.2-1.21,18.17.85,29.17-2.13,17-6.78,23.44-6.78,23.44l2.5,2.08a.52.52,0,0,0,.13.11h0c.86.45,5.07.66,5.07.66C547.2,176.42,552.69,143,541.65,125Z"/><path class="cls-8" d="M533.51,91.88S524,87,518.26,92.63c0,0-1.26,9.16-.65,14.55s1.1,9.34,5.09,9.61c0,0,11.26-.35,12.8-8.06C536.89,101.78,536.16,93.66,533.51,91.88Z"/><path class="cls-7" d="M480,145.63a8.31,8.31,0,0,0-4.58-4.38c-3.42-1.31-.51,1.39,4.65,7.53Z"/><path class="cls-7" d="M478.71,143.93a28.32,28.32,0,0,0-4.86-1.46,29.92,29.92,0,0,0-5.37-.8c-1.41-.14-.39.86-.36,1s-.17-.1-.24.31a2.49,2.49,0,0,0,.29,1.21l.71,1.14c.86,1.39,2.42,4,8.43,5.09C477.31,150.37,481,146.88,478.71,143.93Z"/><path class="cls-6" d="M527.63,88.62a44.76,44.76,0,0,0-5.88.4s-6.34,1.18-8.07,5,3.76,5.4,3.76,5.4c.28-3.53,1.55-5.49,2.61-6.53.45,2.8,2.78,10,15.05,10.07a7.12,7.12,0,0,1,2.71,2s1.79-6.93,2.69-8.2S540.73,84.73,527.63,88.62Z"/><path class="cls-17" d="M509.19,151.81s-16.36,6.73-32.68-.91c0,0-.4-5.18,1.95-6.05,4-1.47,2.06,3.86,21.72.26C508.12,143.65,509.19,151.81,509.19,151.81Z"/><path class="cls-7" d="M510.81,269s6.08-1.65,7.83-3l3.35.79s-.37,2.3-8.23,3.07Z"/><path class="cls-16" d="M522.17,120.68s-.93-3,1.68-3.15l.18,1s4.48,1.45,8.12-.63l.18-1a1.82,1.82,0,0,1,1.89,1.84c.1,1,.08,2.73.56,3.4a11.14,11.14,0,0,1-11.26,1.43,11.87,11.87,0,0,1-1.53-1.19A4,4,0,0,0,522.17,120.68Z"/><path class="cls-16" d="M535.53,88.15a4.54,4.54,0,0,1,1.32-.8c.68-.24,4.18,1.22,4.17,6.67C541,94,539.83,89.11,535.53,88.15Z"/><path class="cls-2" d="M538.25,123.09s.33-.86-1.85-1S529,156.4,526.76,175l1.62.72S532.62,131.46,538.25,123.09Z"/><path class="cls-5" d="M221,122.24s7.48.27,15.65,8.33a8.21,8.21,0,0,1-6.08,4.7Z"/><path class="cls-6" d="M208,122.54s8.25-5.23,18.56,2.08,7.4,26.06,4.58,35.45a20.72,20.72,0,0,1-22.67,1.3S203.61,126.55,208,122.54Z"/><path class="cls-6" d="M215.1,121.22s1.14-5.56,5.29-5.59c0,0,3.86.51,2.27,4.38-1.22,3-2.72,2.11-2.72,2.11l-.75-.44s2.9-2.89,1-3.9c0,0-2.48-1.17-4.37,3.59Z"/><path class="cls-16" d="M198.32,91.32c-.31-.06-3.74.06-3.74.06s1.25-2.91,6.47-2C204.09,89.92,198.32,91.32,198.32,91.32Z"/><path class="cls-15" d="M196.75,91.38c-.24.05-2.37,1.12-2.37,1.12a2.24,2.24,0,0,1,2.2-2.42C199,89.91,196.75,91.38,196.75,91.38Z"/><path class="cls-16" d="M190.05,107.05a4.4,4.4,0,1,0,4.4-4.39A4.4,4.4,0,0,0,190.05,107.05Z"/><path class="cls-15" d="M190.91,107.51a4.4,4.4,0,1,0,4.4-4.39A4.4,4.4,0,0,0,190.91,107.51Z"/><path class="cls-5" d="M204.47,270.87s.79.39.79.65a27.78,27.78,0,0,1,.21,4.34c-.2.61-10.84,1.78-10.84,1.78s-5.38-.26-5.94-.95-.33-1.22,0-1.3,12.73-4.83,12.73-4.83Z"/><path class="cls-5" d="M213.09,273.07a8.14,8.14,0,0,0,1.78.63,6.27,6.27,0,0,0,1.77-.41s-2.11-1.22,1.5-.05c0,0,10,6.45,9.87,6.83s-2.38,1.52-8.55.33c0,0-5.48-2-6.46-2.9C212.85,277.36,212.27,273.55,213.09,273.07Z"/><path class="cls-7" d="M191.54,175.18a6.24,6.24,0,0,1,2.62,3.94c.52,2.67-1.09.18-4.93-4.4Z"/><path class="cls-7" d="M191.28,175.16a21,21,0,0,1,1.61,3.43,22,22,0,0,1,1.18,3.87c.25,1-.6.38-.66.37s.09.11-.2.21a1.91,1.91,0,0,1-.93-.08l-.92-.4c-1.11-.48-3.22-1.35-4.68-5.66C186.68,176.9,188.85,173.77,191.28,175.16Z"/><path class="cls-8" d="M216.57,268.45s.13,5.35.1,5.45c-.25.81-2.55.86-3.23.24L212.1,269Z"/><path class="cls-8" d="M204.71,266.44s.08,5.31,0,5.45c-.24.81-2.44,1-3.12.34l-1-5.34Z"/><path class="cls-14" d="M195.28,142.65s-3.61-17.63-6.67-15-18.07,26.83-1.25,51.33c0,0,5.56,2.92,3.62-5.42S187.14,152,195.28,142.65Z"/><path class="cls-5" d="M190.47,170.8s1.71,38.57,3.57,56.64c0,0,9.71-1.58,10.69-5.74s-.87-48.75-.87-48.75Z"/><path class="cls-6" d="M205.59,172.41c-.14,2-14.32-.88-14.45,1.12-.48,7.49,11.5,28.45,11.48,28.72,4.65,32.31,7.78,61.64,9.51,68.45.72,2.82,5.56.1,5.56.1,1-36.73,1.73-95.35,1.73-95.35C215.77,173,210.53,172.36,205.59,172.41Z"/><path class="cls-8" d="M215.44,189.43a7.46,7.46,0,0,0-3,4.75c-.6,3.24,1.26.23,5.69-5.32Z"/><path class="cls-16" d="M216.12,204.67a.59.59,0,0,1-.83.08L204.66,196a.58.58,0,0,1-.08-.82l5-6.13a.59.59,0,0,1,.83-.08l10.63,8.71a.59.59,0,0,1,.08.83Z"/><path class="cls-2" d="M216,204a.53.53,0,0,1-.74.07l-9.49-7.78a.54.54,0,0,1-.08-.74l4.45-5.42a.53.53,0,0,1,.74-.08l9.49,7.79a.52.52,0,0,1,.08.73Z"/><path class="cls-11" d="M220.18,198.52a7.55,7.55,0,0,1-1.38.49,9.67,9.67,0,0,1-1.4.29,8.92,8.92,0,0,1-1.37.06,17.56,17.56,0,0,1-1.77-.13c-.47-.06-.93-.15-1.4-.25s-.88-.22-1.32-.34c-.62-.18-1.23-.35-1.84-.55a17.75,17.75,0,0,1-2.89-1.19l-.11-.06,8.57,7a.51.51,0,0,0,.73-.08l4.44-5.4Z"/><path class="cls-2" d="M207.75,192.62a.25.25,0,1,1,0-.36A.26.26,0,0,1,207.75,192.62Z"/><path class="cls-18" d="M204.69,124.27s11.14-.65,17.35,4.77c0,0,7.25,32.41-2.62,46.26,0,0-18.35,8.95-29.1-1.39,0,0-7.19-35.3-1.09-46.77C189.23,127.14,193.22,124.53,204.69,124.27Z"/><path class="cls-6" d="M227.2,160.8c-10,3.58-13.56-2.91-15.3-10.15-2.35-10,1.31-23.24,8.24-23.24,0,0-2.25-3.86-5-2.39s-7.66,7-8.33,19.34c0,11,6.44,24.32,22.13,17.57C228.9,161.93,229.49,160,227.2,160.8Z"/><path class="cls-7" d="M198,113.34a91.79,91.79,0,0,1,2.37,12.73s3.67,3.28,6.84.24c0,0,1.23-12.15,3.81-14S198,113.34,198,113.34Z"/><path class="cls-8" d="M209.59,96.41s-12.25-3.79-17.84,1.65c0,0,1,6.87,1.57,12.12s1.85,10.22,5.74,10.49c0,0,11-.34,12.46-7.86C212.87,106.05,212.17,98.14,209.59,96.41Z"/><path class="cls-6" d="M208.76,90.6l.09,1.17.79-.93s5.36,2.75,3.42,16.91c0,0-1.54.83-1.76,1.3a18.61,18.61,0,0,0-5.7-8c-3.2.51-9.72,1-13.08-2.53l-.79.19S186.59,97,186,93.84C186,93.84,206.62,87.52,208.76,90.6Z"/><path class="cls-8" d="M209.72,110.64c-.63,2.23-.11,4.32,1.15,4.68s2.8-1.16,3.42-3.39.12-4.32-1.14-4.68S210.35,108.41,209.72,110.64Z"/><path class="cls-8" d="M215.71,189.84a26.32,26.32,0,0,0-1.85,4.14,28.1,28.1,0,0,0-1.36,4.68c-.29,1.25.69.47.77.45s-.11.14.23.26a2,2,0,0,0,1.06-.1l1.06-.49c1.29-.57,3.72-1.63,5.4-6.84C221,191.94,218.52,188.15,215.71,189.84Z"/><path class="cls-2" d="M213.52,136.33s1.81-9.09,6.52-8.55c10.64,1.24,21.36,31.69,1.82,64.54,0,0-6.82.31-6.45-3.67.63-6.7,3.56-12.52,2-25.4C216.72,157.33,212,147.34,213.52,136.33Z"/><path class="cls-5" d="M201.79,219.53s2.56-.43,3,1,.53,39.2.53,49c0,0-3.53,1.79-4.72,0-1.83-2.76-6.51-42-6.51-42Z"/><path class="cls-15" d="M205.74,110.19a4.4,4.4,0,1,0,4.4-4.4A4.4,4.4,0,0,0,205.74,110.19Z"/><path class="cls-15" d="M209.49,106.8s3.15-13.3-13.28-15.93c0,0-.12-1.79,3.6-1.44,8.47.81,14.38,7.7,12.3,18.32Z"/><path class="cls-16" d="M206.65,110.82a4.4,4.4,0,1,0,4.4-4.4A4.39,4.39,0,0,0,206.65,110.82Z"/><path class="cls-16" d="M210.59,107.53s3.32-17-14.14-17.46c0,0,.91-1.13,4.63-.78,8.47.81,14.21,8.56,12.13,19.18Z"/><path class="cls-6" d="M200.26,124.51s-14.82-3.51-14,23.91c0,0,.16,4.44,1.16.51S189.23,130.41,200.26,124.51Z"/><path class="cls-5" d="M474.69,118.36s7.48.27,15.64,8.33a8.21,8.21,0,0,1-6.07,4.7Z"/><path class="cls-6" d="M461.64,118.66s8.25-5.23,18.56,2.09,7.4,26.05,4.58,35.44a20.73,20.73,0,0,1-22.67,1.3S457.28,122.67,461.64,118.66Z"/><path class="cls-6" d="M468.77,117.35s1.13-5.57,5.29-5.6c0,0,3.86.51,2.27,4.38-1.22,3-2.72,2.11-2.72,2.11l-.76-.44s2.91-2.89,1-3.9c0,0-2.47-1.17-4.36,3.59Z"/><path class="cls-5" d="M458.14,267s.78.39.79.65a27.84,27.84,0,0,1,.21,4.35c-.2.6-10.84,1.77-10.84,1.77s-5.38-.26-5.95-.95-.32-1.22,0-1.3,12.74-4.82,12.74-4.82Z"/><path class="cls-5" d="M466.76,269.19a7.94,7.94,0,0,0,1.78.63,6.36,6.36,0,0,0,1.77-.4s-2.11-1.23,1.49-.06c0,0,10,6.45,9.88,6.83s-2.38,1.52-8.55.33c0,0-5.49-2-6.46-2.9C466.52,273.48,465.93,269.67,466.76,269.19Z"/><path class="cls-7" d="M445.2,171.31a6.19,6.19,0,0,1,2.63,3.93c.52,2.67-1.09.19-4.93-4.4Z"/><path class="cls-7" d="M445,171.28a21,21,0,0,1,1.61,3.43,21.83,21.83,0,0,1,1.17,3.87c.26,1-.59.38-.66.37s.1.11-.2.21a1.87,1.87,0,0,1-.92-.08l-.92-.4c-1.12-.48-3.22-1.35-4.68-5.66C440.35,173,442.51,169.89,445,171.28Z"/><path class="cls-8" d="M470.24,264.57s.13,5.35.1,5.45c-.25.81-2.55.86-3.24.24l-1.34-5.14Z"/><path class="cls-8" d="M458.37,262.56s.09,5.31.05,5.45c-.24.81-2.45,1-3.12.34l-1-5.34Z"/><path class="cls-14" d="M449,138.77s-3.61-17.63-6.67-15-18.07,26.83-1.26,51.33c0,0,5.57,2.92,3.63-5.42S440.81,148.08,449,138.77Z"/><path class="cls-5" d="M444.14,166.92s1.7,38.57,3.56,56.64c0,0,9.72-1.58,10.7-5.74s-.87-48.75-.87-48.75Z"/><path class="cls-6" d="M459.25,168.53c-.13,2-14.31-.88-14.44,1.12-.49,7.49,11.5,28.45,11.48,28.72,4.65,32.31,7.78,61.64,9.51,68.45.72,2.83,5.56.1,5.56.1,1-36.72,1.73-95.35,1.73-95.35C469.44,169.15,464.2,168.48,459.25,168.53Z"/><path class="cls-9" d="M473.1,198a.77.77,0,0,1-1,.38l-11.72-4.61a.79.79,0,0,1-.49-1l2.51-6.37a.77.77,0,0,1,1-.38l11.72,4.61a.79.79,0,0,1,.49,1Z"/><path class="cls-18" d="M475.7,125.16c-6.2-5.42-17.34-4.77-17.34-4.77-11.47.26-15.46,2.87-15.46,2.87-2.74,5.14-2.8,15.07-2,24.46-.52,3.47-1.91,12.42-2.81,15.16-.65,2,.94,4.71,3.83,7a3.92,3.92,0,0,1-.24.43c-.8,1.25,2.17,3.68,6.4,4.85s10.25-.11,10.25-.11l0,0a40.48,40.48,0,0,0,14.83-3.58C483,157.57,475.7,125.16,475.7,125.16Z"/><path class="cls-14" d="M456.74,128.15a31.8,31.8,0,0,0,6.41-4.27,1.68,1.68,0,0,1,1.42-.5l.45-.53h0c3.39-4.19,7.17-11.17,8-21.9,0,0-2.67-19.68-14.19-14.37-12,5.53-12.35,22.79-10.2,32.06l-.3.13s2.39,9.25,4.69,10.73c.59.39,1.68.13,3-.46A1.66,1.66,0,0,1,456.74,128.15Z"/><path class="cls-16" d="M471.32,103.54a4.4,4.4,0,1,1-4.4-4.4A4.4,4.4,0,0,1,471.32,103.54Z"/><path class="cls-15" d="M470.46,104a4.4,4.4,0,1,1-4.39-4.4A4.39,4.39,0,0,1,470.46,104Z"/><path class="cls-18" d="M449.38,121.57s-5.53-6.09-7.82,5.32c0,0,7.9-1,8.63-2.23S449.38,121.57,449.38,121.57Z"/><path class="cls-6" d="M480.87,156.92c-10,3.58-13.57-2.91-15.3-10.15-2.36-10,1.31-23.24,8.24-23.24,0,0-2.25-3.86-5-2.39s-7.67,7-8.33,19.34c0,11,6.44,24.32,22.12,17.57C482.56,158.05,483.16,156.1,480.87,156.92Z"/><path class="cls-7" d="M451.7,109.46s2.09,8.09,2.38,12.73c0,0,3.67,3.28,6.84.24,0,0,1.22-12.15,3.81-14S451.7,109.46,451.7,109.46Z"/><path class="cls-8" d="M452.2,92.53s12.25-3.79,17.83,1.65c0,0-1,6.87-1.56,12.12s-1.85,10.22-5.74,10.49c0,0-11-.34-12.47-7.85C448.91,102.17,449.62,94.26,452.2,92.53Z"/><path class="cls-6" d="M453,86.72l-.09,1.17-.79-.93s-5.36,2.75-3.43,16.91c0,0,1.54.83,1.77,1.3a18.51,18.51,0,0,1,5.7-8c3.19.51,9.72,1,13.07-2.52.27,0,.53.11.8.18A4.94,4.94,0,0,0,473.35,91S455.17,83.65,453,86.72Z"/><path class="cls-8" d="M452.07,106.76c.62,2.23.11,4.32-1.15,4.68s-2.8-1.16-3.43-3.39-.11-4.32,1.15-4.68S451.44,104.53,452.07,106.76Z"/><path class="cls-8" d="M469.11,185.55a7.46,7.46,0,0,0-3,4.75c-.6,3.24,1.25.23,5.69-5.32Z"/><path class="cls-8" d="M469.38,186a26.32,26.32,0,0,0-1.85,4.14,28.1,28.1,0,0,0-1.36,4.68c-.29,1.25.69.47.76.45s-.1.14.23.26a2,2,0,0,0,1.07-.1l1.06-.49c1.29-.57,3.71-1.63,5.4-6.84C474.69,188.06,472.19,184.28,469.38,186Z"/><path class="cls-2" d="M466.8,132.11s1.81-9.1,6.52-8.55c10.64,1.23,21.37,31.68,1.82,64.53,0,0-6.82.31-6.45-3.67.63-6.69,3.56-12.51,2-25.4C470,153.1,465.25,143.11,466.8,132.11Z"/><path class="cls-5" d="M455.46,215.65s2.56-.43,3,1,.53,39.2.53,49c0,0-3.53,1.8-4.72,0-1.83-2.76-6.52-42-6.52-42Z"/><path class="cls-7" d="M454.58,121.93s-3.07,1-3.11,2.28.64,6.86.64,6.86l8.18-5,2.19-3.28-2.67-2Z"/><path class="cls-15" d="M455.49,106.46a4.4,4.4,0,1,1-4.4-4.39A4.4,4.4,0,0,1,455.49,106.46Z"/><path class="cls-16" d="M454.58,107.09a4.4,4.4,0,1,1-4.39-4.39A4.4,4.4,0,0,1,454.58,107.09Z"/><path class="cls-6" d="M448.08,123.38a1.1,1.1,0,0,0-.4-.47,2.07,2.07,0,0,1-.69-.85c-3.73,2.4-7.5,8.3-7.09,22.48,0,0,.17,4.44,1.16.51.83-3.26,1.56-13.93,8.14-20.81A1.57,1.57,0,0,1,448.08,123.38Z"/><path class="cls-2" d="M470.32,102.35a47.25,47.25,0,0,1-17.41,28.72s9.49-4.07,14-8.62C466.88,122.45,471.74,106.12,470.32,102.35Z"/><path class="cls-2" d="M471.24,124s8.81-5.82,7.37,4.48c0,0-8.19-1.93-8.52-2.73S471.24,124,471.24,124Z"/><path class="cls-2" d="M476.24,96.82a2.88,2.88,0,0,1,.48-.7c1.7-1.4-9.1-17.61-30-10.46-7.67,2.62-5.57,25.18-3.8,30.62.2.63.38,1.18.56,1.68a.59.59,0,0,0-.23,0c-1.84.66.27,5.52,2.4,8s3.84,4,6.07,4.88h0a1.59,1.59,0,0,0,.63.32c.6,0,1-.29,1.6-.32-1.5-1-5.9-12.74-4.81-26.8.66-8.39,7.6-13.85,12.41-13.7,3.55.11,7.42.13,8.5,8.1.93,6.8-4.42,21.21-6,25.33l-10.07,7.07,9.14-4.33s9.26-5.2,10-8.55-2.39-2.18-2.39-2.18S476.08,111.93,476.24,96.82Z"/><path class="cls-6" d="M466.5,94.82s6.85.75,10-4.52c0,0-3.09-1.38-15.32,0C461.16,90.32,463.35,94.82,466.5,94.82Z"/><path class="cls-9" d="M794.54,213.2s5.31-89.62-54.61-72.17c-26,7.58-18.28,47.51-45.47,56.35,0,0-29.93,13.1-29.22,32.9.86,23.85,51.62,55.21,111.43,15.82C793.21,234.75,794.54,213.2,794.54,213.2Z"/><path class="cls-10" d="M694.35,256.25a86.05,86.05,0,0,1,11-10.42C713.48,239.76,722,234.22,730,228l-4.75,3.67c6.35-4.86,13.27-9.29,19.22-14.7a66.34,66.34,0,0,0,13-12.32A74.16,74.16,0,0,0,769.88,183a59.31,59.31,0,0,0,3.35-19.33A75.66,75.66,0,0,0,772,149.36a34.84,34.84,0,0,0,.06-5.31c28.22,16,22.48,69.15,22.48,69.15s-1.33,21.55-17.87,32.9c-31.49,20.74-62.92,20.89-84.22,13.2C693.05,258.26,693.68,257.24,694.35,256.25Z"/><path class="cls-15" d="M711.94,155.77s3.47-5.25,7.06-2.46c5.47,4.25,7.22,22.1-7,33.86-6.54,5.42-24-13.48-26.27-20.57,0,0-2.16-7.09,5.17-3.76a54,54,0,0,1,14.55,10C704.26,172.09,706.47,160.83,711.94,155.77Z"/><path class="cls-7" d="M690.42,162.3a7.29,7.29,0,0,0-4.64-4.85c-3.87-1.4-1.67.76,4.21,7.22Z"/><path class="cls-7" d="M690.42,162.3a33.53,33.53,0,0,0-4.71-3.08,35.3,35.3,0,0,0-5.49-2.61c-1.47-.61-.72.72-.72.82s-.15-.16-.37.22a2.37,2.37,0,0,0-.11,1.29c.06.23,0,1.17.07,1.52.43,1.66.56,4.12,6.64,7.23C685.73,167.69,691.88,166,690.42,162.3Z"/><path class="cls-5" d="M732.8,195.06s-39.49,4.48-57.91,7.94c0,0,1.38,9,5.73,10s51,10.11,55.2,4S732.8,195.06,732.8,195.06Z"/><path class="cls-5" d="M684.82,253.09s1,.55,1,.89.3,4.79,0,5.56-14,1.61-14,1.61-6.87-.66-7.54-1.59-.34-1.57.08-1.66,16.57-5.38,16.57-5.38Z"/><path class="cls-8" d="M685.39,247.45s-.21,6.79-.27,7c-.36,1-3.19,1.08-4,.24l-.94-6.89Z"/><path class="cls-5" d="M688.57,202.37s-.23,6,.16,7.51-1.73,31.6-2.52,41.64c0,0-4.68,1.49-6.06-.47C678,248,674.91,203,674.91,203Z"/><path class="cls-6" d="M735.48,196.79s-41.37,9.94-59.25,15.58c0,0,2.46,8.79,6.89,9.28s47.74,3.35,52.54-2.29c1.54-1.8,3.49-6.43,5-16.9C741.37,197.75,735.48,196.79,735.48,196.79Z"/><path class="cls-5" d="M695.61,267.4s1.14.55,1.15.93.62,5.39.33,6.26-15.63,2.63-15.63,2.63-7.77-.35-8.58-1.35-.47-1.75,0-1.88,18.34-7,18.34-7Z"/><path class="cls-8" d="M694.27,261.18s.68,7.64.64,7.84c-.26,1.19-3.42,1.64-4.46.82l-2-7.59Z"/><path class="cls-6" d="M691.29,210.11s.56,6.72,1.19,8.29,2.3,35.23,2.77,46.45c0,0-5,2.27-6.78.29-2.76-3.06-12.21-52.52-12.21-52.52Z"/><path class="cls-16" d="M722,150.37s11.63-.66,13.49,4.11c0,0,4.83,4.92,6.29,19.6,1,10.51-.14,21-1.19,28.07,0,0-17.16,4-23.71-3.43,0,0-11.7-28-6.47-39.86C710.45,158.86,715.94,150.35,722,150.37Z"/><path class="cls-2" d="M728.5,151.18s-10.69,6.07-13.66,11.53c0,0,1.36-9.07,4.37-11.23Z"/><path class="cls-7" d="M729.31,141.16s-.81,6.9-.81,9.69c0,.9-6.44,2.61-9.07.93-.56-.36-.51-8-.51-8Z"/><path class="cls-8" d="M725.37,122s-10.09-3.31-15.67,3.51c0,0-.36,10.93,1.56,17.82,1,3.4,2,4.91,5.38,5.09,0,0,12.24.39,13-8.24C730.28,132.38,728.48,123.58,725.37,122Z"/><path class="cls-6" d="M727.41,137.88s-2.17-9.65-9.11-11-8.46,1.11-9.35.61c-2.14-1.22-1.21-4.1-1.21-4.1s.89-3.34,6-4.94c1.58-.5,15.79-2.82,20.4,7.22,3.63,7.89-3.6,18.46-4.68,20S727.41,137.88,727.41,137.88Z"/><path class="cls-8" d="M725.48,134.63c-.13,2.21.77,4.07,2,4.15s2.39-1.66,2.53-3.87-.77-4.07-2-4.15c-.89,0-1.72.8-2.18,2.09A6.94,6.94,0,0,0,725.48,134.63Z"/><path class="cls-8" d="M726,210.38a8.43,8.43,0,0,0-4.59,4.64c-1.5,3.61,1.34.65,7.68-4.5Z"/><path class="cls-8" d="M726.14,210.94a31.39,31.39,0,0,0-3.12,4.29,32.58,32.58,0,0,0-2.71,5.07c-.65,1.37.63.75.72.75s-.15.13.19.37a2.23,2.23,0,0,0,1.21.2l1.3-.24c1.58-.29,4.54-.79,7.75-6.39C731.48,215,729.69,209.82,726.14,210.94Z"/><path class="cls-16" d="M727.73,159.19s3.13-9.59,6.45-5.83c13.68,15.47,16.59,51-3.21,62.69a6.27,6.27,0,0,1-4.67-4.3c-1.47-3.93,5.66-17.08,5.66-17.08C728.59,186.62,726.18,170.84,727.73,159.19Z"/><path class="cls-10" d="M717.3,208.52s.66-1.21,0-1.27-45.06,0-45.06,0,.42,1.33.9,1.27S717.3,208.52,717.3,208.52Z"/><polygon class="cls-9" points="687.5 207.67 717.18 207.67 726.1 187.52 693.65 187.52 687.5 207.67"/><path class="cls-10" d="M725.22,187.74a45.9,45.9,0,0,1-9.5,9.76l.21-.16,1.24-1-1.24,1-.39.3L714,198.82l1.53-1.18.18-.14c-5.75,4.39-11.66,8.3-19,9.74-.77.15-1.54.3-2.31.43h22.74l8.92-20.15h-.74Z"/><path class="cls-19" d="M708.43,198.65a1.24,1.24,0,1,1,0-1.84A1.31,1.31,0,0,1,708.43,198.65Z"/><path class="cls-16" d="M72.8,169.49C66,155,58.48,152.86,50.73,155.32c-29.16,9.27-37.88,48.5-29.19,80.92,7.53,28.08,52.21,41.49,77.14,39.24s59.37-9.72,55.79-39c-2.93-24-19.45-24.22-26.37-25.3S92.82,212.09,72.8,169.49Z"/><path class="cls-15" d="M36.61,163.32c.48-.06,1-.15,1.45-.25l.44-.09c.88,0,1.77,0,2.65,0s1.54.39,2.3.64a35.17,35.17,0,0,1,3.08,1.83,50.56,50.56,0,0,1,5.53,5.71A115.22,115.22,0,0,1,62.4,189.28a87.78,87.78,0,0,0,16.19,23.95c7.12,7.27,15.37,14.41,24.72,18.4,9.64,4.11,20,6.26,29.85,9.79,10.58,3.8,11.5,11.65,11.9,13.92.18,1.76.32,3.54.42,5.32-11.34,9.86-31,13.39-46.8,14.82-24.93,2.25-69.61-11.16-77.14-39.24C14.46,209.83,18.94,178.89,36.61,163.32Z"/><path class="cls-10" d="M114.24,152.59c2.06,2.83,1.54,2.06,16,23.88,3.4,5.13-4.36,5.66-8,5.56s-7.09-2.3-7.73-8.39S114.24,152.59,114.24,152.59Z"/><path class="cls-10" d="M120.16,181.84s19.14,5.88,35.56-1.81c0,0-.29-5.55-2.81-5.55-7.27,0-15.16.33-24.36.44C120.44,175,120.16,181.84,120.16,181.84Z"/><path class="cls-6" d="M83.49,144.59c.38-.32.72-.6,1-.86a2.62,2.62,0,0,1,.33-.53c2-2.46.54-6.79-.74-10.1s-.85-13.67,4.81-16,8.17.6,8.17.6l-1.57,6s.18,3.34.39,7a50.44,50.44,0,0,1,3.26,6.7l7.62,1s4.84,4.13,4.63,5.44,2.32,2.92,4.74,4.33,1.1,3.32,0,5.54-.51,3.42-.51,3.42-3.52-3-4.23-3.42-4.63,1.1-5,1.71a29.65,29.65,0,0,0-4.32,10.07c-1.21,5.53-7.46,13.19-8.87,14.47s-2,6.17-2.59,5.56a2.73,2.73,0,0,1-.73-3.43c.9-1.62,1.91-3.21-3.33-6.54s-5.94-8.05-4.37-10.37-1.57-6.14-3.78-9.36S80.59,147,83.49,144.59Z"/><path class="cls-2" d="M149.94,262.35a5.14,5.14,0,0,0-.91.89c-.26.52-2,4.35-1.82,5.08s13.43,4.1,13.43,4.1,6.55-.36,7.34-1.1.56-1.37.17-1.51-15.2-7.14-15.2-7.14Z"/><path class="cls-7" d="M141.82,215.81c.22-1.66-21.66-16.53-21.66-16.53L155,205.94s.13,7.91-1.64,52.32h0l.08,6.34c-.68.87-3.43,1.19-3.92.31-.08-.14-1.26-6.24-1.26-6.24C146.45,247.38,141.6,217.49,141.82,215.81Z"/><path class="cls-2" d="M128.94,267.39s-1.07.46-1.13.76-1.46,3.5-1.34,4.24,12.59,5.55,12.59,5.55,6.4.2,7.24-.49.65-1.33.28-1.49-14.67-8.07-14.67-8.07Z"/><path class="cls-8" d="M137.15,221.14c.78-1.52-28.44-20.76-28.44-20.76l44.7,11.38s-2.09,10.42-18.95,52h0l-2.1,6c-.94.62-3.65.11-3.82-.87,0-.16.94-6.29.94-6.29C131.64,251.38,136.37,222.65,137.15,221.14Z"/><path class="cls-8" d="M141.47,273.68s-6.94-3.08-8.72-5l-4.19.19s-.06,2.66,9.19,5.12Z"/><path class="cls-2" d="M115,197.68h.72s3.1.6,31.17,6.41c0,0-8,1.72-9.7,18.16,0,0-31.93,4.62-40.54-.13-5.37-3-11.14-8.32-7.53-23.3Z"/><path class="cls-9" d="M88.08,203.4s1-4,4.28-18.34c0,0-5.45-15.9-4.28-26.22.48-4.32,3.75-5.12,3.75-5.12s2.42-2.06,10.27-2.7a33.64,33.64,0,0,1,12.14,1.57s7.07,8,8.41,13c.83,3.13-3.15,12.46-3.15,12.46-.38,3.37-4.51,15.15-2.19,20.39C118.22,200.54,106.81,209.17,88.08,203.4Z"/><path class="cls-7" d="M97,138.85s3.38,7,2.22,12.47c-.65,3.06,6.22,3.17,9.49,0,0,0-1.39-10.77,1.28-12.69S97,138.85,97,138.85Z"/><path class="cls-8" d="M143.75,192.46a10.27,10.27,0,0,1,6.94,2c3.48,2.49-.86,1.2-9.73-.4Z"/><path class="cls-8" d="M144.58,192.42a38,38,0,0,1,5,3.15,40.39,40.39,0,0,1,4.94,4c1.24,1.11-.34.89-.43.92s.21.08,0,.41a2.17,2.17,0,0,1-1.15.54c-.24,0-1.07.1-1.44.15-1.74.18-5,.56-10.65-3.79C140.82,197.8,140.46,192.38,144.58,192.42Z"/><path class="cls-9" d="M88.33,160.66c-1.48-4.64,4-7.25,4-7.25,9.09,5.09,18.56,19,28.38,28.56,4.42,2,15.16,6.65,23.61,10.05,0,0,2.88,2.06,2.14,4.32s-2.19,2.48-2.19,2.48C129.57,198.42,95.37,182.75,88.33,160.66Z"/><path class="cls-8" d="M98.85,121.18s9.58-4.86,15.35.76c0,0,1.27,9.21.66,14.63s-1.11,9.4-5.12,9.68c0,0-11.33-.36-12.88-8.12C95.46,131.14,96.19,123,98.85,121.18Z"/><path class="cls-6" d="M110.85,121.13s3.67,1.3,4.18,7.64c0,0,5.51-1.59,3.78-5.43s-8.12-5-8.12-5-6.22-.88-8.91,0S110.85,121.13,110.85,121.13Z"/><path class="cls-7" d="M150.52,179.42a5.91,5.91,0,0,0,3.92,5.31c3.61,1.34,2-1-3-7.83Z"/><path class="cls-7" d="M151.17,181.67a30.26,30.26,0,0,0,5,1.88,30.61,30.61,0,0,0,5.58,1.23c1.48.25.47-.88.45-1s.17.12.28-.31a2.65,2.65,0,0,0-.22-1.28l-.67-1.26c-.79-1.52-2.25-4.38-8.49-6C153.1,175,148.94,178.39,151.17,181.67Z"/><path class="cls-6" d="M112.5,121.11s.06,11.15-15.24,11.22a7.08,7.08,0,0,0-2.73,2s-1.8-7-2.7-8.25-.1-14.43,17.37-6.49Z"/><path class="cls-7" d="M163,267.78s-7.27-3-9.6-4.29l-3.91,1.42s2.66,3.36,10.1,4.31Z"/><path class="cls-16" d="M96.83,117.43a4.67,4.67,0,0,0-1.33-.81c-.69-.24-4.21,1.24-4.2,6.72C91.3,123.34,92.5,118.4,96.83,117.43Z"/><polygon class="cls-2" points="147.07 268.27 151.71 272.63 153.41 272.25 152.06 267.85 147.07 268.27"/><polygon class="cls-2" points="126.46 272.42 129.86 277.68 131.61 277.68 131.42 273.12 126.46 272.42"/><path class="cls-8" d="M98,134.81c.54,1.93.1,3.73-1,4s-2.42-1-3-2.92-.1-3.73,1-4S97.48,132.89,98,134.81Z"/><path class="cls-6" d="M100,130.84s-1.87,3.37-.63,8.73c0,0-3.73-5.41-2.33-8.73S100,130.84,100,130.84Z"/><path class="cls-7" d="M114.24,152.59s-10.37-3.65-20.47.12c0,0,6.86,7,16.21,5C110,157.7,114.49,155.69,114.24,152.59Z"/><path class="cls-5" d="M168.84,210s.7-1.28,0-1.35-48,0-48,0,.45,1.42,1,1.35S168.84,210,168.84,210Z"/><polygon class="cls-6" points="137.1 209.1 168.71 209.1 178.22 187.65 143.65 187.65 137.1 209.1"/><path class="cls-5" d="M177.28,187.87a48.76,48.76,0,0,1-10.12,10.39l.22-.16,1.33-1-1.33,1-.42.32c-.52.41-1.06.83-1.62,1.25l1.62-1.25.2-.16c-6.13,4.68-12.42,8.85-20.2,10.38-.83.16-1.65.32-2.46.46h24.21l9.51-21.45h-.8Z"/><path class="cls-19" d="M159.39,199.49a1.31,1.31,0,1,1,0-2A1.38,1.38,0,0,1,159.39,199.49Z"/></g></g></svg>